<mxfile modified="2021-05-11T20:08:58.682Z" host="app.diagrams.net" agent="5.0 (Windows NT 10.0; Win64; x64) AppleWebKit/537.36 (KHTML, like Gecko) Chrome/90.0.4430.93 Safari/537.36" etag="WoSzoSQcf1_rN9RCUn71" version="14.6.11" type="github" pages="11">
  <diagram name="AdminPortal_Architecture" id="UWuMjynSm3yoGYZ7wEYc">
    <mxGraphModel dx="1278" dy="548" grid="1" gridSize="10" guides="1" tooltips="1" connect="1" arrows="1" fold="1" page="1" pageScale="1" pageWidth="1169" pageHeight="827" math="0" shadow="0">
      <root>
        <mxCell id="oV6eSt7_pDs24Wo_u-xZ-0" />
        <mxCell id="oV6eSt7_pDs24Wo_u-xZ-1" parent="oV6eSt7_pDs24Wo_u-xZ-0" />
        <mxCell id="oV6eSt7_pDs24Wo_u-xZ-2" style="edgeStyle=orthogonalEdgeStyle;rounded=0;orthogonalLoop=1;jettySize=auto;html=1;startArrow=open;startFill=0;endArrow=open;endFill=0;strokeWidth=2;strokeColor=#808080;" parent="oV6eSt7_pDs24Wo_u-xZ-1" edge="1">
          <mxGeometry relative="1" as="geometry">
            <Array as="points">
              <mxPoint x="790" y="579.23" />
              <mxPoint x="790" y="579.23" />
            </Array>
            <mxPoint x="840" y="579" as="targetPoint" />
            <mxPoint x="700" y="579" as="sourcePoint" />
          </mxGeometry>
        </mxCell>
        <mxCell id="oV6eSt7_pDs24Wo_u-xZ-3" style="edgeStyle=orthogonalEdgeStyle;rounded=0;orthogonalLoop=1;jettySize=auto;html=1;startArrow=open;startFill=0;endArrow=open;endFill=0;strokeWidth=2;strokeColor=#808080;" parent="oV6eSt7_pDs24Wo_u-xZ-1" edge="1">
          <mxGeometry relative="1" as="geometry">
            <mxPoint x="494" y="577" as="sourcePoint" />
            <mxPoint x="640" y="577" as="targetPoint" />
            <Array as="points">
              <mxPoint x="515" y="576.23" />
              <mxPoint x="515" y="576.23" />
            </Array>
          </mxGeometry>
        </mxCell>
        <mxCell id="oV6eSt7_pDs24Wo_u-xZ-4" style="edgeStyle=orthogonalEdgeStyle;rounded=0;orthogonalLoop=1;jettySize=auto;html=1;" parent="oV6eSt7_pDs24Wo_u-xZ-1" source="oV6eSt7_pDs24Wo_u-xZ-5" target="oV6eSt7_pDs24Wo_u-xZ-22" edge="1">
          <mxGeometry relative="1" as="geometry">
            <Array as="points">
              <mxPoint x="481" y="410" />
            </Array>
          </mxGeometry>
        </mxCell>
        <mxCell id="oV6eSt7_pDs24Wo_u-xZ-5" value="Cognito User Pool" style="outlineConnect=0;fontColor=#232F3E;gradientColor=#F54749;gradientDirection=north;fillColor=#C7131F;strokeColor=#ffffff;dashed=0;verticalLabelPosition=bottom;verticalAlign=top;align=center;html=1;fontSize=12;fontStyle=0;aspect=fixed;shape=mxgraph.aws4.resourceIcon;resIcon=mxgraph.aws4.cognito;labelBackgroundColor=#ffffff;" parent="oV6eSt7_pDs24Wo_u-xZ-1" vertex="1">
          <mxGeometry x="442" y="300" width="78" height="78" as="geometry" />
        </mxCell>
        <mxCell id="oV6eSt7_pDs24Wo_u-xZ-6" style="edgeStyle=orthogonalEdgeStyle;rounded=0;orthogonalLoop=1;jettySize=auto;html=1;" parent="oV6eSt7_pDs24Wo_u-xZ-1" source="oV6eSt7_pDs24Wo_u-xZ-7" target="oV6eSt7_pDs24Wo_u-xZ-44" edge="1">
          <mxGeometry relative="1" as="geometry" />
        </mxCell>
        <mxCell id="oV6eSt7_pDs24Wo_u-xZ-7" value="Amazon API&lt;br&gt;Gateway&lt;br&gt;" style="outlineConnect=0;fontColor=#232F3E;gradientColor=#945DF2;gradientDirection=north;fillColor=#5A30B5;strokeColor=#ffffff;dashed=0;verticalLabelPosition=bottom;verticalAlign=top;align=center;html=1;fontSize=12;fontStyle=0;aspect=fixed;shape=mxgraph.aws4.resourceIcon;resIcon=mxgraph.aws4.api_gateway;labelBackgroundColor=#ffffff;" parent="oV6eSt7_pDs24Wo_u-xZ-1" vertex="1">
          <mxGeometry x="292" y="527.75" width="84.5" height="84.5" as="geometry" />
        </mxCell>
        <mxCell id="oV6eSt7_pDs24Wo_u-xZ-9" style="edgeStyle=orthogonalEdgeStyle;rounded=0;orthogonalLoop=1;jettySize=auto;html=1;" parent="oV6eSt7_pDs24Wo_u-xZ-1" source="oV6eSt7_pDs24Wo_u-xZ-10" target="oV6eSt7_pDs24Wo_u-xZ-16" edge="1">
          <mxGeometry relative="1" as="geometry" />
        </mxCell>
        <mxCell id="oV6eSt7_pDs24Wo_u-xZ-10" value="File &lt;br&gt;Storage bucket" style="outlineConnect=0;fontColor=#232F3E;gradientColor=#60A337;gradientDirection=north;fillColor=#277116;strokeColor=#ffffff;dashed=0;verticalLabelPosition=bottom;verticalAlign=top;align=center;html=1;fontSize=12;fontStyle=0;aspect=fixed;shape=mxgraph.aws4.resourceIcon;resIcon=mxgraph.aws4.s3;labelBackgroundColor=#ffffff;direction=south;" parent="oV6eSt7_pDs24Wo_u-xZ-1" vertex="1">
          <mxGeometry x="480.0000000000002" y="120" width="78" height="78" as="geometry" />
        </mxCell>
        <mxCell id="oV6eSt7_pDs24Wo_u-xZ-12" value="All application Logs stored &lt;br&gt;in Cloudwatch&amp;nbsp;" style="outlineConnect=0;fontColor=#232F3E;gradientColor=#F34482;gradientDirection=north;fillColor=#BC1356;strokeColor=#ffffff;dashed=0;verticalLabelPosition=bottom;verticalAlign=top;align=center;html=1;fontSize=12;fontStyle=0;aspect=fixed;shape=mxgraph.aws4.resourceIcon;resIcon=mxgraph.aws4.cloudwatch;labelBackgroundColor=#ffffff;direction=west;" parent="oV6eSt7_pDs24Wo_u-xZ-1" vertex="1">
          <mxGeometry x="740" y="710" width="70" height="70" as="geometry" />
        </mxCell>
        <mxCell id="oV6eSt7_pDs24Wo_u-xZ-13" value="User uploads feed json file that contains the forecasted bush fire danger ratings" style="text;html=1;strokeColor=none;fillColor=none;align=center;verticalAlign=middle;whiteSpace=wrap;rounded=0;" parent="oV6eSt7_pDs24Wo_u-xZ-1" vertex="1">
          <mxGeometry x="315" y="60" width="130" height="57" as="geometry" />
        </mxCell>
        <mxCell id="oV6eSt7_pDs24Wo_u-xZ-14" style="edgeStyle=orthogonalEdgeStyle;rounded=0;orthogonalLoop=1;jettySize=auto;html=1;" parent="oV6eSt7_pDs24Wo_u-xZ-1" source="oV6eSt7_pDs24Wo_u-xZ-16" edge="1">
          <mxGeometry relative="1" as="geometry">
            <mxPoint x="878.8000000000002" y="535.73" as="targetPoint" />
          </mxGeometry>
        </mxCell>
        <mxCell id="oV6eSt7_pDs24Wo_u-xZ-15" style="edgeStyle=orthogonalEdgeStyle;rounded=0;orthogonalLoop=1;jettySize=auto;html=1;" parent="oV6eSt7_pDs24Wo_u-xZ-1" source="oV6eSt7_pDs24Wo_u-xZ-16" target="oV6eSt7_pDs24Wo_u-xZ-33" edge="1">
          <mxGeometry relative="1" as="geometry" />
        </mxCell>
        <mxCell id="oV6eSt7_pDs24Wo_u-xZ-16" value="Lambda&lt;br&gt;function" style="outlineConnect=0;fontColor=#232F3E;gradientColor=none;fillColor=#D05C17;strokeColor=none;dashed=0;verticalLabelPosition=bottom;verticalAlign=top;align=center;html=1;fontSize=12;fontStyle=0;aspect=fixed;pointerEvents=1;shape=mxgraph.aws4.lambda_function;labelBackgroundColor=#ffffff;" parent="oV6eSt7_pDs24Wo_u-xZ-1" vertex="1">
          <mxGeometry x="640" y="119.5" width="78" height="78" as="geometry" />
        </mxCell>
        <mxCell id="oV6eSt7_pDs24Wo_u-xZ-17" value="1. user enters&amp;nbsp;username/pwd" style="text;html=1;strokeColor=none;fillColor=none;align=center;verticalAlign=middle;whiteSpace=wrap;rounded=0;" parent="oV6eSt7_pDs24Wo_u-xZ-1" vertex="1">
          <mxGeometry x="278" y="320" width="170" height="30" as="geometry" />
        </mxCell>
        <mxCell id="oV6eSt7_pDs24Wo_u-xZ-18" value="2. Return access_token" style="text;html=1;strokeColor=none;fillColor=none;align=center;verticalAlign=middle;whiteSpace=wrap;rounded=0;" parent="oV6eSt7_pDs24Wo_u-xZ-1" vertex="1">
          <mxGeometry x="290" y="383.62" width="130" height="20" as="geometry" />
        </mxCell>
        <mxCell id="oV6eSt7_pDs24Wo_u-xZ-19" style="edgeStyle=orthogonalEdgeStyle;rounded=0;orthogonalLoop=1;jettySize=auto;html=1;" parent="oV6eSt7_pDs24Wo_u-xZ-1" source="oV6eSt7_pDs24Wo_u-xZ-22" edge="1">
          <mxGeometry relative="1" as="geometry">
            <mxPoint x="442" y="321" as="targetPoint" />
            <mxPoint x="187.81242717429723" y="431" as="sourcePoint" />
            <Array as="points">
              <mxPoint x="280" y="370" />
              <mxPoint x="280" y="321" />
            </Array>
          </mxGeometry>
        </mxCell>
        <mxCell id="oV6eSt7_pDs24Wo_u-xZ-20" style="edgeStyle=orthogonalEdgeStyle;rounded=0;orthogonalLoop=1;jettySize=auto;html=1;" parent="oV6eSt7_pDs24Wo_u-xZ-1" source="oV6eSt7_pDs24Wo_u-xZ-22" edge="1">
          <mxGeometry relative="1" as="geometry">
            <mxPoint x="149" y="290" as="targetPoint" />
          </mxGeometry>
        </mxCell>
        <mxCell id="oV6eSt7_pDs24Wo_u-xZ-21" style="edgeStyle=orthogonalEdgeStyle;rounded=0;orthogonalLoop=1;jettySize=auto;html=1;startArrow=none;" parent="oV6eSt7_pDs24Wo_u-xZ-1" source="oV6eSt7_pDs24Wo_u-xZ-50" target="oV6eSt7_pDs24Wo_u-xZ-28" edge="1">
          <mxGeometry relative="1" as="geometry">
            <Array as="points">
              <mxPoint x="148" y="566" />
            </Array>
          </mxGeometry>
        </mxCell>
        <mxCell id="oV6eSt7_pDs24Wo_u-xZ-22" value="" style="outlineConnect=0;fontColor=#232F3E;gradientColor=none;fillColor=#232F3E;strokeColor=none;dashed=0;verticalLabelPosition=bottom;verticalAlign=top;align=center;html=1;fontSize=12;fontStyle=0;aspect=fixed;pointerEvents=1;shape=mxgraph.aws4.client;" parent="oV6eSt7_pDs24Wo_u-xZ-1" vertex="1">
          <mxGeometry x="94.25" y="340" width="108" height="105.23" as="geometry" />
        </mxCell>
        <mxCell id="oV6eSt7_pDs24Wo_u-xZ-23" value="Front end &lt;br&gt;Static Files(html/js/css)&lt;br&gt;(private + encrypted)" style="outlineConnect=0;fontColor=#232F3E;gradientColor=#60A337;gradientDirection=north;fillColor=#277116;strokeColor=#ffffff;dashed=0;verticalLabelPosition=bottom;verticalAlign=top;align=center;html=1;fontSize=12;fontStyle=0;aspect=fixed;shape=mxgraph.aws4.resourceIcon;resIcon=mxgraph.aws4.s3;labelBackgroundColor=#ffffff;direction=south;" parent="oV6eSt7_pDs24Wo_u-xZ-1" vertex="1">
          <mxGeometry x="270.0000000000002" y="180.5" width="78" height="78" as="geometry" />
        </mxCell>
        <mxCell id="oV6eSt7_pDs24Wo_u-xZ-24" style="edgeStyle=orthogonalEdgeStyle;rounded=0;orthogonalLoop=1;jettySize=auto;html=1;" parent="oV6eSt7_pDs24Wo_u-xZ-1" source="oV6eSt7_pDs24Wo_u-xZ-25" target="oV6eSt7_pDs24Wo_u-xZ-23" edge="1">
          <mxGeometry relative="1" as="geometry" />
        </mxCell>
        <mxCell id="oV6eSt7_pDs24Wo_u-xZ-25" value="CDN&lt;br&gt;" style="outlineConnect=0;dashed=0;verticalLabelPosition=bottom;verticalAlign=top;align=center;html=1;shape=mxgraph.aws3.cloudfront;fillColor=#F58536;gradientColor=none;" parent="oV6eSt7_pDs24Wo_u-xZ-1" vertex="1">
          <mxGeometry x="110" y="173" width="76.5" height="93" as="geometry" />
        </mxCell>
        <mxCell id="oV6eSt7_pDs24Wo_u-xZ-26" style="edgeStyle=orthogonalEdgeStyle;rounded=0;orthogonalLoop=1;jettySize=auto;html=1;" parent="oV6eSt7_pDs24Wo_u-xZ-1" source="oV6eSt7_pDs24Wo_u-xZ-28" target="oV6eSt7_pDs24Wo_u-xZ-7" edge="1">
          <mxGeometry relative="1" as="geometry" />
        </mxCell>
        <mxCell id="oV6eSt7_pDs24Wo_u-xZ-27" style="edgeStyle=orthogonalEdgeStyle;rounded=0;orthogonalLoop=1;jettySize=auto;html=1;exitX=0.64;exitY=-0.002;exitDx=0;exitDy=0;exitPerimeter=0;" parent="oV6eSt7_pDs24Wo_u-xZ-1" source="oV6eSt7_pDs24Wo_u-xZ-28" edge="1">
          <mxGeometry relative="1" as="geometry">
            <mxPoint x="234" y="511" as="sourcePoint" />
            <mxPoint x="495" y="378" as="targetPoint" />
            <Array as="points">
              <mxPoint x="235" y="460" />
              <mxPoint x="495" y="460" />
            </Array>
          </mxGeometry>
        </mxCell>
        <mxCell id="oV6eSt7_pDs24Wo_u-xZ-28" value="Cognito&lt;br&gt;Authorizer" style="rounded=0;whiteSpace=wrap;html=1;" parent="oV6eSt7_pDs24Wo_u-xZ-1" vertex="1">
          <mxGeometry x="190" y="520" width="70" height="100" as="geometry" />
        </mxCell>
        <mxCell id="oV6eSt7_pDs24Wo_u-xZ-31" style="edgeStyle=orthogonalEdgeStyle;rounded=0;orthogonalLoop=1;jettySize=auto;html=1;startArrow=open;startFill=0;endArrow=open;endFill=0;strokeWidth=2;strokeColor=#808080;entryX=0;entryY=0.296;entryDx=0;entryDy=0;entryPerimeter=0;" parent="oV6eSt7_pDs24Wo_u-xZ-1" edge="1">
          <mxGeometry relative="1" as="geometry">
            <mxPoint x="494" y="613.23" as="sourcePoint" />
            <mxPoint x="640" y="613.21192" as="targetPoint" />
            <Array as="points" />
          </mxGeometry>
        </mxCell>
        <mxCell id="oV6eSt7_pDs24Wo_u-xZ-32" style="edgeStyle=orthogonalEdgeStyle;rounded=0;orthogonalLoop=1;jettySize=auto;html=1;startArrow=open;startFill=0;endArrow=open;endFill=0;strokeWidth=2;strokeColor=#808080;" parent="oV6eSt7_pDs24Wo_u-xZ-1" edge="1">
          <mxGeometry relative="1" as="geometry">
            <mxPoint x="494" y="530" as="sourcePoint" />
            <mxPoint x="640" y="530" as="targetPoint" />
            <Array as="points">
              <mxPoint x="515" y="529.23" />
              <mxPoint x="515" y="529.23" />
            </Array>
          </mxGeometry>
        </mxCell>
        <mxCell id="oV6eSt7_pDs24Wo_u-xZ-33" value="Publish to appropriate Slack&lt;br&gt;Channel Region on succesful &lt;br&gt;update of the feed in the &lt;br&gt;platform database" style="shape=image;html=1;verticalAlign=top;verticalLabelPosition=bottom;labelBackgroundColor=#ffffff;imageAspect=0;aspect=fixed;image=https://cdn4.iconfinder.com/data/icons/logos-and-brands/512/306_Slack_logo-128.png" parent="oV6eSt7_pDs24Wo_u-xZ-1" vertex="1">
          <mxGeometry x="660" y="290" width="39" height="39" as="geometry" />
        </mxCell>
        <mxCell id="oV6eSt7_pDs24Wo_u-xZ-34" style="edgeStyle=orthogonalEdgeStyle;rounded=0;orthogonalLoop=1;jettySize=auto;html=1;" parent="oV6eSt7_pDs24Wo_u-xZ-1" source="oV6eSt7_pDs24Wo_u-xZ-35" target="oV6eSt7_pDs24Wo_u-xZ-10" edge="1">
          <mxGeometry relative="1" as="geometry" />
        </mxCell>
        <mxCell id="oV6eSt7_pDs24Wo_u-xZ-35" value="" style="shape=actor;whiteSpace=wrap;html=1;" parent="oV6eSt7_pDs24Wo_u-xZ-1" vertex="1">
          <mxGeometry x="390" y="128.5" width="40" height="60" as="geometry" />
        </mxCell>
        <mxCell id="oV6eSt7_pDs24Wo_u-xZ-36" value="4. Validate access_token and scope" style="text;html=1;strokeColor=none;fillColor=none;align=center;verticalAlign=middle;whiteSpace=wrap;rounded=0;" parent="oV6eSt7_pDs24Wo_u-xZ-1" vertex="1">
          <mxGeometry x="278" y="440" width="202" height="20" as="geometry" />
        </mxCell>
        <mxCell id="oV6eSt7_pDs24Wo_u-xZ-37" value="/api/campaign" style="text;html=1;align=center;verticalAlign=middle;resizable=0;points=[];autosize=1;strokeColor=none;" parent="oV6eSt7_pDs24Wo_u-xZ-1" vertex="1">
          <mxGeometry x="540" y="498.87" width="90" height="20" as="geometry" />
        </mxCell>
        <mxCell id="oV6eSt7_pDs24Wo_u-xZ-38" value="GET" style="outlineConnect=0;fontColor=#232F3E;gradientColor=none;fillColor=#277116;strokeColor=none;dashed=0;verticalLabelPosition=bottom;verticalAlign=top;align=center;html=1;fontSize=12;fontStyle=0;aspect=fixed;pointerEvents=1;shape=mxgraph.aws4.http_protocol;" parent="oV6eSt7_pDs24Wo_u-xZ-1" vertex="1">
          <mxGeometry x="509" y="478.87" width="21.13" height="21.13" as="geometry" />
        </mxCell>
        <mxCell id="oV6eSt7_pDs24Wo_u-xZ-39" value="POST" style="outlineConnect=0;fontColor=#232F3E;gradientColor=none;fillColor=#277116;strokeColor=none;dashed=0;verticalLabelPosition=bottom;verticalAlign=top;align=center;html=1;fontSize=12;fontStyle=0;aspect=fixed;pointerEvents=1;shape=mxgraph.aws4.http_protocol;" parent="oV6eSt7_pDs24Wo_u-xZ-1" vertex="1">
          <mxGeometry x="510" y="533" width="18" height="18" as="geometry" />
        </mxCell>
        <mxCell id="oV6eSt7_pDs24Wo_u-xZ-40" value="/api/campaign" style="text;html=1;align=center;verticalAlign=middle;resizable=0;points=[];autosize=1;strokeColor=none;" parent="oV6eSt7_pDs24Wo_u-xZ-1" vertex="1">
          <mxGeometry x="540" y="549.23" width="90" height="20" as="geometry" />
        </mxCell>
        <mxCell id="oV6eSt7_pDs24Wo_u-xZ-41" value="PUT" style="outlineConnect=0;fontColor=#232F3E;gradientColor=none;fillColor=#277116;strokeColor=none;dashed=0;verticalLabelPosition=bottom;verticalAlign=top;align=center;html=1;fontSize=12;fontStyle=0;aspect=fixed;pointerEvents=1;shape=mxgraph.aws4.http_protocol;" parent="oV6eSt7_pDs24Wo_u-xZ-1" vertex="1">
          <mxGeometry x="516" y="614.73" width="15.27" height="15.27" as="geometry" />
        </mxCell>
        <mxCell id="oV6eSt7_pDs24Wo_u-xZ-42" value="/api/campaign" style="text;html=1;align=center;verticalAlign=middle;resizable=0;points=[];autosize=1;strokeColor=none;" parent="oV6eSt7_pDs24Wo_u-xZ-1" vertex="1">
          <mxGeometry x="540" y="619.73" width="90" height="20" as="geometry" />
        </mxCell>
        <mxCell id="oV6eSt7_pDs24Wo_u-xZ-43" style="edgeStyle=orthogonalEdgeStyle;rounded=0;orthogonalLoop=1;jettySize=auto;html=1;" parent="oV6eSt7_pDs24Wo_u-xZ-1" source="oV6eSt7_pDs24Wo_u-xZ-44" target="oV6eSt7_pDs24Wo_u-xZ-22" edge="1">
          <mxGeometry relative="1" as="geometry">
            <mxPoint x="20" y="370" as="targetPoint" />
            <Array as="points">
              <mxPoint x="452" y="670" />
              <mxPoint x="20" y="670" />
              <mxPoint x="20" y="393" />
            </Array>
          </mxGeometry>
        </mxCell>
        <mxCell id="oV6eSt7_pDs24Wo_u-xZ-44" value="Policy evaluated" style="shape=image;html=1;verticalAlign=top;verticalLabelPosition=bottom;labelBackgroundColor=#ffffff;imageAspect=0;aspect=fixed;image=https://cdn0.iconfinder.com/data/icons/infectious-pandemics/480/13-sheild-128.png;fillColor=#00CCCC;" parent="oV6eSt7_pDs24Wo_u-xZ-1" vertex="1">
          <mxGeometry x="410" y="527.75" width="84.5" height="84.5" as="geometry" />
        </mxCell>
        <mxCell id="oV6eSt7_pDs24Wo_u-xZ-45" value="403/unauthroized if the Policy is Deny" style="text;html=1;strokeColor=none;fillColor=none;align=center;verticalAlign=middle;whiteSpace=wrap;rounded=0;" parent="oV6eSt7_pDs24Wo_u-xZ-1" vertex="1">
          <mxGeometry x="110" y="675" width="174.25" height="20" as="geometry" />
        </mxCell>
        <mxCell id="oV6eSt7_pDs24Wo_u-xZ-46" value="Ad Creative&lt;br&gt;Assets S3 Bucket&lt;br&gt;separated by client" style="outlineConnect=0;fontColor=#232F3E;gradientColor=#60A337;gradientDirection=north;fillColor=#277116;strokeColor=#ffffff;dashed=0;verticalLabelPosition=bottom;verticalAlign=top;align=center;html=1;fontSize=12;fontStyle=0;aspect=fixed;shape=mxgraph.aws4.resourceIcon;resIcon=mxgraph.aws4.s3;labelBackgroundColor=#ffffff;direction=south;" parent="oV6eSt7_pDs24Wo_u-xZ-1" vertex="1">
          <mxGeometry x="740.0000000000002" y="411" width="78" height="78" as="geometry" />
        </mxCell>
        <mxCell id="oV6eSt7_pDs24Wo_u-xZ-47" value="&lt;span style=&quot;color: rgb(0 , 0 , 0)&quot;&gt;Lambda Execution &lt;br&gt;role&amp;nbsp;will have &lt;br&gt;access&amp;nbsp;to appropriate&lt;br&gt;dynamodb tables&lt;/span&gt;" style="outlineConnect=0;fontColor=#232F3E;gradientColor=none;fillColor=#C7131F;strokeColor=none;dashed=0;verticalLabelPosition=bottom;verticalAlign=top;align=center;html=1;fontSize=12;fontStyle=0;aspect=fixed;pointerEvents=1;shape=mxgraph.aws4.addon;" parent="oV6eSt7_pDs24Wo_u-xZ-1" vertex="1">
          <mxGeometry x="750" y="590" width="39" height="20" as="geometry" />
        </mxCell>
        <mxCell id="oV6eSt7_pDs24Wo_u-xZ-48" style="edgeStyle=orthogonalEdgeStyle;rounded=0;orthogonalLoop=1;jettySize=auto;html=1;" parent="oV6eSt7_pDs24Wo_u-xZ-1" source="oV6eSt7_pDs24Wo_u-xZ-49" target="oV6eSt7_pDs24Wo_u-xZ-12" edge="1">
          <mxGeometry relative="1" as="geometry">
            <Array as="points">
              <mxPoint x="668" y="745" />
            </Array>
          </mxGeometry>
        </mxCell>
        <mxCell id="oV6eSt7_pDs24Wo_u-xZ-49" value="" style="points=[[0,0,0],[0.25,0,0],[0.5,0,0],[0.75,0,0],[1,0,0],[0,1,0],[0.25,1,0],[0.5,1,0],[0.75,1,0],[1,1,0],[0,0.25,0],[0,0.5,0],[0,0.75,0],[1,0.25,0],[1,0.5,0],[1,0.75,0]];outlineConnect=0;fontColor=#232F3E;gradientColor=#F78E04;gradientDirection=north;fillColor=#D05C17;strokeColor=#ffffff;dashed=0;verticalLabelPosition=bottom;verticalAlign=top;align=center;html=1;fontSize=12;fontStyle=0;aspect=fixed;shape=mxgraph.aws4.resourceIcon;resIcon=mxgraph.aws4.fargate;" parent="oV6eSt7_pDs24Wo_u-xZ-1" vertex="1">
          <mxGeometry x="640" y="584.73" width="56.93" height="56.93" as="geometry" />
        </mxCell>
        <mxCell id="oV6eSt7_pDs24Wo_u-xZ-50" value="3. Invoke api with access_token" style="text;html=1;strokeColor=none;fillColor=none;align=center;verticalAlign=middle;whiteSpace=wrap;rounded=0;" parent="oV6eSt7_pDs24Wo_u-xZ-1" vertex="1">
          <mxGeometry x="50" y="458.87" width="174.25" height="20" as="geometry" />
        </mxCell>
        <mxCell id="oV6eSt7_pDs24Wo_u-xZ-51" value="" style="edgeStyle=orthogonalEdgeStyle;rounded=0;orthogonalLoop=1;jettySize=auto;html=1;endArrow=none;" parent="oV6eSt7_pDs24Wo_u-xZ-1" source="oV6eSt7_pDs24Wo_u-xZ-22" target="oV6eSt7_pDs24Wo_u-xZ-50" edge="1">
          <mxGeometry relative="1" as="geometry">
            <mxPoint x="148.29999999999995" y="445.23" as="sourcePoint" />
            <mxPoint x="190" y="566" as="targetPoint" />
            <Array as="points" />
          </mxGeometry>
        </mxCell>
        <mxCell id="oV6eSt7_pDs24Wo_u-xZ-54" value="&lt;ul&gt;&lt;li&gt;&lt;span style=&quot;text-align: center&quot;&gt;Admin Portal refers to the company users. Users can be created as part of the Cognito pool or can be federated with external IDP&lt;/span&gt;&lt;br&gt;&lt;/li&gt;&lt;li&gt;Cognito user pool - App Client can be created by selecting the appropriate Identity Provider&lt;/li&gt;&lt;li&gt;&lt;br&gt;&lt;/li&gt;&lt;li&gt;&lt;br&gt;&lt;/li&gt;&lt;li&gt;&lt;br&gt;&lt;/li&gt;&lt;/ul&gt;" style="text;strokeColor=none;fillColor=none;html=1;whiteSpace=wrap;verticalAlign=middle;overflow=hidden;" parent="oV6eSt7_pDs24Wo_u-xZ-1" vertex="1">
          <mxGeometry x="890" y="156" width="270" height="204" as="geometry" />
        </mxCell>
        <mxCell id="oV6eSt7_pDs24Wo_u-xZ-57" style="edgeStyle=orthogonalEdgeStyle;rounded=0;orthogonalLoop=1;jettySize=auto;html=1;" parent="oV6eSt7_pDs24Wo_u-xZ-1" source="oV6eSt7_pDs24Wo_u-xZ-55" target="oV6eSt7_pDs24Wo_u-xZ-46" edge="1">
          <mxGeometry relative="1" as="geometry">
            <Array as="points">
              <mxPoint x="668" y="450" />
            </Array>
          </mxGeometry>
        </mxCell>
        <mxCell id="oV6eSt7_pDs24Wo_u-xZ-55" value="" style="points=[[0,0,0],[0.25,0,0],[0.5,0,0],[0.75,0,0],[1,0,0],[0,1,0],[0.25,1,0],[0.5,1,0],[0.75,1,0],[1,1,0],[0,0.25,0],[0,0.5,0],[0,0.75,0],[1,0.25,0],[1,0.5,0],[1,0.75,0]];outlineConnect=0;fontColor=#232F3E;gradientColor=#F78E04;gradientDirection=north;fillColor=#D05C17;strokeColor=#ffffff;dashed=0;verticalLabelPosition=bottom;verticalAlign=top;align=center;html=1;fontSize=12;fontStyle=0;aspect=fixed;shape=mxgraph.aws4.resourceIcon;resIcon=mxgraph.aws4.fargate;" parent="oV6eSt7_pDs24Wo_u-xZ-1" vertex="1">
          <mxGeometry x="640" y="518.87" width="55" height="55" as="geometry" />
        </mxCell>
        <mxCell id="073r3c8-VZeJKiGn1QmP-0" value="Platform database" style="points=[[0,0,0],[0.25,0,0],[0.5,0,0],[0.75,0,0],[1,0,0],[0,1,0],[0.25,1,0],[0.5,1,0],[0.75,1,0],[1,1,0],[0,0.25,0],[0,0.5,0],[0,0.75,0],[1,0.25,0],[1,0.5,0],[1,0.75,0]];outlineConnect=0;fontColor=#232F3E;gradientColor=#4D72F3;gradientDirection=north;fillColor=#3334B9;strokeColor=#ffffff;dashed=0;verticalLabelPosition=bottom;verticalAlign=top;align=center;html=1;fontSize=12;fontStyle=0;aspect=fixed;shape=mxgraph.aws4.resourceIcon;resIcon=mxgraph.aws4.managed_apache_cassandra_service;" parent="oV6eSt7_pDs24Wo_u-xZ-1" vertex="1">
          <mxGeometry x="840" y="534.25" width="78" height="78" as="geometry" />
        </mxCell>
      </root>
    </mxGraphModel>
  </diagram>
  <diagram id="Ht1M8jgEwFfnCIfOTk4-" name="CampaignPortal_Architecture">
    <mxGraphModel dx="2447" dy="548" grid="0" gridSize="10" guides="1" tooltips="1" connect="1" arrows="1" fold="1" page="1" pageScale="1" pageWidth="1169" pageHeight="827" math="0" shadow="0">
      <root>
        <mxCell id="0" />
        <mxCell id="1" parent="0" />
        <mxCell id="UEzPUAAOIrF-is8g5C7q-133" style="edgeStyle=orthogonalEdgeStyle;rounded=0;orthogonalLoop=1;jettySize=auto;html=1;startArrow=open;startFill=0;endArrow=open;endFill=0;strokeWidth=2;strokeColor=#808080;" parent="1" edge="1">
          <mxGeometry relative="1" as="geometry">
            <Array as="points">
              <mxPoint x="790" y="579.23" />
              <mxPoint x="790" y="579.23" />
            </Array>
            <mxPoint x="840" y="579" as="targetPoint" />
            <mxPoint x="700" y="579" as="sourcePoint" />
          </mxGeometry>
        </mxCell>
        <mxCell id="UEzPUAAOIrF-is8g5C7q-142" style="edgeStyle=orthogonalEdgeStyle;rounded=0;orthogonalLoop=1;jettySize=auto;html=1;startArrow=open;startFill=0;endArrow=open;endFill=0;strokeWidth=2;strokeColor=#808080;" parent="1" edge="1">
          <mxGeometry relative="1" as="geometry">
            <mxPoint x="494" y="577" as="sourcePoint" />
            <mxPoint x="640" y="577" as="targetPoint" />
            <Array as="points">
              <mxPoint x="515" y="576.23" />
              <mxPoint x="515" y="576.23" />
            </Array>
          </mxGeometry>
        </mxCell>
        <mxCell id="V-STVvqY2KK-GqgoBENX-16" style="edgeStyle=orthogonalEdgeStyle;rounded=0;orthogonalLoop=1;jettySize=auto;html=1;" parent="1" source="UEzPUAAOIrF-is8g5C7q-111" target="fc9vdhBPrBxlH9aMz3zb-12" edge="1">
          <mxGeometry relative="1" as="geometry">
            <Array as="points">
              <mxPoint x="370" y="410" />
            </Array>
          </mxGeometry>
        </mxCell>
        <mxCell id="UEzPUAAOIrF-is8g5C7q-111" value="Amazon &lt;br&gt;Cognito" style="outlineConnect=0;fontColor=#232F3E;gradientColor=#F54749;gradientDirection=north;fillColor=#C7131F;strokeColor=#ffffff;dashed=0;verticalLabelPosition=bottom;verticalAlign=top;align=center;html=1;fontSize=12;fontStyle=0;aspect=fixed;shape=mxgraph.aws4.resourceIcon;resIcon=mxgraph.aws4.cognito;labelBackgroundColor=#ffffff;" parent="1" vertex="1">
          <mxGeometry x="355" y="310" width="50" height="50" as="geometry" />
        </mxCell>
        <mxCell id="blPUywzMEi4NAyKSb0v3-4" style="edgeStyle=orthogonalEdgeStyle;rounded=0;orthogonalLoop=1;jettySize=auto;html=1;" parent="1" source="UEzPUAAOIrF-is8g5C7q-114" target="blPUywzMEi4NAyKSb0v3-1" edge="1">
          <mxGeometry relative="1" as="geometry" />
        </mxCell>
        <mxCell id="-qADH8aqK6CVSLKx4CMV-4" style="edgeStyle=orthogonalEdgeStyle;rounded=0;orthogonalLoop=1;jettySize=auto;html=1;" parent="1" source="UEzPUAAOIrF-is8g5C7q-114" target="UEzPUAAOIrF-is8g5C7q-121" edge="1">
          <mxGeometry relative="1" as="geometry">
            <Array as="points">
              <mxPoint x="334" y="710" />
            </Array>
          </mxGeometry>
        </mxCell>
        <mxCell id="UEzPUAAOIrF-is8g5C7q-114" value="Amazon API&lt;br&gt;Gateway&lt;br&gt;" style="outlineConnect=0;fontColor=#232F3E;gradientColor=#945DF2;gradientDirection=north;fillColor=#5A30B5;strokeColor=#ffffff;dashed=0;verticalLabelPosition=bottom;verticalAlign=top;align=center;html=1;fontSize=12;fontStyle=0;aspect=fixed;shape=mxgraph.aws4.resourceIcon;resIcon=mxgraph.aws4.api_gateway;labelBackgroundColor=#ffffff;" parent="1" vertex="1">
          <mxGeometry x="292" y="527.75" width="84.5" height="84.5" as="geometry" />
        </mxCell>
        <mxCell id="-qADH8aqK6CVSLKx4CMV-8" style="edgeStyle=orthogonalEdgeStyle;rounded=0;orthogonalLoop=1;jettySize=auto;html=1;" parent="1" source="UEzPUAAOIrF-is8g5C7q-121" target="-qADH8aqK6CVSLKx4CMV-7" edge="1">
          <mxGeometry relative="1" as="geometry" />
        </mxCell>
        <mxCell id="UEzPUAAOIrF-is8g5C7q-121" value="All Logs stored &lt;br&gt;in Cloudwatch&amp;nbsp;" style="outlineConnect=0;fontColor=#232F3E;gradientColor=#F34482;gradientDirection=north;fillColor=#BC1356;strokeColor=#ffffff;dashed=0;verticalLabelPosition=bottom;verticalAlign=top;align=center;html=1;fontSize=12;fontStyle=0;aspect=fixed;shape=mxgraph.aws4.resourceIcon;resIcon=mxgraph.aws4.cloudwatch;labelBackgroundColor=#ffffff;direction=west;" parent="1" vertex="1">
          <mxGeometry x="480" y="682.5" width="45" height="45" as="geometry" />
        </mxCell>
        <mxCell id="fc9vdhBPrBxlH9aMz3zb-6" value="User uploads feed json file that contains the forecasted bush fire danger ratings" style="text;html=1;strokeColor=none;fillColor=none;align=center;verticalAlign=middle;whiteSpace=wrap;rounded=0;" parent="1" vertex="1">
          <mxGeometry x="315" y="60" width="130" height="57" as="geometry" />
        </mxCell>
        <mxCell id="fc9vdhBPrBxlH9aMz3zb-17" value="1. user enters&amp;nbsp;&lt;br&gt;username/pwd" style="text;html=1;strokeColor=none;fillColor=none;align=center;verticalAlign=middle;whiteSpace=wrap;rounded=0;" parent="1" vertex="1">
          <mxGeometry x="220" y="310" width="120" height="20" as="geometry" />
        </mxCell>
        <mxCell id="fc9vdhBPrBxlH9aMz3zb-18" value="2. Return access_token" style="text;html=1;strokeColor=none;fillColor=none;align=center;verticalAlign=middle;whiteSpace=wrap;rounded=0;" parent="1" vertex="1">
          <mxGeometry x="210" y="383.62" width="130" height="20" as="geometry" />
        </mxCell>
        <mxCell id="15eJNgmU0oLCtbuag_Uw-15" style="edgeStyle=orthogonalEdgeStyle;rounded=0;orthogonalLoop=1;jettySize=auto;html=1;" parent="1" source="fc9vdhBPrBxlH9aMz3zb-12" target="UEzPUAAOIrF-is8g5C7q-111" edge="1">
          <mxGeometry relative="1" as="geometry" />
        </mxCell>
        <mxCell id="15eJNgmU0oLCtbuag_Uw-20" style="edgeStyle=orthogonalEdgeStyle;rounded=0;orthogonalLoop=1;jettySize=auto;html=1;" parent="1" source="fc9vdhBPrBxlH9aMz3zb-12" target="V-STVvqY2KK-GqgoBENX-15" edge="1">
          <mxGeometry relative="1" as="geometry">
            <Array as="points">
              <mxPoint x="140" y="569" />
            </Array>
          </mxGeometry>
        </mxCell>
        <mxCell id="Pa1PaHfHfLKxNLhJAFkE-2" style="edgeStyle=orthogonalEdgeStyle;rounded=0;orthogonalLoop=1;jettySize=auto;html=1;entryX=1;entryY=0.5;entryDx=0;entryDy=0;entryPerimeter=0;" parent="1" source="fc9vdhBPrBxlH9aMz3zb-12" target="15eJNgmU0oLCtbuag_Uw-1" edge="1">
          <mxGeometry relative="1" as="geometry">
            <Array as="points">
              <mxPoint x="154" y="314" />
            </Array>
          </mxGeometry>
        </mxCell>
        <mxCell id="fc9vdhBPrBxlH9aMz3zb-12" value="" style="outlineConnect=0;fontColor=#232F3E;gradientColor=none;fillColor=#232F3E;strokeColor=none;dashed=0;verticalLabelPosition=bottom;verticalAlign=top;align=center;html=1;fontSize=12;fontStyle=0;aspect=fixed;pointerEvents=1;shape=mxgraph.aws4.client;" parent="1" vertex="1">
          <mxGeometry x="112.33" y="343.5" width="71.84" height="70" as="geometry" />
        </mxCell>
        <mxCell id="V-STVvqY2KK-GqgoBENX-1" value="Front end &lt;br&gt;Static Files(html/js/css)&lt;br&gt;(private + encrypted)" style="outlineConnect=0;fontColor=#232F3E;gradientColor=#60A337;gradientDirection=north;fillColor=#277116;strokeColor=#ffffff;dashed=0;verticalLabelPosition=bottom;verticalAlign=top;align=center;html=1;fontSize=12;fontStyle=0;aspect=fixed;shape=mxgraph.aws4.resourceIcon;resIcon=mxgraph.aws4.s3;labelBackgroundColor=#ffffff;direction=south;" parent="1" vertex="1">
          <mxGeometry x="-140" y="287.75" width="52.5" height="52.5" as="geometry" />
        </mxCell>
        <mxCell id="1LnekZPHZ9DSW1RYu5sl-2" style="edgeStyle=orthogonalEdgeStyle;rounded=0;orthogonalLoop=1;jettySize=auto;html=1;" parent="1" source="V-STVvqY2KK-GqgoBENX-15" target="UEzPUAAOIrF-is8g5C7q-114" edge="1">
          <mxGeometry relative="1" as="geometry" />
        </mxCell>
        <mxCell id="AxR7FX5OSzMuSZQ9kng3-1" style="edgeStyle=orthogonalEdgeStyle;rounded=0;orthogonalLoop=1;jettySize=auto;html=1;" parent="1" source="V-STVvqY2KK-GqgoBENX-15" target="UEzPUAAOIrF-is8g5C7q-111" edge="1">
          <mxGeometry relative="1" as="geometry">
            <Array as="points">
              <mxPoint x="222" y="470" />
              <mxPoint x="380" y="470" />
            </Array>
          </mxGeometry>
        </mxCell>
        <mxCell id="V-STVvqY2KK-GqgoBENX-15" value="Cognito&lt;br&gt;Authorizer" style="rounded=0;whiteSpace=wrap;html=1;" parent="1" vertex="1">
          <mxGeometry x="190" y="528" width="64.17" height="82.25" as="geometry" />
        </mxCell>
        <mxCell id="V-STVvqY2KK-GqgoBENX-24" style="edgeStyle=orthogonalEdgeStyle;rounded=0;orthogonalLoop=1;jettySize=auto;html=1;startArrow=open;startFill=0;endArrow=open;endFill=0;strokeWidth=2;strokeColor=#808080;entryX=0;entryY=0.296;entryDx=0;entryDy=0;entryPerimeter=0;" parent="1" edge="1">
          <mxGeometry relative="1" as="geometry">
            <mxPoint x="494" y="613.23" as="sourcePoint" />
            <mxPoint x="640" y="613.21192" as="targetPoint" />
            <Array as="points" />
          </mxGeometry>
        </mxCell>
        <mxCell id="V-STVvqY2KK-GqgoBENX-30" style="edgeStyle=orthogonalEdgeStyle;rounded=0;orthogonalLoop=1;jettySize=auto;html=1;startArrow=open;startFill=0;endArrow=open;endFill=0;strokeWidth=2;strokeColor=#808080;" parent="1" edge="1">
          <mxGeometry relative="1" as="geometry">
            <mxPoint x="494" y="530" as="sourcePoint" />
            <mxPoint x="640" y="530" as="targetPoint" />
            <Array as="points">
              <mxPoint x="515" y="529.23" />
              <mxPoint x="515" y="529.23" />
            </Array>
          </mxGeometry>
        </mxCell>
        <mxCell id="1LnekZPHZ9DSW1RYu5sl-4" value="4. Validate access_token and scope" style="text;html=1;strokeColor=none;fillColor=none;align=center;verticalAlign=middle;whiteSpace=wrap;rounded=0;" parent="1" vertex="1">
          <mxGeometry x="278" y="440" width="202" height="20" as="geometry" />
        </mxCell>
        <mxCell id="1LnekZPHZ9DSW1RYu5sl-5" value="/api/campaign" style="text;html=1;align=center;verticalAlign=middle;resizable=0;points=[];autosize=1;strokeColor=none;" parent="1" vertex="1">
          <mxGeometry x="540" y="498.87" width="90" height="20" as="geometry" />
        </mxCell>
        <mxCell id="1LnekZPHZ9DSW1RYu5sl-6" value="GET" style="outlineConnect=0;fontColor=#232F3E;gradientColor=none;fillColor=#277116;strokeColor=none;dashed=0;verticalLabelPosition=bottom;verticalAlign=top;align=center;html=1;fontSize=12;fontStyle=0;aspect=fixed;pointerEvents=1;shape=mxgraph.aws4.http_protocol;" parent="1" vertex="1">
          <mxGeometry x="509" y="478.87" width="21.13" height="21.13" as="geometry" />
        </mxCell>
        <mxCell id="1LnekZPHZ9DSW1RYu5sl-7" value="POST" style="outlineConnect=0;fontColor=#232F3E;gradientColor=none;fillColor=#277116;strokeColor=none;dashed=0;verticalLabelPosition=bottom;verticalAlign=top;align=center;html=1;fontSize=12;fontStyle=0;aspect=fixed;pointerEvents=1;shape=mxgraph.aws4.http_protocol;" parent="1" vertex="1">
          <mxGeometry x="510" y="533" width="18" height="18" as="geometry" />
        </mxCell>
        <mxCell id="1LnekZPHZ9DSW1RYu5sl-8" value="/api/campaign" style="text;html=1;align=center;verticalAlign=middle;resizable=0;points=[];autosize=1;strokeColor=none;" parent="1" vertex="1">
          <mxGeometry x="540" y="549.23" width="90" height="20" as="geometry" />
        </mxCell>
        <mxCell id="1LnekZPHZ9DSW1RYu5sl-9" value="PUT" style="outlineConnect=0;fontColor=#232F3E;gradientColor=none;fillColor=#277116;strokeColor=none;dashed=0;verticalLabelPosition=bottom;verticalAlign=top;align=center;html=1;fontSize=12;fontStyle=0;aspect=fixed;pointerEvents=1;shape=mxgraph.aws4.http_protocol;" parent="1" vertex="1">
          <mxGeometry x="514.86" y="576.98" width="15.27" height="15.27" as="geometry" />
        </mxCell>
        <mxCell id="1LnekZPHZ9DSW1RYu5sl-10" value="/api/campaign" style="text;html=1;align=center;verticalAlign=middle;resizable=0;points=[];autosize=1;strokeColor=none;" parent="1" vertex="1">
          <mxGeometry x="543.75" y="592.25" width="90" height="20" as="geometry" />
        </mxCell>
        <mxCell id="blPUywzMEi4NAyKSb0v3-5" style="edgeStyle=orthogonalEdgeStyle;rounded=0;orthogonalLoop=1;jettySize=auto;html=1;" parent="1" source="blPUywzMEi4NAyKSb0v3-1" target="fc9vdhBPrBxlH9aMz3zb-12" edge="1">
          <mxGeometry relative="1" as="geometry">
            <mxPoint x="20" y="370" as="targetPoint" />
            <Array as="points">
              <mxPoint x="452" y="670" />
              <mxPoint x="85" y="670" />
              <mxPoint x="85" y="393" />
            </Array>
          </mxGeometry>
        </mxCell>
        <mxCell id="blPUywzMEi4NAyKSb0v3-1" value="Policy evaluated" style="shape=image;html=1;verticalAlign=top;verticalLabelPosition=bottom;labelBackgroundColor=#ffffff;imageAspect=0;aspect=fixed;image=https://cdn0.iconfinder.com/data/icons/infectious-pandemics/480/13-sheild-128.png;fillColor=#00CCCC;" parent="1" vertex="1">
          <mxGeometry x="410" y="527.75" width="84.5" height="84.5" as="geometry" />
        </mxCell>
        <mxCell id="blPUywzMEi4NAyKSb0v3-6" value="403/unauthroized if the Policy is Deny" style="text;html=1;strokeColor=none;fillColor=none;align=center;verticalAlign=middle;whiteSpace=wrap;rounded=0;" parent="1" vertex="1">
          <mxGeometry x="110" y="675" width="174.25" height="20" as="geometry" />
        </mxCell>
        <mxCell id="blPUywzMEi4NAyKSb0v3-7" value="Ad Creative&amp;nbsp;Assets stored in &lt;br&gt;S3 Bucket&amp;nbsp;separated by client" style="outlineConnect=0;fontColor=#232F3E;gradientColor=#60A337;gradientDirection=north;fillColor=#277116;strokeColor=#ffffff;dashed=0;verticalLabelPosition=bottom;verticalAlign=top;align=center;html=1;fontSize=12;fontStyle=0;aspect=fixed;shape=mxgraph.aws4.resourceIcon;resIcon=mxgraph.aws4.s3;labelBackgroundColor=#ffffff;direction=south;" parent="1" vertex="1">
          <mxGeometry x="640" y="325" width="58" height="58" as="geometry" />
        </mxCell>
        <mxCell id="U2u4DdYxwqLJGmDLielr-1" style="edgeStyle=orthogonalEdgeStyle;rounded=0;orthogonalLoop=1;jettySize=auto;html=1;" parent="1" source="K-_JjG2z_SURaJ40FDKq-1" target="UEzPUAAOIrF-is8g5C7q-121" edge="1">
          <mxGeometry relative="1" as="geometry">
            <Array as="points">
              <mxPoint x="668" y="710" />
            </Array>
          </mxGeometry>
        </mxCell>
        <mxCell id="15eJNgmU0oLCtbuag_Uw-7" style="edgeStyle=orthogonalEdgeStyle;rounded=0;orthogonalLoop=1;jettySize=auto;html=1;entryX=0;entryY=0.5;entryDx=0;entryDy=0;entryPerimeter=0;" parent="1" source="K-_JjG2z_SURaJ40FDKq-1" target="15eJNgmU0oLCtbuag_Uw-6" edge="1">
          <mxGeometry relative="1" as="geometry" />
        </mxCell>
        <mxCell id="K-_JjG2z_SURaJ40FDKq-1" value="" style="points=[[0,0,0],[0.25,0,0],[0.5,0,0],[0.75,0,0],[1,0,0],[0,1,0],[0.25,1,0],[0.5,1,0],[0.75,1,0],[1,1,0],[0,0.25,0],[0,0.5,0],[0,0.75,0],[1,0.25,0],[1,0.5,0],[1,0.75,0]];outlineConnect=0;fontColor=#232F3E;gradientColor=#F78E04;gradientDirection=north;fillColor=#D05C17;strokeColor=#ffffff;dashed=0;verticalLabelPosition=bottom;verticalAlign=top;align=center;html=1;fontSize=12;fontStyle=0;aspect=fixed;shape=mxgraph.aws4.resourceIcon;resIcon=mxgraph.aws4.fargate;" parent="1" vertex="1">
          <mxGeometry x="640" y="602.23" width="55" height="55" as="geometry" />
        </mxCell>
        <mxCell id="uhBr9MxJfF1X4AjONcv3-1" value="" style="points=[[0,0,0],[0.25,0,0],[0.5,0,0],[0.75,0,0],[1,0,0],[0,1,0],[0.25,1,0],[0.5,1,0],[0.75,1,0],[1,1,0],[0,0.25,0],[0,0.5,0],[0,0.75,0],[1,0.25,0],[1,0.5,0],[1,0.75,0]];outlineConnect=0;fontColor=#232F3E;gradientColor=#F78E04;gradientDirection=north;fillColor=#D05C17;strokeColor=#ffffff;dashed=0;verticalLabelPosition=bottom;verticalAlign=top;align=center;html=1;fontSize=12;fontStyle=0;aspect=fixed;shape=mxgraph.aws4.resourceIcon;resIcon=mxgraph.aws4.fargate;" parent="1" vertex="1">
          <mxGeometry x="640" y="542.5" width="55" height="55" as="geometry" />
        </mxCell>
        <mxCell id="eyamJoSEm8TuGqcu_-Pb-19" style="edgeStyle=orthogonalEdgeStyle;rounded=0;orthogonalLoop=1;jettySize=auto;html=1;" parent="1" source="uhBr9MxJfF1X4AjONcv3-2" target="blPUywzMEi4NAyKSb0v3-7" edge="1">
          <mxGeometry relative="1" as="geometry">
            <Array as="points">
              <mxPoint x="670" y="394" />
            </Array>
          </mxGeometry>
        </mxCell>
        <mxCell id="DEK9_N4mxJpqw6hf33AM-2" style="edgeStyle=orthogonalEdgeStyle;rounded=0;orthogonalLoop=1;jettySize=auto;html=1;entryX=0;entryY=0.5;entryDx=0;entryDy=0;entryPerimeter=0;" parent="1" source="uhBr9MxJfF1X4AjONcv3-2" target="nO1DdiSFg3LDOp45LbnZ-1" edge="1">
          <mxGeometry relative="1" as="geometry" />
        </mxCell>
        <mxCell id="uhBr9MxJfF1X4AjONcv3-2" value="" style="points=[[0,0,0],[0.25,0,0],[0.5,0,0],[0.75,0,0],[1,0,0],[0,1,0],[0.25,1,0],[0.5,1,0],[0.75,1,0],[1,1,0],[0,0.25,0],[0,0.5,0],[0,0.75,0],[1,0.25,0],[1,0.5,0],[1,0.75,0]];outlineConnect=0;fontColor=#232F3E;gradientColor=#F78E04;gradientDirection=north;fillColor=#D05C17;strokeColor=#ffffff;dashed=0;verticalLabelPosition=bottom;verticalAlign=top;align=center;html=1;fontSize=12;fontStyle=0;aspect=fixed;shape=mxgraph.aws4.resourceIcon;resIcon=mxgraph.aws4.fargate;" parent="1" vertex="1">
          <mxGeometry x="640" y="480.73" width="55" height="55" as="geometry" />
        </mxCell>
        <mxCell id="-qADH8aqK6CVSLKx4CMV-3" style="edgeStyle=orthogonalEdgeStyle;rounded=0;orthogonalLoop=1;jettySize=auto;html=1;entryX=0.5;entryY=0;entryDx=0;entryDy=0;entryPerimeter=0;" parent="1" source="5CzqGTuBGW5ghN2ovsgt-1" edge="1">
          <mxGeometry relative="1" as="geometry">
            <mxPoint x="873.6399999999999" y="675" as="targetPoint" />
          </mxGeometry>
        </mxCell>
        <mxCell id="5CzqGTuBGW5ghN2ovsgt-1" value="Transactional&lt;br&gt;Platform database" style="points=[[0,0,0],[0.25,0,0],[0.5,0,0],[0.75,0,0],[1,0,0],[0,1,0],[0.25,1,0],[0.5,1,0],[0.75,1,0],[1,1,0],[0,0.25,0],[0,0.5,0],[0,0.75,0],[1,0.25,0],[1,0.5,0],[1,0.75,0]];outlineConnect=0;fontColor=#232F3E;gradientColor=#4D72F3;gradientDirection=north;fillColor=#3334B9;strokeColor=#ffffff;dashed=0;verticalLabelPosition=bottom;verticalAlign=top;align=center;html=1;fontSize=12;fontStyle=0;aspect=fixed;shape=mxgraph.aws4.resourceIcon;resIcon=mxgraph.aws4.managed_apache_cassandra_service;" parent="1" vertex="1">
          <mxGeometry x="841.64" y="535.73" width="63.27" height="63.27" as="geometry" />
        </mxCell>
        <mxCell id="-qADH8aqK6CVSLKx4CMV-5" value="Apigatewat logs sent to cloudwatch" style="text;html=1;strokeColor=none;fillColor=none;align=center;verticalAlign=middle;whiteSpace=wrap;rounded=0;" parent="1" vertex="1">
          <mxGeometry x="270.75" y="719" width="174.25" height="20" as="geometry" />
        </mxCell>
        <mxCell id="-qADH8aqK6CVSLKx4CMV-6" value="ECS &amp;amp; application &lt;br&gt;logs sent to cloudwatch" style="text;html=1;strokeColor=none;fillColor=none;align=center;verticalAlign=middle;whiteSpace=wrap;rounded=0;" parent="1" vertex="1">
          <mxGeometry x="530.13" y="682.5" width="130" height="20" as="geometry" />
        </mxCell>
        <mxCell id="-qADH8aqK6CVSLKx4CMV-7" value="" style="aspect=fixed;html=1;points=[];align=center;image;fontSize=12;image=img/lib/azure2/management_governance/Metrics.svg;fillColor=#99FFFF;" parent="1" vertex="1">
          <mxGeometry x="488.66" y="780" width="27.69" height="30" as="geometry" />
        </mxCell>
        <mxCell id="-qADH8aqK6CVSLKx4CMV-9" value="Cloudwatch metrics/insights" style="text;html=1;strokeColor=none;fillColor=none;align=center;verticalAlign=middle;whiteSpace=wrap;rounded=0;" parent="1" vertex="1">
          <mxGeometry x="305.74999999999994" y="790" width="174.25" height="20" as="geometry" />
        </mxCell>
        <mxCell id="-qADH8aqK6CVSLKx4CMV-11" value="ECS Fargate Tasks" style="text;html=1;strokeColor=none;fillColor=none;align=center;verticalAlign=middle;whiteSpace=wrap;rounded=0;" parent="1" vertex="1">
          <mxGeometry x="543.75" y="458.87" width="202" height="20" as="geometry" />
        </mxCell>
        <mxCell id="Pa1PaHfHfLKxNLhJAFkE-3" style="edgeStyle=orthogonalEdgeStyle;rounded=0;orthogonalLoop=1;jettySize=auto;html=1;entryX=1;entryY=0.5;entryDx=0;entryDy=0;entryPerimeter=0;" parent="1" source="15eJNgmU0oLCtbuag_Uw-1" target="Pa1PaHfHfLKxNLhJAFkE-1" edge="1">
          <mxGeometry relative="1" as="geometry" />
        </mxCell>
        <mxCell id="15eJNgmU0oLCtbuag_Uw-1" value="" style="points=[[0,0,0],[0.25,0,0],[0.5,0,0],[0.75,0,0],[1,0,0],[0,1,0],[0.25,1,0],[0.5,1,0],[0.75,1,0],[1,1,0],[0,0.25,0],[0,0.5,0],[0,0.75,0],[1,0.25,0],[1,0.5,0],[1,0.75,0]];outlineConnect=0;fontColor=#232F3E;gradientColor=#945DF2;gradientDirection=north;fillColor=#5A30B5;strokeColor=#ffffff;dashed=0;verticalLabelPosition=bottom;verticalAlign=top;align=center;html=1;fontSize=12;fontStyle=0;aspect=fixed;shape=mxgraph.aws4.resourceIcon;resIcon=mxgraph.aws4.route_53;" parent="1" vertex="1">
          <mxGeometry x="42" y="289" width="50" height="50" as="geometry" />
        </mxCell>
        <mxCell id="15eJNgmU0oLCtbuag_Uw-6" value="platform api&lt;br&gt;docker image&amp;nbsp;&lt;br&gt;in ECR" style="points=[[0,0,0],[0.25,0,0],[0.5,0,0],[0.75,0,0],[1,0,0],[0,1,0],[0.25,1,0],[0.5,1,0],[0.75,1,0],[1,1,0],[0,0.25,0],[0,0.5,0],[0,0.75,0],[1,0.25,0],[1,0.5,0],[1,0.75,0]];outlineConnect=0;fontColor=#232F3E;gradientColor=#F78E04;gradientDirection=north;fillColor=#D05C17;strokeColor=#ffffff;dashed=0;verticalLabelPosition=bottom;verticalAlign=top;align=center;html=1;fontSize=12;fontStyle=0;aspect=fixed;shape=mxgraph.aws4.resourceIcon;resIcon=mxgraph.aws4.ecr;" parent="1" vertex="1">
          <mxGeometry x="744.25" y="609.25" width="40" height="40" as="geometry" />
        </mxCell>
        <mxCell id="15eJNgmU0oLCtbuag_Uw-11" value="3. Invoke api with &lt;br&gt;access_token" style="text;html=1;strokeColor=none;fillColor=none;align=center;verticalAlign=middle;whiteSpace=wrap;rounded=0;" parent="1" vertex="1">
          <mxGeometry x="96" y="440" width="110" height="10" as="geometry" />
        </mxCell>
        <mxCell id="eyamJoSEm8TuGqcu_-Pb-3" style="edgeStyle=orthogonalEdgeStyle;rounded=0;orthogonalLoop=1;jettySize=auto;html=1;" parent="1" source="eyamJoSEm8TuGqcu_-Pb-4" target="eyamJoSEm8TuGqcu_-Pb-6" edge="1">
          <mxGeometry relative="1" as="geometry" />
        </mxCell>
        <mxCell id="eyamJoSEm8TuGqcu_-Pb-4" value="" style="points=[[0,0,0],[0.25,0,0],[0.5,0,0],[0.75,0,0],[1,0,0],[0,1,0],[0.25,1,0],[0.5,1,0],[0.75,1,0],[1,1,0],[0,0.25,0],[0,0.5,0],[0,0.75,0],[1,0.25,0],[1,0.5,0],[1,0.75,0]];outlineConnect=0;fontColor=#232F3E;gradientColor=#945DF2;gradientDirection=north;fillColor=#5A30B5;strokeColor=#ffffff;dashed=0;verticalLabelPosition=bottom;verticalAlign=top;align=center;html=1;fontSize=12;fontStyle=0;aspect=fixed;shape=mxgraph.aws4.resourceIcon;resIcon=mxgraph.aws4.glue;" parent="1" vertex="1">
          <mxGeometry x="843.28" y="653.24" width="63.52" height="63.52" as="geometry" />
        </mxCell>
        <mxCell id="eyamJoSEm8TuGqcu_-Pb-14" style="edgeStyle=orthogonalEdgeStyle;rounded=0;orthogonalLoop=1;jettySize=auto;html=1;" parent="1" source="eyamJoSEm8TuGqcu_-Pb-6" edge="1">
          <mxGeometry relative="1" as="geometry">
            <mxPoint x="750" y="783.01" as="targetPoint" />
          </mxGeometry>
        </mxCell>
        <mxCell id="eyamJoSEm8TuGqcu_-Pb-6" value="" style="points=[[0,0,0],[0.25,0,0],[0.5,0,0],[0.75,0,0],[1,0,0],[0,1,0],[0.25,1,0],[0.5,1,0],[0.75,1,0],[1,1,0],[0,0.25,0],[0,0.5,0],[0,0.75,0],[1,0.25,0],[1,0.5,0],[1,0.75,0]];outlineConnect=0;fontColor=#232F3E;gradientColor=#60A337;gradientDirection=north;fillColor=#277116;strokeColor=#ffffff;dashed=0;verticalLabelPosition=bottom;verticalAlign=top;align=center;html=1;fontSize=12;fontStyle=0;aspect=fixed;shape=mxgraph.aws4.resourceIcon;resIcon=mxgraph.aws4.s3;" parent="1" vertex="1">
          <mxGeometry x="848.05" y="756.02" width="53.98" height="53.98" as="geometry" />
        </mxCell>
        <mxCell id="eyamJoSEm8TuGqcu_-Pb-22" style="edgeStyle=orthogonalEdgeStyle;rounded=0;orthogonalLoop=1;jettySize=auto;html=1;entryX=1;entryY=0.5;entryDx=0;entryDy=0;entryPerimeter=0;" parent="1" source="eyamJoSEm8TuGqcu_-Pb-7" target="eyamJoSEm8TuGqcu_-Pb-21" edge="1">
          <mxGeometry relative="1" as="geometry" />
        </mxCell>
        <mxCell id="eyamJoSEm8TuGqcu_-Pb-24" style="edgeStyle=orthogonalEdgeStyle;rounded=0;orthogonalLoop=1;jettySize=auto;html=1;entryX=0.5;entryY=1;entryDx=0;entryDy=0;entryPerimeter=0;" parent="1" source="eyamJoSEm8TuGqcu_-Pb-7" target="K-_JjG2z_SURaJ40FDKq-1" edge="1">
          <mxGeometry relative="1" as="geometry">
            <Array as="points">
              <mxPoint x="725" y="720" />
              <mxPoint x="668" y="720" />
            </Array>
          </mxGeometry>
        </mxCell>
        <mxCell id="eyamJoSEm8TuGqcu_-Pb-7" value="" style="points=[[0,0,0],[0.25,0,0],[0.5,0,0],[0.75,0,0],[1,0,0],[0,1,0],[0.25,1,0],[0.5,1,0],[0.75,1,0],[1,1,0],[0,0.25,0],[0,0.5,0],[0,0.75,0],[1,0.25,0],[1,0.5,0],[1,0.75,0]];outlineConnect=0;fontColor=#232F3E;gradientColor=#945DF2;gradientDirection=north;fillColor=#5A30B5;strokeColor=#ffffff;dashed=0;verticalLabelPosition=bottom;verticalAlign=top;align=center;html=1;fontSize=12;fontStyle=0;aspect=fixed;shape=mxgraph.aws4.resourceIcon;resIcon=mxgraph.aws4.redshift;" parent="1" vertex="1">
          <mxGeometry x="697" y="758.15" width="55.75" height="55.75" as="geometry" />
        </mxCell>
        <mxCell id="eyamJoSEm8TuGqcu_-Pb-8" value="Extract" style="text;html=1;align=center;verticalAlign=middle;resizable=0;points=[];autosize=1;strokeColor=none;" parent="1" vertex="1">
          <mxGeometry x="880" y="629.25" width="50" height="20" as="geometry" />
        </mxCell>
        <mxCell id="eyamJoSEm8TuGqcu_-Pb-9" value="Load" style="text;html=1;align=center;verticalAlign=middle;resizable=0;points=[];autosize=1;strokeColor=none;" parent="1" vertex="1">
          <mxGeometry x="880" y="727.5" width="40" height="20" as="geometry" />
        </mxCell>
        <mxCell id="eyamJoSEm8TuGqcu_-Pb-10" value="Transform/Copy" style="text;html=1;align=center;verticalAlign=middle;resizable=0;points=[];autosize=1;strokeColor=none;" parent="1" vertex="1">
          <mxGeometry x="752.75" y="756.02" width="100" height="20" as="geometry" />
        </mxCell>
        <mxCell id="eyamJoSEm8TuGqcu_-Pb-15" value="s3 bucket to &lt;br&gt;store data" style="text;html=1;align=center;verticalAlign=middle;resizable=0;points=[];autosize=1;strokeColor=none;" parent="1" vertex="1">
          <mxGeometry x="904.91" y="758.15" width="80" height="30" as="geometry" />
        </mxCell>
        <mxCell id="eyamJoSEm8TuGqcu_-Pb-16" value="Extract the OLTP&lt;br&gt;&amp;nbsp;data using Glue" style="text;html=1;align=center;verticalAlign=middle;resizable=0;points=[];autosize=1;strokeColor=none;" parent="1" vertex="1">
          <mxGeometry x="906.8" y="665" width="110" height="30" as="geometry" />
        </mxCell>
        <mxCell id="eyamJoSEm8TuGqcu_-Pb-17" value="" style="aspect=fixed;perimeter=ellipsePerimeter;html=1;align=center;shadow=0;dashed=0;fontColor=#4277BB;labelBackgroundColor=#ffffff;fontSize=12;spacingTop=3;image;image=img/lib/ibm/applications/microservice.svg;fillColor=#FFFFFF;" parent="1" vertex="1">
          <mxGeometry x="704.65" y="480.73" width="41.1" height="30" as="geometry" />
        </mxCell>
        <mxCell id="eyamJoSEm8TuGqcu_-Pb-18" value="" style="aspect=fixed;perimeter=ellipsePerimeter;html=1;align=center;shadow=0;dashed=0;fontColor=#4277BB;labelBackgroundColor=#ffffff;fontSize=12;spacingTop=3;image;image=img/lib/ibm/applications/microservice.svg;fillColor=#FFFFFF;" parent="1" vertex="1">
          <mxGeometry x="704.65" y="535.73" width="41.1" height="30" as="geometry" />
        </mxCell>
        <mxCell id="eyamJoSEm8TuGqcu_-Pb-21" value="" style="outlineConnect=0;dashed=0;verticalLabelPosition=bottom;verticalAlign=top;align=center;html=1;shape=mxgraph.aws3.quicksight;fillColor=#00B7F4;gradientColor=none;" parent="1" vertex="1">
          <mxGeometry x="585" y="765.53" width="40" height="41" as="geometry" />
        </mxCell>
        <mxCell id="eyamJoSEm8TuGqcu_-Pb-23" value="Quicksight" style="text;html=1;align=center;verticalAlign=middle;resizable=0;points=[];autosize=1;strokeColor=none;" parent="1" vertex="1">
          <mxGeometry x="627" y="760" width="70" height="20" as="geometry" />
        </mxCell>
        <mxCell id="nO1DdiSFg3LDOp45LbnZ-1" value="" style="points=[[0,0,0],[0.25,0,0],[0.5,0,0],[0.75,0,0],[1,0,0],[0,1,0],[0.25,1,0],[0.5,1,0],[0.75,1,0],[1,1,0],[0,0.25,0],[0,0.5,0],[0,0.75,0],[1,0.25,0],[1,0.5,0],[1,0.75,0]];outlineConnect=0;fontColor=#232F3E;gradientColor=#F54749;gradientDirection=north;fillColor=#C7131F;strokeColor=#ffffff;dashed=0;verticalLabelPosition=bottom;verticalAlign=top;align=center;html=1;fontSize=12;fontStyle=0;aspect=fixed;shape=mxgraph.aws4.resourceIcon;resIcon=mxgraph.aws4.secrets_manager;" parent="1" vertex="1">
          <mxGeometry x="820" y="391" width="49" height="49" as="geometry" />
        </mxCell>
        <mxCell id="nO1DdiSFg3LDOp45LbnZ-4" value="Store all secrets&lt;br&gt;in the secrets manager" style="text;html=1;align=center;verticalAlign=middle;resizable=0;points=[];autosize=1;strokeColor=none;" parent="1" vertex="1">
          <mxGeometry x="780" y="353" width="140" height="30" as="geometry" />
        </mxCell>
        <mxCell id="Pa1PaHfHfLKxNLhJAFkE-4" style="edgeStyle=orthogonalEdgeStyle;rounded=0;orthogonalLoop=1;jettySize=auto;html=1;" parent="1" source="Pa1PaHfHfLKxNLhJAFkE-1" target="V-STVvqY2KK-GqgoBENX-1" edge="1">
          <mxGeometry relative="1" as="geometry" />
        </mxCell>
        <mxCell id="Pa1PaHfHfLKxNLhJAFkE-1" value="" style="points=[[0,0,0],[0.25,0,0],[0.5,0,0],[0.75,0,0],[1,0,0],[0,1,0],[0.25,1,0],[0.5,1,0],[0.75,1,0],[1,1,0],[0,0.25,0],[0,0.5,0],[0,0.75,0],[1,0.25,0],[1,0.5,0],[1,0.75,0]];outlineConnect=0;fontColor=#232F3E;gradientColor=#945DF2;gradientDirection=north;fillColor=#5A30B5;strokeColor=#ffffff;dashed=0;verticalLabelPosition=bottom;verticalAlign=top;align=center;html=1;fontSize=12;fontStyle=0;aspect=fixed;shape=mxgraph.aws4.resourceIcon;resIcon=mxgraph.aws4.cloudfront;" parent="1" vertex="1">
          <mxGeometry x="-49" y="288" width="52.5" height="52.5" as="geometry" />
        </mxCell>
      </root>
    </mxGraphModel>
  </diagram>
  <diagram name="CampaignPortal_Architecture" id="-jkCgJzwMnZSixeEP70O">
    <mxGraphModel dx="2105" dy="548" grid="0" gridSize="10" guides="1" tooltips="1" connect="1" arrows="1" fold="1" page="1" pageScale="1" pageWidth="827" pageHeight="1169" math="0" shadow="0">
      <root>
        <mxCell id="zXhEfSg92vwtPYbZUS_4-0" />
        <mxCell id="zXhEfSg92vwtPYbZUS_4-1" style="" parent="zXhEfSg92vwtPYbZUS_4-0" />
        <mxCell id="zXhEfSg92vwtPYbZUS_4-2" style="edgeStyle=orthogonalEdgeStyle;rounded=0;orthogonalLoop=1;jettySize=auto;html=1;startArrow=open;startFill=0;endArrow=open;endFill=0;strokeWidth=2;strokeColor=#808080;" parent="zXhEfSg92vwtPYbZUS_4-1" edge="1">
          <mxGeometry relative="1" as="geometry">
            <Array as="points">
              <mxPoint x="790" y="579.23" />
              <mxPoint x="790" y="579.23" />
            </Array>
            <mxPoint x="890" y="579" as="targetPoint" />
            <mxPoint x="680" y="579" as="sourcePoint" />
          </mxGeometry>
        </mxCell>
        <mxCell id="zXhEfSg92vwtPYbZUS_4-3" style="edgeStyle=orthogonalEdgeStyle;rounded=0;orthogonalLoop=1;jettySize=auto;html=1;startArrow=open;startFill=0;endArrow=open;endFill=0;strokeWidth=2;strokeColor=#808080;" parent="zXhEfSg92vwtPYbZUS_4-1" edge="1">
          <mxGeometry relative="1" as="geometry">
            <mxPoint x="494" y="577" as="sourcePoint" />
            <mxPoint x="640" y="577" as="targetPoint" />
            <Array as="points">
              <mxPoint x="515" y="576.23" />
              <mxPoint x="515" y="576.23" />
            </Array>
          </mxGeometry>
        </mxCell>
        <mxCell id="zXhEfSg92vwtPYbZUS_4-4" style="edgeStyle=orthogonalEdgeStyle;rounded=0;orthogonalLoop=1;jettySize=auto;html=1;" parent="zXhEfSg92vwtPYbZUS_4-1" source="zXhEfSg92vwtPYbZUS_4-5" target="zXhEfSg92vwtPYbZUS_4-22" edge="1">
          <mxGeometry relative="1" as="geometry">
            <Array as="points">
              <mxPoint x="370" y="410" />
            </Array>
          </mxGeometry>
        </mxCell>
        <mxCell id="zXhEfSg92vwtPYbZUS_4-5" value="" style="outlineConnect=0;fontColor=#232F3E;gradientColor=#F54749;gradientDirection=north;fillColor=#C7131F;strokeColor=#ffffff;dashed=0;verticalLabelPosition=bottom;verticalAlign=top;align=center;html=1;fontSize=12;fontStyle=0;aspect=fixed;shape=mxgraph.aws4.resourceIcon;resIcon=mxgraph.aws4.cognito;labelBackgroundColor=#ffffff;" parent="zXhEfSg92vwtPYbZUS_4-1" vertex="1">
          <mxGeometry x="355" y="298.5" width="50" height="50" as="geometry" />
        </mxCell>
        <mxCell id="zXhEfSg92vwtPYbZUS_4-6" style="edgeStyle=orthogonalEdgeStyle;rounded=0;orthogonalLoop=1;jettySize=auto;html=1;" parent="zXhEfSg92vwtPYbZUS_4-1" source="zXhEfSg92vwtPYbZUS_4-8" target="zXhEfSg92vwtPYbZUS_4-42" edge="1">
          <mxGeometry relative="1" as="geometry" />
        </mxCell>
        <mxCell id="zXhEfSg92vwtPYbZUS_4-7" style="edgeStyle=orthogonalEdgeStyle;rounded=0;orthogonalLoop=1;jettySize=auto;html=1;" parent="zXhEfSg92vwtPYbZUS_4-1" source="zXhEfSg92vwtPYbZUS_4-8" target="zXhEfSg92vwtPYbZUS_4-12" edge="1">
          <mxGeometry relative="1" as="geometry">
            <Array as="points">
              <mxPoint x="334" y="710" />
            </Array>
          </mxGeometry>
        </mxCell>
        <mxCell id="zXhEfSg92vwtPYbZUS_4-8" value="Amazon API&lt;br&gt;Gateway&lt;br&gt;" style="outlineConnect=0;fontColor=#232F3E;gradientColor=#945DF2;gradientDirection=north;fillColor=#5A30B5;strokeColor=#ffffff;dashed=0;verticalLabelPosition=bottom;verticalAlign=top;align=center;html=1;fontSize=12;fontStyle=0;aspect=fixed;shape=mxgraph.aws4.resourceIcon;resIcon=mxgraph.aws4.api_gateway;labelBackgroundColor=#ffffff;" parent="zXhEfSg92vwtPYbZUS_4-1" vertex="1">
          <mxGeometry x="292" y="532.61" width="72.25" height="72.25" as="geometry" />
        </mxCell>
        <mxCell id="zXhEfSg92vwtPYbZUS_4-11" style="edgeStyle=orthogonalEdgeStyle;rounded=0;orthogonalLoop=1;jettySize=auto;html=1;" parent="zXhEfSg92vwtPYbZUS_4-1" source="zXhEfSg92vwtPYbZUS_4-12" target="zXhEfSg92vwtPYbZUS_4-55" edge="1">
          <mxGeometry relative="1" as="geometry" />
        </mxCell>
        <mxCell id="zXhEfSg92vwtPYbZUS_4-12" value="All Logs stored &lt;br&gt;in Cloudwatch&amp;nbsp;" style="outlineConnect=0;fontColor=#232F3E;gradientColor=#F34482;gradientDirection=north;fillColor=#BC1356;strokeColor=#ffffff;dashed=0;verticalLabelPosition=bottom;verticalAlign=top;align=center;html=1;fontSize=12;fontStyle=0;aspect=fixed;shape=mxgraph.aws4.resourceIcon;resIcon=mxgraph.aws4.cloudwatch;labelBackgroundColor=#ffffff;direction=west;" parent="zXhEfSg92vwtPYbZUS_4-1" vertex="1">
          <mxGeometry x="480" y="682.5" width="45" height="45" as="geometry" />
        </mxCell>
        <mxCell id="zXhEfSg92vwtPYbZUS_4-17" value="1. user enters&amp;nbsp;&lt;br&gt;username/pwd" style="text;html=1;strokeColor=none;fillColor=none;align=center;verticalAlign=middle;whiteSpace=wrap;rounded=0;" parent="zXhEfSg92vwtPYbZUS_4-1" vertex="1">
          <mxGeometry x="220" y="310" width="120" height="20" as="geometry" />
        </mxCell>
        <mxCell id="zXhEfSg92vwtPYbZUS_4-18" value="2. Return access_token" style="text;html=1;strokeColor=none;fillColor=none;align=center;verticalAlign=middle;whiteSpace=wrap;rounded=0;" parent="zXhEfSg92vwtPYbZUS_4-1" vertex="1">
          <mxGeometry x="210" y="388.62" width="130" height="20" as="geometry" />
        </mxCell>
        <mxCell id="zXhEfSg92vwtPYbZUS_4-19" style="edgeStyle=orthogonalEdgeStyle;rounded=0;orthogonalLoop=1;jettySize=auto;html=1;" parent="zXhEfSg92vwtPYbZUS_4-1" source="zXhEfSg92vwtPYbZUS_4-22" edge="1">
          <mxGeometry relative="1" as="geometry">
            <mxPoint x="149" y="290" as="targetPoint" />
          </mxGeometry>
        </mxCell>
        <mxCell id="zXhEfSg92vwtPYbZUS_4-20" style="edgeStyle=orthogonalEdgeStyle;rounded=0;orthogonalLoop=1;jettySize=auto;html=1;" parent="zXhEfSg92vwtPYbZUS_4-1" source="zXhEfSg92vwtPYbZUS_4-22" target="zXhEfSg92vwtPYbZUS_4-5" edge="1">
          <mxGeometry relative="1" as="geometry" />
        </mxCell>
        <mxCell id="zXhEfSg92vwtPYbZUS_4-21" style="edgeStyle=orthogonalEdgeStyle;rounded=0;orthogonalLoop=1;jettySize=auto;html=1;" parent="zXhEfSg92vwtPYbZUS_4-1" source="zXhEfSg92vwtPYbZUS_4-22" target="zXhEfSg92vwtPYbZUS_4-28" edge="1">
          <mxGeometry relative="1" as="geometry">
            <Array as="points">
              <mxPoint x="140" y="569" />
            </Array>
          </mxGeometry>
        </mxCell>
        <mxCell id="zXhEfSg92vwtPYbZUS_4-22" value="" style="outlineConnect=0;fontColor=#232F3E;gradientColor=none;fillColor=#232F3E;strokeColor=none;dashed=0;verticalLabelPosition=bottom;verticalAlign=top;align=center;html=1;fontSize=12;fontStyle=0;aspect=fixed;pointerEvents=1;shape=mxgraph.aws4.client;" parent="zXhEfSg92vwtPYbZUS_4-1" vertex="1">
          <mxGeometry x="112.33" y="343.5" width="71.84" height="70" as="geometry" />
        </mxCell>
        <mxCell id="zXhEfSg92vwtPYbZUS_4-23" value="Front end &lt;br&gt;Static Files(html/js/css)&lt;br&gt;(private + encrypted)" style="outlineConnect=0;fontColor=#232F3E;gradientColor=#60A337;gradientDirection=north;fillColor=#277116;strokeColor=#ffffff;dashed=0;verticalLabelPosition=bottom;verticalAlign=top;align=center;html=1;fontSize=12;fontStyle=0;aspect=fixed;shape=mxgraph.aws4.resourceIcon;resIcon=mxgraph.aws4.s3;labelBackgroundColor=#ffffff;direction=south;" parent="zXhEfSg92vwtPYbZUS_4-1" vertex="1">
          <mxGeometry x="-60" y="238.75" width="52.5" height="52.5" as="geometry" />
        </mxCell>
        <mxCell id="zXhEfSg92vwtPYbZUS_4-24" style="edgeStyle=orthogonalEdgeStyle;rounded=0;orthogonalLoop=1;jettySize=auto;html=1;" parent="zXhEfSg92vwtPYbZUS_4-1" target="zXhEfSg92vwtPYbZUS_4-23" edge="1">
          <mxGeometry relative="1" as="geometry">
            <mxPoint x="40" y="265.79999999999995" as="sourcePoint" />
          </mxGeometry>
        </mxCell>
        <mxCell id="zXhEfSg92vwtPYbZUS_4-26" style="edgeStyle=orthogonalEdgeStyle;rounded=0;orthogonalLoop=1;jettySize=auto;html=1;" parent="zXhEfSg92vwtPYbZUS_4-1" source="zXhEfSg92vwtPYbZUS_4-28" target="zXhEfSg92vwtPYbZUS_4-8" edge="1">
          <mxGeometry relative="1" as="geometry" />
        </mxCell>
        <mxCell id="zXhEfSg92vwtPYbZUS_4-27" style="edgeStyle=orthogonalEdgeStyle;rounded=0;orthogonalLoop=1;jettySize=auto;html=1;" parent="zXhEfSg92vwtPYbZUS_4-1" source="zXhEfSg92vwtPYbZUS_4-28" target="zXhEfSg92vwtPYbZUS_4-5" edge="1">
          <mxGeometry relative="1" as="geometry">
            <Array as="points">
              <mxPoint x="222" y="470" />
              <mxPoint x="380" y="470" />
            </Array>
          </mxGeometry>
        </mxCell>
        <mxCell id="zXhEfSg92vwtPYbZUS_4-28" value="Cognito&lt;br&gt;Authorizer" style="rounded=0;whiteSpace=wrap;html=1;" parent="zXhEfSg92vwtPYbZUS_4-1" vertex="1">
          <mxGeometry x="190" y="534" width="60" height="70" as="geometry" />
        </mxCell>
        <mxCell id="zXhEfSg92vwtPYbZUS_4-29" style="edgeStyle=orthogonalEdgeStyle;rounded=0;orthogonalLoop=1;jettySize=auto;html=1;startArrow=open;startFill=0;endArrow=open;endFill=0;strokeWidth=2;strokeColor=#808080;entryX=0;entryY=0.296;entryDx=0;entryDy=0;entryPerimeter=0;" parent="zXhEfSg92vwtPYbZUS_4-1" edge="1">
          <mxGeometry relative="1" as="geometry">
            <mxPoint x="494" y="613.23" as="sourcePoint" />
            <mxPoint x="640" y="613.21192" as="targetPoint" />
            <Array as="points" />
          </mxGeometry>
        </mxCell>
        <mxCell id="zXhEfSg92vwtPYbZUS_4-30" style="edgeStyle=orthogonalEdgeStyle;rounded=0;orthogonalLoop=1;jettySize=auto;html=1;startArrow=open;startFill=0;endArrow=open;endFill=0;strokeWidth=2;strokeColor=#808080;" parent="zXhEfSg92vwtPYbZUS_4-1" edge="1">
          <mxGeometry relative="1" as="geometry">
            <mxPoint x="494" y="530" as="sourcePoint" />
            <mxPoint x="640" y="530" as="targetPoint" />
            <Array as="points">
              <mxPoint x="515" y="529.23" />
              <mxPoint x="515" y="529.23" />
            </Array>
          </mxGeometry>
        </mxCell>
        <mxCell id="Zt4pRvPIaBFc3VcMzxDI-34" style="edgeStyle=orthogonalEdgeStyle;rounded=0;orthogonalLoop=1;jettySize=auto;html=1;entryX=0.5;entryY=0;entryDx=0;entryDy=0;entryPerimeter=0;" parent="zXhEfSg92vwtPYbZUS_4-1" source="zXhEfSg92vwtPYbZUS_4-31" target="Zt4pRvPIaBFc3VcMzxDI-32" edge="1">
          <mxGeometry relative="1" as="geometry" />
        </mxCell>
        <mxCell id="zXhEfSg92vwtPYbZUS_4-31" value="" style="shape=image;html=1;verticalAlign=top;verticalLabelPosition=bottom;labelBackgroundColor=#ffffff;imageAspect=0;aspect=fixed;image=https://cdn4.iconfinder.com/data/icons/logos-and-brands/512/306_Slack_logo-128.png" parent="zXhEfSg92vwtPYbZUS_4-1" vertex="1">
          <mxGeometry x="899.91" y="218" width="40.5" height="40.5" as="geometry" />
        </mxCell>
        <mxCell id="zXhEfSg92vwtPYbZUS_4-34" value="4. Validate access_token and scope" style="text;html=1;strokeColor=none;fillColor=none;align=center;verticalAlign=middle;whiteSpace=wrap;rounded=0;" parent="zXhEfSg92vwtPYbZUS_4-1" vertex="1">
          <mxGeometry x="278" y="440" width="202" height="20" as="geometry" />
        </mxCell>
        <mxCell id="zXhEfSg92vwtPYbZUS_4-35" value="/api/spend_report" style="text;html=1;align=center;verticalAlign=middle;resizable=0;points=[];autosize=1;strokeColor=none;" parent="zXhEfSg92vwtPYbZUS_4-1" vertex="1">
          <mxGeometry x="530" y="498.87" width="110" height="20" as="geometry" />
        </mxCell>
        <mxCell id="zXhEfSg92vwtPYbZUS_4-36" value="GET" style="outlineConnect=0;fontColor=#232F3E;gradientColor=none;fillColor=#277116;strokeColor=none;dashed=0;verticalLabelPosition=bottom;verticalAlign=top;align=center;html=1;fontSize=12;fontStyle=0;aspect=fixed;pointerEvents=1;shape=mxgraph.aws4.http_protocol;" parent="zXhEfSg92vwtPYbZUS_4-1" vertex="1">
          <mxGeometry x="509" y="478.87" width="21.13" height="21.13" as="geometry" />
        </mxCell>
        <mxCell id="zXhEfSg92vwtPYbZUS_4-38" value="/api/campaign" style="text;html=1;align=center;verticalAlign=middle;resizable=0;points=[];autosize=1;strokeColor=none;" parent="zXhEfSg92vwtPYbZUS_4-1" vertex="1">
          <mxGeometry x="540" y="549.23" width="90" height="20" as="geometry" />
        </mxCell>
        <mxCell id="zXhEfSg92vwtPYbZUS_4-40" value="/api/campaign" style="text;html=1;align=center;verticalAlign=middle;resizable=0;points=[];autosize=1;strokeColor=none;" parent="zXhEfSg92vwtPYbZUS_4-1" vertex="1">
          <mxGeometry x="537.75" y="592.25" width="90" height="20" as="geometry" />
        </mxCell>
        <mxCell id="zXhEfSg92vwtPYbZUS_4-41" style="edgeStyle=orthogonalEdgeStyle;rounded=0;orthogonalLoop=1;jettySize=auto;html=1;" parent="zXhEfSg92vwtPYbZUS_4-1" source="zXhEfSg92vwtPYbZUS_4-42" target="zXhEfSg92vwtPYbZUS_4-22" edge="1">
          <mxGeometry relative="1" as="geometry">
            <mxPoint x="20" y="370" as="targetPoint" />
            <Array as="points">
              <mxPoint x="452" y="670" />
              <mxPoint x="20" y="670" />
              <mxPoint x="20" y="393" />
            </Array>
          </mxGeometry>
        </mxCell>
        <mxCell id="zXhEfSg92vwtPYbZUS_4-42" value="Policy evaluated" style="shape=image;html=1;verticalAlign=top;verticalLabelPosition=bottom;labelBackgroundColor=#ffffff;imageAspect=0;aspect=fixed;image=https://cdn0.iconfinder.com/data/icons/infectious-pandemics/480/13-sheild-128.png;fillColor=#00CCCC;" parent="zXhEfSg92vwtPYbZUS_4-1" vertex="1">
          <mxGeometry x="410" y="527.75" width="82.25" height="82.25" as="geometry" />
        </mxCell>
        <mxCell id="zXhEfSg92vwtPYbZUS_4-43" value="403/unauthroized if the Policy is Deny" style="text;html=1;strokeColor=none;fillColor=none;align=center;verticalAlign=middle;whiteSpace=wrap;rounded=0;" parent="zXhEfSg92vwtPYbZUS_4-1" vertex="1">
          <mxGeometry x="110" y="675" width="174.25" height="20" as="geometry" />
        </mxCell>
        <mxCell id="zXhEfSg92vwtPYbZUS_4-53" value="Apigatewaty logs &lt;br&gt;sent to cloudwatch" style="text;html=1;strokeColor=none;fillColor=none;align=center;verticalAlign=middle;whiteSpace=wrap;rounded=0;" parent="zXhEfSg92vwtPYbZUS_4-1" vertex="1">
          <mxGeometry x="270.75" y="719" width="174.25" height="20" as="geometry" />
        </mxCell>
        <mxCell id="zXhEfSg92vwtPYbZUS_4-54" value="Application&amp;nbsp;logs &lt;br&gt;sent to cloudwatch" style="text;html=1;strokeColor=none;fillColor=none;align=center;verticalAlign=middle;whiteSpace=wrap;rounded=0;" parent="zXhEfSg92vwtPYbZUS_4-1" vertex="1">
          <mxGeometry x="525" y="670" width="130" height="20" as="geometry" />
        </mxCell>
        <mxCell id="zXhEfSg92vwtPYbZUS_4-55" value="" style="aspect=fixed;html=1;points=[];align=center;image;fontSize=12;image=img/lib/azure2/management_governance/Metrics.svg;fillColor=#99FFFF;" parent="zXhEfSg92vwtPYbZUS_4-1" vertex="1">
          <mxGeometry x="616.15" y="719" width="27.69" height="30" as="geometry" />
        </mxCell>
        <mxCell id="zXhEfSg92vwtPYbZUS_4-56" value="Cloudwatch metrics/insights" style="text;html=1;strokeColor=none;fillColor=none;align=center;verticalAlign=middle;whiteSpace=wrap;rounded=0;" parent="zXhEfSg92vwtPYbZUS_4-1" vertex="1">
          <mxGeometry x="646" y="724" width="174.25" height="20" as="geometry" />
        </mxCell>
        <mxCell id="zXhEfSg92vwtPYbZUS_4-58" style="edgeStyle=orthogonalEdgeStyle;rounded=0;orthogonalLoop=1;jettySize=auto;html=1;" parent="zXhEfSg92vwtPYbZUS_4-1" source="zXhEfSg92vwtPYbZUS_4-59" edge="1">
          <mxGeometry relative="1" as="geometry">
            <mxPoint x="90" y="265.79999999999995" as="targetPoint" />
          </mxGeometry>
        </mxCell>
        <mxCell id="zXhEfSg92vwtPYbZUS_4-59" value="" style="points=[[0,0,0],[0.25,0,0],[0.5,0,0],[0.75,0,0],[1,0,0],[0,1,0],[0.25,1,0],[0.5,1,0],[0.75,1,0],[1,1,0],[0,0.25,0],[0,0.5,0],[0,0.75,0],[1,0.25,0],[1,0.5,0],[1,0.75,0]];outlineConnect=0;fontColor=#232F3E;gradientColor=#945DF2;gradientDirection=north;fillColor=#5A30B5;strokeColor=#ffffff;dashed=0;verticalLabelPosition=bottom;verticalAlign=top;align=center;html=1;fontSize=12;fontStyle=0;aspect=fixed;shape=mxgraph.aws4.resourceIcon;resIcon=mxgraph.aws4.route_53;" parent="zXhEfSg92vwtPYbZUS_4-1" vertex="1">
          <mxGeometry x="123.25" y="240" width="50" height="50" as="geometry" />
        </mxCell>
        <mxCell id="zXhEfSg92vwtPYbZUS_4-61" value="3. Invoke api with &lt;br&gt;access_token" style="text;html=1;strokeColor=none;fillColor=none;align=center;verticalAlign=middle;whiteSpace=wrap;rounded=0;" parent="zXhEfSg92vwtPYbZUS_4-1" vertex="1">
          <mxGeometry x="50" y="440" width="110" height="10" as="geometry" />
        </mxCell>
        <mxCell id="zXhEfSg92vwtPYbZUS_4-76" value="&lt;span style=&quot;background-color: rgb(255 , 255 , 255)&quot;&gt;Publish to appropriate Slack&amp;nbsp;&lt;/span&gt;&lt;span style=&quot;background-color: rgb(255 , 255 , 255)&quot;&gt;Channel Region on succesful&lt;/span&gt;&lt;br&gt;&lt;span style=&quot;background-color: rgb(255 , 255 , 255)&quot;&gt;update of the feed in the&amp;nbsp;&lt;/span&gt;&lt;span style=&quot;background-color: rgb(255 , 255 , 255)&quot;&gt;campaign database&lt;/span&gt;" style="text;html=1;align=center;verticalAlign=middle;resizable=0;points=[];autosize=1;strokeColor=none;" parent="zXhEfSg92vwtPYbZUS_4-1" vertex="1">
          <mxGeometry x="830" y="181.5" width="320" height="30" as="geometry" />
        </mxCell>
        <mxCell id="zXhEfSg92vwtPYbZUS_4-79" value="" style="points=[[0,0,0],[0.25,0,0],[0.5,0,0],[0.75,0,0],[1,0,0],[0,1,0],[0.25,1,0],[0.5,1,0],[0.75,1,0],[1,1,0],[0,0.25,0],[0,0.5,0],[0,0.75,0],[1,0.25,0],[1,0.5,0],[1,0.75,0]];outlineConnect=0;fontColor=#232F3E;gradientColor=#F54749;gradientDirection=north;fillColor=#C7131F;strokeColor=#ffffff;dashed=0;verticalLabelPosition=bottom;verticalAlign=top;align=center;html=1;fontSize=12;fontStyle=0;aspect=fixed;shape=mxgraph.aws4.resourceIcon;resIcon=mxgraph.aws4.secrets_manager;" parent="zXhEfSg92vwtPYbZUS_4-1" vertex="1">
          <mxGeometry x="737" y="339.62" width="49" height="49" as="geometry" />
        </mxCell>
        <mxCell id="zXhEfSg92vwtPYbZUS_4-80" value="Store all secrets&lt;br&gt;in the secrets manager" style="text;html=1;align=center;verticalAlign=middle;resizable=0;points=[];autosize=1;strokeColor=none;" parent="zXhEfSg92vwtPYbZUS_4-1" vertex="1">
          <mxGeometry x="704" y="391.31" width="140" height="30" as="geometry" />
        </mxCell>
        <mxCell id="zXhEfSg92vwtPYbZUS_4-82" value="" style="points=[[0,0,0],[0.25,0,0],[0.5,0,0],[0.75,0,0],[1,0,0],[0,1,0],[0.25,1,0],[0.5,1,0],[0.75,1,0],[1,1,0],[0,0.25,0],[0,0.5,0],[0,0.75,0],[1,0.25,0],[1,0.5,0],[1,0.75,0]];outlineConnect=0;fontColor=#232F3E;gradientColor=#4D72F3;gradientDirection=north;fillColor=#3334B9;strokeColor=#ffffff;dashed=0;verticalLabelPosition=bottom;verticalAlign=top;align=center;html=1;fontSize=12;fontStyle=0;aspect=fixed;shape=mxgraph.aws4.resourceIcon;resIcon=mxgraph.aws4.dynamodb;" parent="zXhEfSg92vwtPYbZUS_4-1" vertex="1">
          <mxGeometry x="892.77" y="551" width="54.77" height="54.77" as="geometry" />
        </mxCell>
        <mxCell id="zXhEfSg92vwtPYbZUS_4-83" value="dynamodb to &lt;br&gt;store info" style="text;html=1;align=center;verticalAlign=middle;resizable=0;points=[];autosize=1;strokeColor=none;" parent="zXhEfSg92vwtPYbZUS_4-1" vertex="1">
          <mxGeometry x="875.16" y="612.25" width="90" height="30" as="geometry" />
        </mxCell>
        <mxCell id="Ruj3S7D__727Yn7bjjHo-0" style="edgeStyle=orthogonalEdgeStyle;rounded=0;orthogonalLoop=1;jettySize=auto;html=1;entryX=0;entryY=0.5;entryDx=0;entryDy=0;entryPerimeter=0;" parent="zXhEfSg92vwtPYbZUS_4-1" source="zXhEfSg92vwtPYbZUS_4-84" target="zXhEfSg92vwtPYbZUS_4-79" edge="1">
          <mxGeometry relative="1" as="geometry">
            <Array as="points">
              <mxPoint x="665" y="364" />
            </Array>
          </mxGeometry>
        </mxCell>
        <mxCell id="zXhEfSg92vwtPYbZUS_4-84" value="" style="outlineConnect=0;fontColor=#232F3E;gradientColor=none;fillColor=#D05C17;strokeColor=none;dashed=0;verticalLabelPosition=bottom;verticalAlign=top;align=center;html=1;fontSize=12;fontStyle=0;aspect=fixed;pointerEvents=1;shape=mxgraph.aws4.lambda_function;labelBackgroundColor=#ffffff;" parent="zXhEfSg92vwtPYbZUS_4-1" vertex="1">
          <mxGeometry x="646" y="482.5" width="37.5" height="37.5" as="geometry" />
        </mxCell>
        <mxCell id="Ruj3S7D__727Yn7bjjHo-1" style="edgeStyle=orthogonalEdgeStyle;rounded=0;orthogonalLoop=1;jettySize=auto;html=1;entryX=0.005;entryY=0.63;entryDx=0;entryDy=0;entryPerimeter=0;" parent="zXhEfSg92vwtPYbZUS_4-1" source="zXhEfSg92vwtPYbZUS_4-86" target="Zt4pRvPIaBFc3VcMzxDI-32" edge="1">
          <mxGeometry relative="1" as="geometry" />
        </mxCell>
        <mxCell id="zXhEfSg92vwtPYbZUS_4-86" value="" style="outlineConnect=0;fontColor=#232F3E;gradientColor=none;fillColor=#D05C17;strokeColor=none;dashed=0;verticalLabelPosition=bottom;verticalAlign=top;align=center;html=1;fontSize=12;fontStyle=0;aspect=fixed;pointerEvents=1;shape=mxgraph.aws4.lambda_function;labelBackgroundColor=#ffffff;" parent="zXhEfSg92vwtPYbZUS_4-1" vertex="1">
          <mxGeometry x="646" y="533" width="37" height="37" as="geometry" />
        </mxCell>
        <mxCell id="zXhEfSg92vwtPYbZUS_4-90" style="edgeStyle=orthogonalEdgeStyle;rounded=0;orthogonalLoop=1;jettySize=auto;html=1;" parent="zXhEfSg92vwtPYbZUS_4-1" source="zXhEfSg92vwtPYbZUS_4-89" target="zXhEfSg92vwtPYbZUS_4-12" edge="1">
          <mxGeometry relative="1" as="geometry">
            <Array as="points">
              <mxPoint x="665" y="700" />
            </Array>
          </mxGeometry>
        </mxCell>
        <mxCell id="zXhEfSg92vwtPYbZUS_4-89" value="" style="outlineConnect=0;fontColor=#232F3E;gradientColor=none;fillColor=#D05C17;strokeColor=none;dashed=0;verticalLabelPosition=bottom;verticalAlign=top;align=center;html=1;fontSize=12;fontStyle=0;aspect=fixed;pointerEvents=1;shape=mxgraph.aws4.lambda_function;labelBackgroundColor=#ffffff;" parent="zXhEfSg92vwtPYbZUS_4-1" vertex="1">
          <mxGeometry x="646" y="583.75" width="37" height="37" as="geometry" />
        </mxCell>
        <mxCell id="LifrX0sO8q0IUIowOvnQ-1" value="Cognito as an IDP &lt;br&gt;to authenticate users" style="text;html=1;strokeColor=none;fillColor=none;align=center;verticalAlign=middle;whiteSpace=wrap;rounded=0;" parent="zXhEfSg92vwtPYbZUS_4-1" vertex="1">
          <mxGeometry x="292" y="362" width="160" height="11" as="geometry" />
        </mxCell>
        <mxCell id="Zt4pRvPIaBFc3VcMzxDI-17" style="edgeStyle=orthogonalEdgeStyle;rounded=0;orthogonalLoop=1;jettySize=auto;html=1;" parent="zXhEfSg92vwtPYbZUS_4-1" source="Zt4pRvPIaBFc3VcMzxDI-0" target="Zt4pRvPIaBFc3VcMzxDI-14" edge="1">
          <mxGeometry relative="1" as="geometry" />
        </mxCell>
        <mxCell id="Zt4pRvPIaBFc3VcMzxDI-0" value="" style="html=1;dashed=0;whitespace=wrap;fillColor=#2875E2;strokeColor=#ffffff;points=[[0.005,0.63,0],[0.1,0.2,0],[0.9,0.2,0],[0.5,0,0],[0.995,0.63,0],[0.72,0.99,0],[0.5,1,0],[0.28,0.99,0]];shape=mxgraph.kubernetes.icon;prIcon=api" parent="zXhEfSg92vwtPYbZUS_4-1" vertex="1">
          <mxGeometry x="596" y="214.25" width="50" height="48" as="geometry" />
        </mxCell>
        <mxCell id="Zt4pRvPIaBFc3VcMzxDI-2" value="&lt;span style=&quot;background-color: rgb(255 , 255 , 255)&quot;&gt;Call Feed API to&amp;nbsp;get &lt;br&gt;the daily feed updates&lt;/span&gt;" style="text;html=1;align=center;verticalAlign=middle;resizable=0;points=[];autosize=1;strokeColor=none;" parent="zXhEfSg92vwtPYbZUS_4-1" vertex="1">
          <mxGeometry x="574" y="265.13" width="130" height="30" as="geometry" />
        </mxCell>
        <mxCell id="Zt4pRvPIaBFc3VcMzxDI-12" style="edgeStyle=orthogonalEdgeStyle;rounded=0;orthogonalLoop=1;jettySize=auto;html=1;" parent="zXhEfSg92vwtPYbZUS_4-1" source="Zt4pRvPIaBFc3VcMzxDI-4" target="Zt4pRvPIaBFc3VcMzxDI-0" edge="1">
          <mxGeometry relative="1" as="geometry" />
        </mxCell>
        <mxCell id="Zt4pRvPIaBFc3VcMzxDI-31" style="edgeStyle=orthogonalEdgeStyle;rounded=0;orthogonalLoop=1;jettySize=auto;html=1;entryX=0.5;entryY=0;entryDx=0;entryDy=0;entryPerimeter=0;" parent="zXhEfSg92vwtPYbZUS_4-1" source="Zt4pRvPIaBFc3VcMzxDI-4" target="zXhEfSg92vwtPYbZUS_4-79" edge="1">
          <mxGeometry relative="1" as="geometry">
            <Array as="points">
              <mxPoint x="524" y="310" />
              <mxPoint x="762" y="310" />
            </Array>
          </mxGeometry>
        </mxCell>
        <mxCell id="Zt4pRvPIaBFc3VcMzxDI-4" value="Feed Lambda&lt;br&gt;function" style="outlineConnect=0;fontColor=#232F3E;gradientColor=none;fillColor=#D05C17;strokeColor=none;dashed=0;verticalLabelPosition=bottom;verticalAlign=top;align=center;html=1;fontSize=12;fontStyle=0;aspect=fixed;pointerEvents=1;shape=mxgraph.aws4.lambda_function;labelBackgroundColor=#ffffff;" parent="zXhEfSg92vwtPYbZUS_4-1" vertex="1">
          <mxGeometry x="503.75" y="218" width="40" height="40" as="geometry" />
        </mxCell>
        <mxCell id="Zt4pRvPIaBFc3VcMzxDI-13" style="edgeStyle=orthogonalEdgeStyle;rounded=0;orthogonalLoop=1;jettySize=auto;html=1;" parent="zXhEfSg92vwtPYbZUS_4-1" source="Zt4pRvPIaBFc3VcMzxDI-5" target="Zt4pRvPIaBFc3VcMzxDI-4" edge="1">
          <mxGeometry relative="1" as="geometry" />
        </mxCell>
        <mxCell id="Zt4pRvPIaBFc3VcMzxDI-5" value="" style="outlineConnect=0;fontColor=#232F3E;gradientColor=none;fillColor=#BC1356;strokeColor=none;dashed=0;verticalLabelPosition=bottom;verticalAlign=top;align=center;html=1;fontSize=12;fontStyle=0;aspect=fixed;pointerEvents=1;shape=mxgraph.aws4.event_time_based;" parent="zXhEfSg92vwtPYbZUS_4-1" vertex="1">
          <mxGeometry x="380" y="211.38" width="53.75" height="53.75" as="geometry" />
        </mxCell>
        <mxCell id="Zt4pRvPIaBFc3VcMzxDI-8" value="&lt;span style=&quot;background-color: rgb(255 , 255 , 255)&quot;&gt;Schedule Feed Lambda &lt;br&gt;using&amp;nbsp;Cloudwatch events &lt;br&gt;at&amp;nbsp;9am and 4pm daily&lt;/span&gt;" style="text;html=1;align=center;verticalAlign=middle;resizable=0;points=[];autosize=1;strokeColor=none;" parent="zXhEfSg92vwtPYbZUS_4-1" vertex="1">
          <mxGeometry x="270.75" y="181.5" width="150" height="50" as="geometry" />
        </mxCell>
        <mxCell id="Zt4pRvPIaBFc3VcMzxDI-21" style="edgeStyle=orthogonalEdgeStyle;rounded=0;orthogonalLoop=1;jettySize=auto;html=1;" parent="zXhEfSg92vwtPYbZUS_4-1" source="Zt4pRvPIaBFc3VcMzxDI-14" target="Zt4pRvPIaBFc3VcMzxDI-20" edge="1">
          <mxGeometry relative="1" as="geometry" />
        </mxCell>
        <mxCell id="Zt4pRvPIaBFc3VcMzxDI-14" value="" style="points=[[0,0,0],[0.25,0,0],[0.5,0,0],[0.75,0,0],[1,0,0],[0,1,0],[0.25,1,0],[0.5,1,0],[0.75,1,0],[1,1,0],[0,0.25,0],[0,0.5,0],[0,0.75,0],[1,0.25,0],[1,0.5,0],[1,0.75,0]];outlineConnect=0;fontColor=#232F3E;gradientColor=#4D72F3;gradientDirection=north;fillColor=#3334B9;strokeColor=#ffffff;dashed=0;verticalLabelPosition=bottom;verticalAlign=top;align=center;html=1;fontSize=12;fontStyle=0;aspect=fixed;shape=mxgraph.aws4.resourceIcon;resIcon=mxgraph.aws4.dynamodb;" parent="zXhEfSg92vwtPYbZUS_4-1" vertex="1">
          <mxGeometry x="700" y="219.5" width="37" height="37" as="geometry" />
        </mxCell>
        <mxCell id="Zt4pRvPIaBFc3VcMzxDI-26" style="edgeStyle=orthogonalEdgeStyle;rounded=0;orthogonalLoop=1;jettySize=auto;html=1;" parent="zXhEfSg92vwtPYbZUS_4-1" source="Zt4pRvPIaBFc3VcMzxDI-20" target="zXhEfSg92vwtPYbZUS_4-31" edge="1">
          <mxGeometry relative="1" as="geometry" />
        </mxCell>
        <mxCell id="Zt4pRvPIaBFc3VcMzxDI-20" value="" style="shape=image;html=1;verticalAlign=top;verticalLabelPosition=bottom;labelBackgroundColor=#ffffff;imageAspect=0;aspect=fixed;image=https://cdn0.iconfinder.com/data/icons/pinpoint-interface/48/rules-128.png;fillColor=#FFFFFF;" parent="zXhEfSg92vwtPYbZUS_4-1" vertex="1">
          <mxGeometry x="785.54" y="216.38" width="42.62" height="42.62" as="geometry" />
        </mxCell>
        <mxCell id="Zt4pRvPIaBFc3VcMzxDI-29" value="&lt;span style=&quot;background-color: rgb(255 , 255 , 255)&quot;&gt;Store the feed &lt;br&gt;in campaign db&lt;/span&gt;" style="text;html=1;align=center;verticalAlign=middle;resizable=0;points=[];autosize=1;strokeColor=none;" parent="zXhEfSg92vwtPYbZUS_4-1" vertex="1">
          <mxGeometry x="670.54" y="180" width="100" height="30" as="geometry" />
        </mxCell>
        <mxCell id="Zt4pRvPIaBFc3VcMzxDI-30" value="&lt;span style=&quot;background-color: rgb(255 , 255 , 255)&quot;&gt;Execute Messaging &lt;br&gt;Rules and select the&lt;br&gt;appropriate creative&lt;br&gt;&lt;/span&gt;" style="text;html=1;align=center;verticalAlign=middle;resizable=0;points=[];autosize=1;strokeColor=none;" parent="zXhEfSg92vwtPYbZUS_4-1" vertex="1">
          <mxGeometry x="746.85" y="255.13" width="120" height="50" as="geometry" />
        </mxCell>
        <mxCell id="Zt4pRvPIaBFc3VcMzxDI-32" value="" style="html=1;dashed=0;whitespace=wrap;fillColor=#2875E2;strokeColor=#ffffff;points=[[0.005,0.63,0],[0.1,0.2,0],[0.9,0.2,0],[0.5,0,0],[0.995,0.63,0],[0.72,0.99,0],[0.5,1,0],[0.28,0.99,0]];shape=mxgraph.kubernetes.icon;prIcon=api" parent="zXhEfSg92vwtPYbZUS_4-1" vertex="1">
          <mxGeometry x="882.74" y="421.31" width="74.84" height="69.13" as="geometry" />
        </mxCell>
        <mxCell id="Zt4pRvPIaBFc3VcMzxDI-35" value="&lt;span style=&quot;background-color: rgb(255 , 255 , 255)&quot;&gt;Call Platform api to &lt;br&gt;update the creative &lt;br&gt;to be displayed&lt;/span&gt;" style="text;html=1;align=center;verticalAlign=middle;resizable=0;points=[];autosize=1;strokeColor=none;" parent="zXhEfSg92vwtPYbZUS_4-1" vertex="1">
          <mxGeometry x="866.8499999999999" y="338.62" width="120" height="50" as="geometry" />
        </mxCell>
        <mxCell id="Zt4pRvPIaBFc3VcMzxDI-36" value="get the values from &lt;br&gt;secrestmanager like api url, &lt;br&gt;credentials etc" style="text;html=1;align=center;verticalAlign=middle;resizable=0;points=[];autosize=1;strokeColor=none;" parent="zXhEfSg92vwtPYbZUS_4-1" vertex="1">
          <mxGeometry x="550" y="308.5" width="160" height="50" as="geometry" />
        </mxCell>
        <mxCell id="Ruj3S7D__727Yn7bjjHo-2" value="&lt;span style=&quot;background-color: rgb(255 , 255 , 255)&quot;&gt;Platform api layer&lt;/span&gt;" style="text;html=1;align=center;verticalAlign=middle;resizable=0;points=[];autosize=1;strokeColor=none;" parent="zXhEfSg92vwtPYbZUS_4-1" vertex="1">
          <mxGeometry x="866.8499999999999" y="491.25" width="110" height="20" as="geometry" />
        </mxCell>
        <mxCell id="Ruj3S7D__727Yn7bjjHo-4" value="GET" style="outlineConnect=0;fontColor=#232F3E;gradientColor=none;fillColor=#277116;strokeColor=none;dashed=0;verticalLabelPosition=bottom;verticalAlign=top;align=center;html=1;fontSize=12;fontStyle=0;aspect=fixed;pointerEvents=1;shape=mxgraph.aws4.http_protocol;" parent="zXhEfSg92vwtPYbZUS_4-1" vertex="1">
          <mxGeometry x="509" y="540.94" width="21.13" height="21.13" as="geometry" />
        </mxCell>
        <mxCell id="Ruj3S7D__727Yn7bjjHo-5" value="GET" style="outlineConnect=0;fontColor=#232F3E;gradientColor=none;fillColor=#277116;strokeColor=none;dashed=0;verticalLabelPosition=bottom;verticalAlign=top;align=center;html=1;fontSize=12;fontStyle=0;aspect=fixed;pointerEvents=1;shape=mxgraph.aws4.http_protocol;" parent="zXhEfSg92vwtPYbZUS_4-1" vertex="1">
          <mxGeometry x="509" y="583.75" width="21.13" height="21.13" as="geometry" />
        </mxCell>
        <mxCell id="VeSDsq8ngbc8tjHkqKPY-1" value="" style="points=[[0,0,0],[0.25,0,0],[0.5,0,0],[0.75,0,0],[1,0,0],[0,1,0],[0.25,1,0],[0.5,1,0],[0.75,1,0],[1,1,0],[0,0.25,0],[0,0.5,0],[0,0.75,0],[1,0.25,0],[1,0.5,0],[1,0.75,0]];outlineConnect=0;fontColor=#232F3E;gradientColor=#945DF2;gradientDirection=north;fillColor=#5A30B5;strokeColor=#ffffff;dashed=0;verticalLabelPosition=bottom;verticalAlign=top;align=center;html=1;fontSize=12;fontStyle=0;aspect=fixed;shape=mxgraph.aws4.resourceIcon;resIcon=mxgraph.aws4.cloudfront;" parent="zXhEfSg92vwtPYbZUS_4-1" vertex="1">
          <mxGeometry x="36" y="237.5" width="52.5" height="52.5" as="geometry" />
        </mxCell>
      </root>
    </mxGraphModel>
  </diagram>
  <diagram name="Reporting_Architecture" id="2NCsUR9ZxEyexzFkNWQI">
    <mxGraphModel dx="1278" dy="548" grid="1" gridSize="10" guides="1" tooltips="1" connect="1" arrows="1" fold="1" page="1" pageScale="1" pageWidth="1169" pageHeight="827" math="0" shadow="0">
      <root>
        <mxCell id="Zj_jRq8zMhtGwX140t7x-0" />
        <mxCell id="Zj_jRq8zMhtGwX140t7x-1" parent="Zj_jRq8zMhtGwX140t7x-0" />
        <mxCell id="BbFUKMTbrANwPBOFiDiE-0" value="" style="shape=image;html=1;verticalAlign=top;verticalLabelPosition=bottom;labelBackgroundColor=#ffffff;imageAspect=0;aspect=fixed;image=https://cdn4.iconfinder.com/data/icons/logos-and-brands/512/306_Slack_logo-128.png" vertex="1" parent="Zj_jRq8zMhtGwX140t7x-1">
          <mxGeometry x="1020" y="144.75" width="40.5" height="40.5" as="geometry" />
        </mxCell>
        <mxCell id="BbFUKMTbrANwPBOFiDiE-1" value="" style="points=[[0,0,0],[0.25,0,0],[0.5,0,0],[0.75,0,0],[1,0,0],[0,1,0],[0.25,1,0],[0.5,1,0],[0.75,1,0],[1,1,0],[0,0.25,0],[0,0.5,0],[0,0.75,0],[1,0.25,0],[1,0.5,0],[1,0.75,0]];outlineConnect=0;fontColor=#232F3E;gradientColor=#F54749;gradientDirection=north;fillColor=#C7131F;strokeColor=#ffffff;dashed=0;verticalLabelPosition=bottom;verticalAlign=top;align=center;html=1;fontSize=12;fontStyle=0;aspect=fixed;shape=mxgraph.aws4.resourceIcon;resIcon=mxgraph.aws4.secrets_manager;" vertex="1" parent="Zj_jRq8zMhtGwX140t7x-1">
          <mxGeometry x="395.5" y="180" width="49" height="49" as="geometry" />
        </mxCell>
        <mxCell id="BbFUKMTbrANwPBOFiDiE-9" style="edgeStyle=orthogonalEdgeStyle;rounded=0;orthogonalLoop=1;jettySize=auto;html=1;" edge="1" parent="Zj_jRq8zMhtGwX140t7x-1" source="BbFUKMTbrANwPBOFiDiE-3" target="BbFUKMTbrANwPBOFiDiE-5">
          <mxGeometry relative="1" as="geometry">
            <mxPoint x="514" y="306.222" as="targetPoint" />
          </mxGeometry>
        </mxCell>
        <mxCell id="BbFUKMTbrANwPBOFiDiE-11" style="edgeStyle=orthogonalEdgeStyle;rounded=0;orthogonalLoop=1;jettySize=auto;html=1;" edge="1" parent="Zj_jRq8zMhtGwX140t7x-1" source="BbFUKMTbrANwPBOFiDiE-3" target="BbFUKMTbrANwPBOFiDiE-1">
          <mxGeometry relative="1" as="geometry" />
        </mxCell>
        <mxCell id="LlQFqKDainwyQ7CI_RsX-1" style="edgeStyle=orthogonalEdgeStyle;rounded=0;orthogonalLoop=1;jettySize=auto;html=1;" edge="1" parent="Zj_jRq8zMhtGwX140t7x-1" source="BbFUKMTbrANwPBOFiDiE-3" target="LlQFqKDainwyQ7CI_RsX-0">
          <mxGeometry relative="1" as="geometry" />
        </mxCell>
        <mxCell id="BbFUKMTbrANwPBOFiDiE-3" value="The feed update lambda will receive&lt;br style=&quot;background-color: rgb(248 , 249 , 250)&quot;&gt;the updates from provider api&lt;br style=&quot;background-color: rgb(248 , 249 , 250)&quot;&gt;and apply the messaging rules" style="outlineConnect=0;fontColor=#232F3E;gradientColor=none;fillColor=#D05C17;strokeColor=none;dashed=0;verticalLabelPosition=bottom;verticalAlign=top;align=center;html=1;fontSize=12;fontStyle=0;aspect=fixed;pointerEvents=1;shape=mxgraph.aws4.lambda_function;labelBackgroundColor=#ffffff;" vertex="1" parent="Zj_jRq8zMhtGwX140t7x-1">
          <mxGeometry x="400" y="285.87" width="40" height="40" as="geometry" />
        </mxCell>
        <mxCell id="BbFUKMTbrANwPBOFiDiE-8" style="edgeStyle=orthogonalEdgeStyle;rounded=0;orthogonalLoop=1;jettySize=auto;html=1;" edge="1" parent="Zj_jRq8zMhtGwX140t7x-1" source="BbFUKMTbrANwPBOFiDiE-4" target="BbFUKMTbrANwPBOFiDiE-3">
          <mxGeometry relative="1" as="geometry" />
        </mxCell>
        <mxCell id="BbFUKMTbrANwPBOFiDiE-4" value="" style="outlineConnect=0;fontColor=#232F3E;gradientColor=none;fillColor=#BC1356;strokeColor=none;dashed=0;verticalLabelPosition=bottom;verticalAlign=top;align=center;html=1;fontSize=12;fontStyle=0;aspect=fixed;pointerEvents=1;shape=mxgraph.aws4.event_time_based;" vertex="1" parent="Zj_jRq8zMhtGwX140t7x-1">
          <mxGeometry x="210" y="278.99" width="53.75" height="53.75" as="geometry" />
        </mxCell>
        <mxCell id="BbFUKMTbrANwPBOFiDiE-5" value="" style="points=[[0,0,0],[0.25,0,0],[0.5,0,0],[0.75,0,0],[1,0,0],[0,1,0],[0.25,1,0],[0.5,1,0],[0.75,1,0],[1,1,0],[0,0.25,0],[0,0.5,0],[0,0.75,0],[1,0.25,0],[1,0.5,0],[1,0.75,0]];outlineConnect=0;fontColor=#232F3E;gradientColor=#4D72F3;gradientDirection=north;fillColor=#3334B9;strokeColor=#ffffff;dashed=0;verticalLabelPosition=bottom;verticalAlign=top;align=center;html=1;fontSize=12;fontStyle=0;aspect=fixed;shape=mxgraph.aws4.resourceIcon;resIcon=mxgraph.aws4.dynamodb;" vertex="1" parent="Zj_jRq8zMhtGwX140t7x-1">
          <mxGeometry x="600" y="281.55" width="48.63" height="48.63" as="geometry" />
        </mxCell>
        <mxCell id="BbFUKMTbrANwPBOFiDiE-13" value="Store the data to &lt;br&gt;show in the Dashboard" style="text;html=1;align=center;verticalAlign=middle;resizable=0;points=[];autosize=1;strokeColor=none;" vertex="1" parent="Zj_jRq8zMhtGwX140t7x-1">
          <mxGeometry x="560" y="340" width="140" height="30" as="geometry" />
        </mxCell>
        <mxCell id="BbFUKMTbrANwPBOFiDiE-14" value="Get any secrets &lt;br&gt;from secret manager" style="text;html=1;align=center;verticalAlign=middle;resizable=0;points=[];autosize=1;strokeColor=none;" vertex="1" parent="Zj_jRq8zMhtGwX140t7x-1">
          <mxGeometry x="355" y="150" width="130" height="30" as="geometry" />
        </mxCell>
        <mxCell id="LlQFqKDainwyQ7CI_RsX-0" value="All Logs stored &lt;br&gt;in Cloudwatch&amp;nbsp;" style="outlineConnect=0;fontColor=#232F3E;gradientColor=#F34482;gradientDirection=north;fillColor=#BC1356;strokeColor=#ffffff;dashed=0;verticalLabelPosition=bottom;verticalAlign=top;align=center;html=1;fontSize=12;fontStyle=0;aspect=fixed;shape=mxgraph.aws4.resourceIcon;resIcon=mxgraph.aws4.cloudwatch;labelBackgroundColor=#ffffff;direction=west;" vertex="1" parent="Zj_jRq8zMhtGwX140t7x-1">
          <mxGeometry x="397.5" y="460" width="45" height="45" as="geometry" />
        </mxCell>
        <mxCell id="LlQFqKDainwyQ7CI_RsX-8" value="&lt;h1&gt;&lt;font style=&quot;font-size: 18px&quot;&gt;Lambda Functionality:&lt;/font&gt;&lt;/h1&gt;&lt;ul&gt;&lt;li&gt;&lt;span style=&quot;text-align: center&quot;&gt;Provider Api will be called to get the feed update&lt;/span&gt;&lt;/li&gt;&lt;li&gt;&lt;span style=&quot;text-align: center&quot;&gt;On success, t&lt;/span&gt;he messaging rules will be applied and the output is stored in the DynamoDB.&lt;/li&gt;&lt;li&gt;&lt;span style=&quot;text-align: center&quot;&gt;Slack notification is sent to the each region before messaging is updated in the campaigns&lt;/span&gt;&lt;/li&gt;&lt;li&gt;&lt;br&gt;&lt;/li&gt;&lt;/ul&gt;&lt;p&gt;&lt;/p&gt;" style="text;html=1;strokeColor=none;fillColor=none;spacing=5;spacingTop=-20;whiteSpace=wrap;overflow=hidden;rounded=0;" vertex="1" parent="Zj_jRq8zMhtGwX140t7x-1">
          <mxGeometry x="720" y="229" width="360" height="161" as="geometry" />
        </mxCell>
      </root>
    </mxGraphModel>
  </diagram>
  <diagram id="tf1clj9QWi46zeB2cSk-" name="Region-SetUp">
    <mxGraphModel dx="1278" dy="548" grid="0" gridSize="10" guides="1" tooltips="1" connect="1" arrows="1" fold="1" page="1" pageScale="1" pageWidth="850" pageHeight="1100" math="0" shadow="0">
      <root>
        <mxCell id="FBMTModv982SHvlfigql-0" />
        <mxCell id="FBMTModv982SHvlfigql-1" parent="FBMTModv982SHvlfigql-0" />
        <mxCell id="Sd_qXM9x_q4FkUWXvBkk-0" value="" style="rounded=0;whiteSpace=wrap;html=1;" parent="FBMTModv982SHvlfigql-1" vertex="1">
          <mxGeometry x="50" y="60" width="750" height="420" as="geometry" />
        </mxCell>
        <mxCell id="Sd_qXM9x_q4FkUWXvBkk-1" value="" style="rounded=0;whiteSpace=wrap;html=1;" parent="FBMTModv982SHvlfigql-1" vertex="1">
          <mxGeometry x="70" y="80" width="100" height="370" as="geometry" />
        </mxCell>
        <mxCell id="Sd_qXM9x_q4FkUWXvBkk-2" value="" style="rounded=0;whiteSpace=wrap;html=1;" parent="FBMTModv982SHvlfigql-1" vertex="1">
          <mxGeometry x="190" y="80" width="590" height="370" as="geometry" />
        </mxCell>
        <mxCell id="Sd_qXM9x_q4FkUWXvBkk-3" value="Add Region name" style="rounded=0;whiteSpace=wrap;html=1;" parent="FBMTModv982SHvlfigql-1" vertex="1">
          <mxGeometry x="350" y="110" width="130" height="20" as="geometry" />
        </mxCell>
        <mxCell id="Sd_qXM9x_q4FkUWXvBkk-4" value="Region Name:" style="text;html=1;strokeColor=none;fillColor=none;align=center;verticalAlign=middle;whiteSpace=wrap;rounded=0;" parent="FBMTModv982SHvlfigql-1" vertex="1">
          <mxGeometry x="230" y="100" width="110" height="40" as="geometry" />
        </mxCell>
        <mxCell id="Sd_qXM9x_q4FkUWXvBkk-14" value="Submit" style="rounded=0;whiteSpace=wrap;html=1;fillColor=#00FF00;" parent="FBMTModv982SHvlfigql-1" vertex="1">
          <mxGeometry x="350" y="200" width="130" height="20" as="geometry" />
        </mxCell>
        <mxCell id="Sd_qXM9x_q4FkUWXvBkk-17" value="Created" style="html=1;fillColor=none;strokeColor=none;fontSize=11;align=center;fontColor=#596780;whiteSpace=wrap" parent="FBMTModv982SHvlfigql-1" vertex="1">
          <mxGeometry x="560" y="310" width="70" height="20" as="geometry" />
        </mxCell>
        <mxCell id="Sd_qXM9x_q4FkUWXvBkk-19" value="" style="shape=line;strokeWidth=2;html=1;strokeColor=#DFE1E5;resizeWidth=1;fillColor=#00CCCC;" parent="FBMTModv982SHvlfigql-1" vertex="1">
          <mxGeometry x="200" y="330" width="570" height="10" as="geometry" />
        </mxCell>
        <mxCell id="Sd_qXM9x_q4FkUWXvBkk-21" value="Region A" style="html=1;fillColor=none;strokeColor=none;fontSize=12;align=left;fontColor=#000000;whiteSpace=wrap;fontStyle=0" parent="FBMTModv982SHvlfigql-1" vertex="1">
          <mxGeometry x="230" y="347" width="160" height="23" as="geometry" />
        </mxCell>
        <mxCell id="Sd_qXM9x_q4FkUWXvBkk-23" value="20 Jan 2016" style="html=1;fillColor=none;strokeColor=none;fontSize=11;align=center;fontColor=#596780;whiteSpace=wrap" parent="FBMTModv982SHvlfigql-1" vertex="1">
          <mxGeometry x="560" y="347" width="70" height="20" as="geometry" />
        </mxCell>
        <mxCell id="Sd_qXM9x_q4FkUWXvBkk-27" value="08 Feb 2011" style="html=1;fillColor=none;strokeColor=none;fontSize=11;align=center;fontColor=#596780;whiteSpace=wrap" parent="FBMTModv982SHvlfigql-1" vertex="1">
          <mxGeometry x="560" y="377" width="70" height="20" as="geometry" />
        </mxCell>
        <mxCell id="Sd_qXM9x_q4FkUWXvBkk-31" value="20 Jan 2016" style="html=1;fillColor=none;strokeColor=none;fontSize=11;align=center;fontColor=#596780;whiteSpace=wrap" parent="FBMTModv982SHvlfigql-1" vertex="1">
          <mxGeometry x="560" y="407" width="70" height="20" as="geometry" />
        </mxCell>
        <mxCell id="Sd_qXM9x_q4FkUWXvBkk-33" value="" style="shape=line;strokeWidth=2;html=1;strokeColor=#DFE1E5;resizeWidth=1;fillColor=#00CCCC;" parent="FBMTModv982SHvlfigql-1" vertex="1">
          <mxGeometry x="200" y="440" width="570" height="10" as="geometry" />
        </mxCell>
        <mxCell id="Sd_qXM9x_q4FkUWXvBkk-34" value="Region" style="html=1;fillColor=none;strokeColor=none;fontSize=11;align=left;fontColor=#596780;whiteSpace=wrap" parent="FBMTModv982SHvlfigql-1" vertex="1">
          <mxGeometry x="230" y="310" width="150" height="20" as="geometry" />
        </mxCell>
        <mxCell id="Sd_qXM9x_q4FkUWXvBkk-35" value="Region B" style="html=1;fillColor=none;strokeColor=none;fontSize=12;align=left;fontColor=#000000;whiteSpace=wrap;fontStyle=0" parent="FBMTModv982SHvlfigql-1" vertex="1">
          <mxGeometry x="230" y="377" width="160" height="20" as="geometry" />
        </mxCell>
        <mxCell id="Sd_qXM9x_q4FkUWXvBkk-36" value="Region C" style="html=1;fillColor=none;strokeColor=none;fontSize=12;align=left;fontColor=#000000;whiteSpace=wrap;fontStyle=0" parent="FBMTModv982SHvlfigql-1" vertex="1">
          <mxGeometry x="230" y="407" width="160" height="20" as="geometry" />
        </mxCell>
        <mxCell id="Sd_qXM9x_q4FkUWXvBkk-37" value="Add Region description" style="rounded=0;whiteSpace=wrap;html=1;" parent="FBMTModv982SHvlfigql-1" vertex="1">
          <mxGeometry x="350" y="140" width="130" height="20" as="geometry" />
        </mxCell>
        <mxCell id="Sd_qXM9x_q4FkUWXvBkk-38" value="Region Description:" style="text;html=1;strokeColor=none;fillColor=none;align=center;verticalAlign=middle;whiteSpace=wrap;rounded=0;" parent="FBMTModv982SHvlfigql-1" vertex="1">
          <mxGeometry x="220" y="130" width="110" height="40" as="geometry" />
        </mxCell>
        <mxCell id="Sd_qXM9x_q4FkUWXvBkk-39" value="Possible Danger Ratings" style="text;html=1;strokeColor=none;fillColor=none;align=center;verticalAlign=middle;whiteSpace=wrap;rounded=0;" parent="FBMTModv982SHvlfigql-1" vertex="1">
          <mxGeometry x="200" y="160" width="140" height="40" as="geometry" />
        </mxCell>
        <mxCell id="Sd_qXM9x_q4FkUWXvBkk-40" value="List of values like High, Medium, Low" style="rounded=0;whiteSpace=wrap;html=1;" parent="FBMTModv982SHvlfigql-1" vertex="1">
          <mxGeometry x="350" y="170" width="250" height="20" as="geometry" />
        </mxCell>
        <mxCell id="Sd_qXM9x_q4FkUWXvBkk-41" value="Possible Ratings" style="html=1;fillColor=none;strokeColor=none;fontSize=11;align=left;fontColor=#596780;whiteSpace=wrap" parent="FBMTModv982SHvlfigql-1" vertex="1">
          <mxGeometry x="330" y="310" width="150" height="20" as="geometry" />
        </mxCell>
        <mxCell id="Sd_qXM9x_q4FkUWXvBkk-42" value="High,Medium,Low" style="html=1;fillColor=none;strokeColor=none;fontSize=12;align=left;fontColor=#000000;whiteSpace=wrap;fontStyle=0" parent="FBMTModv982SHvlfigql-1" vertex="1">
          <mxGeometry x="330" y="347" width="160" height="23" as="geometry" />
        </mxCell>
        <mxCell id="Sd_qXM9x_q4FkUWXvBkk-43" value="High,Medium,Low" style="html=1;fillColor=none;strokeColor=none;fontSize=12;align=left;fontColor=#000000;whiteSpace=wrap;fontStyle=0" parent="FBMTModv982SHvlfigql-1" vertex="1">
          <mxGeometry x="330" y="374" width="160" height="23" as="geometry" />
        </mxCell>
        <mxCell id="Sd_qXM9x_q4FkUWXvBkk-44" value="High,Medium,Low" style="html=1;fillColor=none;strokeColor=none;fontSize=12;align=left;fontColor=#000000;whiteSpace=wrap;fontStyle=0" parent="FBMTModv982SHvlfigql-1" vertex="1">
          <mxGeometry x="330" y="404" width="160" height="23" as="geometry" />
        </mxCell>
        <mxCell id="39sLcf0OGGzYdrN7ISuL-0" value="Regions" style="fillColor=none;strokeColor=none;fontSize=14;fontColor=#0085FC;align=left;spacing=10;" parent="FBMTModv982SHvlfigql-1" vertex="1">
          <mxGeometry x="80" y="92" width="80" height="30" as="geometry" />
        </mxCell>
        <mxCell id="39sLcf0OGGzYdrN7ISuL-1" value="Campaigns" style="fillColor=none;strokeColor=none;fontSize=14;fontColor=#0085FC;align=left;spacing=10;" parent="FBMTModv982SHvlfigql-1" vertex="1">
          <mxGeometry x="80" y="156" width="80" height="30" as="geometry" />
        </mxCell>
        <mxCell id="39sLcf0OGGzYdrN7ISuL-2" value="Creatives" style="fillColor=none;strokeColor=none;fontSize=14;fontColor=#0085FC;align=left;spacing=10;" parent="FBMTModv982SHvlfigql-1" vertex="1">
          <mxGeometry x="80" y="122" width="80" height="30" as="geometry" />
        </mxCell>
        <mxCell id="39sLcf0OGGzYdrN7ISuL-3" value="Messaging&#xa;Rules" style="fillColor=none;strokeColor=none;fontSize=14;fontColor=#0085FC;align=left;spacing=10;" parent="FBMTModv982SHvlfigql-1" vertex="1">
          <mxGeometry x="80" y="190" width="80" height="30" as="geometry" />
        </mxCell>
        <mxCell id="eF6VWlObPHdl13WPY29o-0" value="&lt;b&gt;Add Region&lt;/b&gt;" style="text;html=1;strokeColor=none;fillColor=none;align=center;verticalAlign=middle;whiteSpace=wrap;rounded=0;" parent="FBMTModv982SHvlfigql-1" vertex="1">
          <mxGeometry x="196" y="76" width="110" height="40" as="geometry" />
        </mxCell>
      </root>
    </mxGraphModel>
  </diagram>
  <diagram id="HVQo5H-i1K8sVp2svb85" name="Creative_SetUp">
    <mxGraphModel dx="1278" dy="548" grid="1" gridSize="10" guides="1" tooltips="1" connect="1" arrows="1" fold="1" page="1" pageScale="1" pageWidth="850" pageHeight="1100" math="0" shadow="0">
      <root>
        <mxCell id="q7fVHRbjfziKEzvYae8t-0" />
        <mxCell id="q7fVHRbjfziKEzvYae8t-1" parent="q7fVHRbjfziKEzvYae8t-0" />
        <mxCell id="nxnjdOVLe39HoaWAw5tK-0" value="" style="rounded=0;whiteSpace=wrap;html=1;" parent="q7fVHRbjfziKEzvYae8t-1" vertex="1">
          <mxGeometry x="50" y="60" width="750" height="420" as="geometry" />
        </mxCell>
        <mxCell id="nxnjdOVLe39HoaWAw5tK-1" value="" style="rounded=0;whiteSpace=wrap;html=1;" parent="q7fVHRbjfziKEzvYae8t-1" vertex="1">
          <mxGeometry x="70" y="80" width="100" height="370" as="geometry" />
        </mxCell>
        <mxCell id="nxnjdOVLe39HoaWAw5tK-2" value="" style="rounded=0;whiteSpace=wrap;html=1;" parent="q7fVHRbjfziKEzvYae8t-1" vertex="1">
          <mxGeometry x="190" y="80" width="590" height="370" as="geometry" />
        </mxCell>
        <mxCell id="nxnjdOVLe39HoaWAw5tK-3" value="Add creative name" style="rounded=0;whiteSpace=wrap;html=1;" parent="q7fVHRbjfziKEzvYae8t-1" vertex="1">
          <mxGeometry x="350" y="101" width="120" height="20" as="geometry" />
        </mxCell>
        <mxCell id="nxnjdOVLe39HoaWAw5tK-4" value="Creative Name:" style="text;html=1;strokeColor=none;fillColor=none;align=center;verticalAlign=middle;whiteSpace=wrap;rounded=0;" parent="q7fVHRbjfziKEzvYae8t-1" vertex="1">
          <mxGeometry x="220" y="91" width="110" height="40" as="geometry" />
        </mxCell>
        <mxCell id="nxnjdOVLe39HoaWAw5tK-5" value="Region" style="text;html=1;strokeColor=none;fillColor=none;align=center;verticalAlign=middle;whiteSpace=wrap;rounded=0;" parent="q7fVHRbjfziKEzvYae8t-1" vertex="1">
          <mxGeometry x="220" y="120" width="110" height="40" as="geometry" />
        </mxCell>
        <mxCell id="nxnjdOVLe39HoaWAw5tK-6" value="" style="html=1;shadow=0;dashed=0;shape=mxgraph.bootstrap.rrect;rSize=5;fillColor=#ffffff;strokeColor=#999999;" parent="q7fVHRbjfziKEzvYae8t-1" vertex="1">
          <mxGeometry x="510" y="131" width="170" height="59" as="geometry" />
        </mxCell>
        <mxCell id="nxnjdOVLe39HoaWAw5tK-7" value="Region A" style="fillColor=none;strokeColor=none;align=left;spacing=20;fontSize=14;" parent="nxnjdOVLe39HoaWAw5tK-6" vertex="1">
          <mxGeometry width="170" height="20" relative="1" as="geometry">
            <mxPoint y="2" as="offset" />
          </mxGeometry>
        </mxCell>
        <mxCell id="nxnjdOVLe39HoaWAw5tK-8" value="Region B" style="fillColor=none;strokeColor=none;align=left;spacing=20;fontSize=14;" parent="nxnjdOVLe39HoaWAw5tK-6" vertex="1">
          <mxGeometry width="170" height="20" relative="1" as="geometry">
            <mxPoint y="22" as="offset" />
          </mxGeometry>
        </mxCell>
        <mxCell id="nxnjdOVLe39HoaWAw5tK-9" value="Region C" style="fillColor=none;strokeColor=none;align=left;spacing=20;fontSize=14;" parent="nxnjdOVLe39HoaWAw5tK-6" vertex="1">
          <mxGeometry width="170" relative="1" as="geometry">
            <mxPoint y="50" as="offset" />
          </mxGeometry>
        </mxCell>
        <mxCell id="nxnjdOVLe39HoaWAw5tK-10" value="Select Region" style="html=1;shadow=0;dashed=0;shape=mxgraph.bootstrap.rrect;rSize=5;strokeColor=none;strokeWidth=1;fillColor=#FFBC26;fontColor=#000000;whiteSpace=wrap;align=left;verticalAlign=middle;fontStyle=0;fontSize=14;spacingLeft=10;" parent="q7fVHRbjfziKEzvYae8t-1" vertex="1">
          <mxGeometry x="350" y="131" width="140" height="20" as="geometry" />
        </mxCell>
        <mxCell id="nxnjdOVLe39HoaWAw5tK-11" value="" style="shape=triangle;direction=south;fillColor=#000000;strokeColor=none;perimeter=none;" parent="nxnjdOVLe39HoaWAw5tK-10" vertex="1">
          <mxGeometry x="1" y="0.5" width="10" height="5" relative="1" as="geometry">
            <mxPoint x="-17" y="-2.5" as="offset" />
          </mxGeometry>
        </mxCell>
        <mxCell id="nxnjdOVLe39HoaWAw5tK-12" value="Creative Asset" style="text;html=1;strokeColor=none;fillColor=none;align=center;verticalAlign=middle;whiteSpace=wrap;rounded=0;" parent="q7fVHRbjfziKEzvYae8t-1" vertex="1">
          <mxGeometry x="230" y="156" width="110" height="40" as="geometry" />
        </mxCell>
        <mxCell id="nxnjdOVLe39HoaWAw5tK-13" value="Upload Image/Video" style="rounded=0;whiteSpace=wrap;html=1;" parent="q7fVHRbjfziKEzvYae8t-1" vertex="1">
          <mxGeometry x="350" y="166" width="150" height="20" as="geometry" />
        </mxCell>
        <mxCell id="nxnjdOVLe39HoaWAw5tK-16" value="Submit" style="rounded=0;whiteSpace=wrap;html=1;fillColor=#00FF00;" parent="q7fVHRbjfziKEzvYae8t-1" vertex="1">
          <mxGeometry x="350" y="255" width="120" height="20" as="geometry" />
        </mxCell>
        <mxCell id="LrMP34KMYj86TwCakIv7-0" value="Name" style="html=1;fillColor=none;strokeColor=none;fontSize=11;align=left;fontColor=#596780;whiteSpace=wrap" parent="q7fVHRbjfziKEzvYae8t-1" vertex="1">
          <mxGeometry x="200" y="310" width="150" height="20" as="geometry" />
        </mxCell>
        <mxCell id="LrMP34KMYj86TwCakIv7-1" value="Size" style="html=1;fillColor=none;strokeColor=none;fontSize=11;align=left;fontColor=#596780;whiteSpace=wrap" parent="q7fVHRbjfziKEzvYae8t-1" vertex="1">
          <mxGeometry x="500" y="310" width="90" height="20" as="geometry" />
        </mxCell>
        <mxCell id="LrMP34KMYj86TwCakIv7-2" value="Last commit" style="html=1;fillColor=none;strokeColor=none;fontSize=11;align=center;fontColor=#596780;whiteSpace=wrap" parent="q7fVHRbjfziKEzvYae8t-1" vertex="1">
          <mxGeometry x="560" y="310" width="70" height="20" as="geometry" />
        </mxCell>
        <mxCell id="LrMP34KMYj86TwCakIv7-3" value="Action" style="html=1;fillColor=none;strokeColor=none;fontSize=11;align=left;fontColor=#596780;whiteSpace=wrap" parent="q7fVHRbjfziKEzvYae8t-1" vertex="1">
          <mxGeometry x="660" y="310" width="100" height="20" as="geometry" />
        </mxCell>
        <mxCell id="LrMP34KMYj86TwCakIv7-4" value="" style="shape=line;strokeWidth=2;html=1;strokeColor=#DFE1E5;resizeWidth=1;fillColor=#00CCCC;" parent="q7fVHRbjfziKEzvYae8t-1" vertex="1">
          <mxGeometry x="200" y="330" width="570" height="10" as="geometry" />
        </mxCell>
        <mxCell id="LrMP34KMYj86TwCakIv7-5" value="Creative AA" style="shape=mxgraph.office.concepts.folders;fillColor=#344563;strokeColor=none;fontColor=#344563;fontSize=11;fontStyle=0;labelPosition=right;align=left;html=1;spacingLeft=5" parent="q7fVHRbjfziKEzvYae8t-1" vertex="1">
          <mxGeometry x="200" y="349" width="20" height="16" as="geometry" />
        </mxCell>
        <mxCell id="LrMP34KMYj86TwCakIv7-7" value="Region A" style="html=1;fillColor=none;strokeColor=none;fontSize=12;align=left;fontColor=#000000;whiteSpace=wrap;fontStyle=0" parent="q7fVHRbjfziKEzvYae8t-1" vertex="1">
          <mxGeometry x="300" y="347" width="160" height="20" as="geometry" />
        </mxCell>
        <mxCell id="LrMP34KMYj86TwCakIv7-8" value="209 B" style="strokeColor=none;fillColor=none;fontSize=11;fontColor=#596780;align=right;html=1" parent="q7fVHRbjfziKEzvYae8t-1" vertex="1">
          <mxGeometry x="480" y="347" width="50" height="20" as="geometry" />
        </mxCell>
        <mxCell id="LrMP34KMYj86TwCakIv7-9" value="20 Jan 2016" style="html=1;fillColor=none;strokeColor=none;fontSize=11;align=center;fontColor=#596780;whiteSpace=wrap" parent="q7fVHRbjfziKEzvYae8t-1" vertex="1">
          <mxGeometry x="560" y="347" width="70" height="20" as="geometry" />
        </mxCell>
        <mxCell id="LrMP34KMYj86TwCakIv7-11" value="Creative AB" style="shape=mxgraph.office.concepts.folder;fillColor=#344563;strokeColor=none;fontColor=#344563;fontSize=11;fontStyle=0;labelPosition=right;align=left;html=1;spacingLeft=5" parent="q7fVHRbjfziKEzvYae8t-1" vertex="1">
          <mxGeometry x="200" y="379" width="18" height="16" as="geometry" />
        </mxCell>
        <mxCell id="LrMP34KMYj86TwCakIv7-12" value="197 B" style="strokeColor=none;fillColor=none;fontSize=11;fontColor=#596780;align=right;html=1" parent="q7fVHRbjfziKEzvYae8t-1" vertex="1">
          <mxGeometry x="480" y="377" width="50" height="20" as="geometry" />
        </mxCell>
        <mxCell id="LrMP34KMYj86TwCakIv7-13" value="08 Feb 2011" style="html=1;fillColor=none;strokeColor=none;fontSize=11;align=center;fontColor=#596780;whiteSpace=wrap" parent="q7fVHRbjfziKEzvYae8t-1" vertex="1">
          <mxGeometry x="560" y="377" width="70" height="20" as="geometry" />
        </mxCell>
        <mxCell id="LrMP34KMYj86TwCakIv7-14" value="initial commit" style="html=1;fillColor=none;strokeColor=none;fontSize=11;align=left;fontColor=#596780;whiteSpace=wrap" parent="q7fVHRbjfziKEzvYae8t-1" vertex="1">
          <mxGeometry x="660" y="377" width="170" height="20" as="geometry" />
        </mxCell>
        <mxCell id="LrMP34KMYj86TwCakIv7-15" value="Creative AC" style="shape=mxgraph.office.concepts.folder;fillColor=#344563;strokeColor=none;fontColor=#344563;fontSize=11;fontStyle=0;labelPosition=right;align=left;html=1;spacingLeft=5" parent="q7fVHRbjfziKEzvYae8t-1" vertex="1">
          <mxGeometry x="200" y="409" width="18" height="16" as="geometry" />
        </mxCell>
        <mxCell id="LrMP34KMYj86TwCakIv7-16" value="209 B" style="strokeColor=none;fillColor=none;fontSize=11;fontColor=#596780;align=right;html=1" parent="q7fVHRbjfziKEzvYae8t-1" vertex="1">
          <mxGeometry x="480" y="407" width="50" height="20" as="geometry" />
        </mxCell>
        <mxCell id="LrMP34KMYj86TwCakIv7-17" value="20 Jan 2016" style="html=1;fillColor=none;strokeColor=none;fontSize=11;align=center;fontColor=#596780;whiteSpace=wrap" parent="q7fVHRbjfziKEzvYae8t-1" vertex="1">
          <mxGeometry x="560" y="407" width="70" height="20" as="geometry" />
        </mxCell>
        <mxCell id="LrMP34KMYj86TwCakIv7-18" value="initial commit" style="html=1;fillColor=none;strokeColor=none;fontSize=11;align=left;fontColor=#596780;whiteSpace=wrap" parent="q7fVHRbjfziKEzvYae8t-1" vertex="1">
          <mxGeometry x="660" y="407" width="170" height="20" as="geometry" />
        </mxCell>
        <mxCell id="LrMP34KMYj86TwCakIv7-31" value="" style="shape=line;strokeWidth=2;html=1;strokeColor=#DFE1E5;resizeWidth=1;fillColor=#00CCCC;" parent="q7fVHRbjfziKEzvYae8t-1" vertex="1">
          <mxGeometry x="200" y="440" width="570" height="10" as="geometry" />
        </mxCell>
        <mxCell id="LrMP34KMYj86TwCakIv7-32" value="Region" style="html=1;fillColor=none;strokeColor=none;fontSize=11;align=left;fontColor=#596780;whiteSpace=wrap" parent="q7fVHRbjfziKEzvYae8t-1" vertex="1">
          <mxGeometry x="300" y="310" width="150" height="20" as="geometry" />
        </mxCell>
        <mxCell id="LrMP34KMYj86TwCakIv7-33" value="Region B" style="html=1;fillColor=none;strokeColor=none;fontSize=12;align=left;fontColor=#000000;whiteSpace=wrap;fontStyle=0" parent="q7fVHRbjfziKEzvYae8t-1" vertex="1">
          <mxGeometry x="300" y="375" width="160" height="20" as="geometry" />
        </mxCell>
        <mxCell id="LrMP34KMYj86TwCakIv7-34" value="Region C" style="html=1;fillColor=none;strokeColor=none;fontSize=12;align=left;fontColor=#000000;whiteSpace=wrap;fontStyle=0" parent="q7fVHRbjfziKEzvYae8t-1" vertex="1">
          <mxGeometry x="300" y="407" width="160" height="20" as="geometry" />
        </mxCell>
        <mxCell id="90_FG5rK_py4LPgXkcGE-1" value="&lt;span style=&quot;color: rgb(89 , 103 , 128) ; font-size: 11px ; font-weight: 700&quot;&gt;uploaded to Ad Creative &lt;br&gt;S3 bucket separated &lt;br&gt;by clients&lt;/span&gt;" style="points=[[0,0,0],[0.25,0,0],[0.5,0,0],[0.75,0,0],[1,0,0],[0,1,0],[0.25,1,0],[0.5,1,0],[0.75,1,0],[1,1,0],[0,0.25,0],[0,0.5,0],[0,0.75,0],[1,0.25,0],[1,0.5,0],[1,0.75,0]];outlineConnect=0;fontColor=#232F3E;gradientColor=#60A337;gradientDirection=north;fillColor=#277116;strokeColor=#ffffff;dashed=0;verticalLabelPosition=bottom;verticalAlign=top;align=center;html=1;fontSize=12;fontStyle=0;aspect=fixed;shape=mxgraph.aws4.resourceIcon;resIcon=mxgraph.aws4.s3;" parent="q7fVHRbjfziKEzvYae8t-1" vertex="1">
          <mxGeometry x="550" y="197" width="40" height="40" as="geometry" />
        </mxCell>
        <mxCell id="5FinfJiE-3tyNfCfSgAi-0" value="" style="rounded=1;fillColor=#ffffff;strokeColor=#DFE1E5;shadow=1;html=1;arcSize=4" parent="q7fVHRbjfziKEzvYae8t-1" vertex="1">
          <mxGeometry x="660" y="350" width="110" height="78" as="geometry" />
        </mxCell>
        <mxCell id="5FinfJiE-3tyNfCfSgAi-1" value="Disable Creative" style="rounded=0;fillColor=#F4F5F7;strokeColor=none;shadow=0;html=1;align=left;fontSize=12;spacingLeft=10;fontColor=#253858;resizeWidth=1" parent="5FinfJiE-3tyNfCfSgAi-0" vertex="1">
          <mxGeometry width="110" height="40" relative="1" as="geometry">
            <mxPoint y="6" as="offset" />
          </mxGeometry>
        </mxCell>
        <mxCell id="5FinfJiE-3tyNfCfSgAi-2" value="UnMap Creative" style="rounded=0;fillColor=none;strokeColor=none;shadow=0;html=1;align=left;fontSize=12;spacingLeft=10;fontColor=#253858;resizeWidth=1" parent="5FinfJiE-3tyNfCfSgAi-0" vertex="1">
          <mxGeometry width="110" height="20" relative="1" as="geometry">
            <mxPoint y="37" as="offset" />
          </mxGeometry>
        </mxCell>
        <mxCell id="IUip4fhHWkq0ET9onj-D-0" value="Delete Creative" style="rounded=0;fillColor=none;strokeColor=none;shadow=0;html=1;align=left;fontSize=12;spacingLeft=10;fontColor=#253858;resizeWidth=1" parent="5FinfJiE-3tyNfCfSgAi-0" vertex="1">
          <mxGeometry y="58" width="110" height="20" as="geometry" />
        </mxCell>
        <mxCell id="Rg8FNAKsH0Vhyzqzv50L-0" value="" style="rounded=1;arcSize=23;fillColor=#42526E;strokeColor=none" parent="q7fVHRbjfziKEzvYae8t-1" vertex="1">
          <mxGeometry x="660" y="341" width="40" height="24" as="geometry" />
        </mxCell>
        <mxCell id="Rg8FNAKsH0Vhyzqzv50L-1" value="" style="shape=ellipse;fillColor=#ffffff;strokeColor=none;html=1" parent="Rg8FNAKsH0Vhyzqzv50L-0" vertex="1">
          <mxGeometry x="0.5" y="0.5" width="4" height="4" relative="1" as="geometry">
            <mxPoint x="-10" y="-2" as="offset" />
          </mxGeometry>
        </mxCell>
        <mxCell id="Rg8FNAKsH0Vhyzqzv50L-2" value="" style="shape=ellipse;fillColor=#ffffff;strokeColor=none;html=1" parent="Rg8FNAKsH0Vhyzqzv50L-0" vertex="1">
          <mxGeometry x="0.5" y="0.5" width="4" height="4" relative="1" as="geometry">
            <mxPoint x="-2" y="-2" as="offset" />
          </mxGeometry>
        </mxCell>
        <mxCell id="Rg8FNAKsH0Vhyzqzv50L-3" value="" style="shape=ellipse;fillColor=#ffffff;strokeColor=none;html=1" parent="Rg8FNAKsH0Vhyzqzv50L-0" vertex="1">
          <mxGeometry x="0.5" y="0.5" width="4" height="4" relative="1" as="geometry">
            <mxPoint x="6" y="-2" as="offset" />
          </mxGeometry>
        </mxCell>
        <mxCell id="O3brhAkvXbh6bj8XQRAt-0" value="&lt;b&gt;Add Creative&lt;/b&gt;" style="text;html=1;strokeColor=none;fillColor=none;align=center;verticalAlign=middle;whiteSpace=wrap;rounded=0;" parent="q7fVHRbjfziKEzvYae8t-1" vertex="1">
          <mxGeometry x="218" y="70" width="110" height="40" as="geometry" />
        </mxCell>
        <mxCell id="Madl1WSITd98SkfhiJLs-0" value="Regions" style="fillColor=none;strokeColor=none;fontSize=14;fontColor=#0085FC;align=left;spacing=10;" parent="q7fVHRbjfziKEzvYae8t-1" vertex="1">
          <mxGeometry x="80" y="96" width="80" height="30" as="geometry" />
        </mxCell>
        <mxCell id="Madl1WSITd98SkfhiJLs-1" value="Campaigns" style="fillColor=none;strokeColor=none;fontSize=14;fontColor=#0085FC;align=left;spacing=10;" parent="q7fVHRbjfziKEzvYae8t-1" vertex="1">
          <mxGeometry x="80" y="160" width="80" height="30" as="geometry" />
        </mxCell>
        <mxCell id="Madl1WSITd98SkfhiJLs-2" value="Creatives" style="fillColor=none;strokeColor=none;fontSize=14;fontColor=#0085FC;align=left;spacing=10;" parent="q7fVHRbjfziKEzvYae8t-1" vertex="1">
          <mxGeometry x="80" y="126" width="80" height="30" as="geometry" />
        </mxCell>
        <mxCell id="Madl1WSITd98SkfhiJLs-3" value="Messaging&#xa;Rules" style="fillColor=none;strokeColor=none;fontSize=14;fontColor=#0085FC;align=left;spacing=10;" parent="q7fVHRbjfziKEzvYae8t-1" vertex="1">
          <mxGeometry x="80" y="194" width="80" height="30" as="geometry" />
        </mxCell>
        <mxCell id="-iJmY9c4WQTjwnfIGM7q-0" value="Creative Budget" style="text;html=1;strokeColor=none;fillColor=none;align=center;verticalAlign=middle;whiteSpace=wrap;rounded=0;" parent="q7fVHRbjfziKEzvYae8t-1" vertex="1">
          <mxGeometry x="230" y="190" width="110" height="30" as="geometry" />
        </mxCell>
        <mxCell id="-iJmY9c4WQTjwnfIGM7q-1" value="Enter budget information" style="rounded=0;whiteSpace=wrap;html=1;" parent="q7fVHRbjfziKEzvYae8t-1" vertex="1">
          <mxGeometry x="350" y="224" width="150" height="20" as="geometry" />
        </mxCell>
        <mxCell id="-iJmY9c4WQTjwnfIGM7q-3" value="Audience" style="text;html=1;strokeColor=none;fillColor=none;align=center;verticalAlign=middle;whiteSpace=wrap;rounded=0;" parent="q7fVHRbjfziKEzvYae8t-1" vertex="1">
          <mxGeometry x="230" y="224" width="110" height="19" as="geometry" />
        </mxCell>
        <mxCell id="-iJmY9c4WQTjwnfIGM7q-4" value="Select Target Audience" style="rounded=0;whiteSpace=wrap;html=1;" parent="q7fVHRbjfziKEzvYae8t-1" vertex="1">
          <mxGeometry x="350" y="197" width="150" height="20" as="geometry" />
        </mxCell>
      </root>
    </mxGraphModel>
  </diagram>
  <diagram id="ITIT-wE3OmYXD7rG-08S" name="Campaign_list">
    <mxGraphModel dx="1278" dy="548" grid="1" gridSize="10" guides="1" tooltips="1" connect="1" arrows="1" fold="1" page="1" pageScale="1" pageWidth="850" pageHeight="1100" math="0" shadow="0">
      <root>
        <mxCell id="Ls9zx_w2HFz-K94AEwjX-0" />
        <mxCell id="Ls9zx_w2HFz-K94AEwjX-1" parent="Ls9zx_w2HFz-K94AEwjX-0" />
        <mxCell id="b_MyIMnOvXRfzgk3g6UZ-0" value="" style="rounded=0;whiteSpace=wrap;html=1;fillColor=#FFFFFF;" parent="Ls9zx_w2HFz-K94AEwjX-1" vertex="1">
          <mxGeometry x="40" y="36" width="810" height="410" as="geometry" />
        </mxCell>
        <mxCell id="b83E0aCVDLJbFd13GOJT-0" value="" style="rounded=0;whiteSpace=wrap;html=1;" parent="Ls9zx_w2HFz-K94AEwjX-1" vertex="1">
          <mxGeometry x="60" y="50" width="100" height="370" as="geometry" />
        </mxCell>
        <mxCell id="b83E0aCVDLJbFd13GOJT-1" value="Campaign" style="html=1;fillColor=none;strokeColor=none;fontSize=11;align=left;fontColor=#596780;whiteSpace=wrap;fontStyle=1" parent="Ls9zx_w2HFz-K94AEwjX-1" vertex="1">
          <mxGeometry x="200" y="80" width="150" height="20" as="geometry" />
        </mxCell>
        <mxCell id="b83E0aCVDLJbFd13GOJT-2" value="Total views" style="html=1;fillColor=none;strokeColor=none;fontSize=11;align=left;fontColor=#596780;whiteSpace=wrap;fontStyle=1" parent="Ls9zx_w2HFz-K94AEwjX-1" vertex="1">
          <mxGeometry x="540" y="80" width="70" height="20" as="geometry" />
        </mxCell>
        <mxCell id="b83E0aCVDLJbFd13GOJT-3" value="Region" style="html=1;fillColor=none;strokeColor=none;fontSize=11;align=right;fontColor=#596780;whiteSpace=wrap;fontStyle=1" parent="Ls9zx_w2HFz-K94AEwjX-1" vertex="1">
          <mxGeometry x="350" y="80" width="40" height="20" as="geometry" />
        </mxCell>
        <mxCell id="b83E0aCVDLJbFd13GOJT-4" value="Updated" style="html=1;fillColor=none;strokeColor=none;fontSize=11;align=left;fontColor=#596780;whiteSpace=wrap;fontStyle=1" parent="Ls9zx_w2HFz-K94AEwjX-1" vertex="1">
          <mxGeometry x="620" y="80" width="90" height="20" as="geometry" />
        </mxCell>
        <mxCell id="b83E0aCVDLJbFd13GOJT-6" value="Action" style="html=1;fillColor=none;strokeColor=none;fontSize=11;align=center;fontColor=#596780;whiteSpace=wrap;fontStyle=1" parent="Ls9zx_w2HFz-K94AEwjX-1" vertex="1">
          <mxGeometry x="740" y="80" width="40" height="20" as="geometry" />
        </mxCell>
        <mxCell id="b83E0aCVDLJbFd13GOJT-7" value="" style="shape=line;strokeWidth=2;html=1;strokeColor=#DFE1E5;resizeWidth=1;fillColor=#FFFFFF;" parent="Ls9zx_w2HFz-K94AEwjX-1" vertex="1">
          <mxGeometry x="200" y="100" width="630" height="10" as="geometry" />
        </mxCell>
        <mxCell id="b83E0aCVDLJbFd13GOJT-8" value="" style="strokeColor=none;fillColor=#FAFBFC;html=1" parent="Ls9zx_w2HFz-K94AEwjX-1" vertex="1">
          <mxGeometry x="190" y="106" width="640" height="30" as="geometry" />
        </mxCell>
        <mxCell id="b83E0aCVDLJbFd13GOJT-9" value="Bush Fire 1" style="strokeColor=none;fillColor=none;fontSize=12;fontColor=#596780;align=left;html=1" parent="Ls9zx_w2HFz-K94AEwjX-1" vertex="1">
          <mxGeometry x="200" y="111" width="50" height="20" as="geometry" />
        </mxCell>
        <mxCell id="b83E0aCVDLJbFd13GOJT-10" value="Active" style="strokeColor=none;fillColor=#00CCCC;fontSize=11;fontColor=#596780;rounded=1;html=1" parent="Ls9zx_w2HFz-K94AEwjX-1" vertex="1">
          <mxGeometry x="270" y="110" width="65" height="20" as="geometry" />
        </mxCell>
        <mxCell id="b83E0aCVDLJbFd13GOJT-11" value="28 minutes ago" style="strokeColor=none;fillColor=none;fontSize=12;fontColor=#596780;align=left;html=1" parent="Ls9zx_w2HFz-K94AEwjX-1" vertex="1">
          <mxGeometry x="620" y="109" width="50" height="20" as="geometry" />
        </mxCell>
        <mxCell id="b83E0aCVDLJbFd13GOJT-12" value="&amp;#8226;&amp;#8226;&amp;#8226;" style="shape=ellipse;fillColor=#0057D8;strokeColor=none;fontColor=#ffffff;align=center;verticalAlign=middle;whiteSpace=wrap;fontSize=10;fontStyle=0;html=1" parent="Ls9zx_w2HFz-K94AEwjX-1" vertex="1">
          <mxGeometry x="755" y="113" width="16" height="16" as="geometry" />
        </mxCell>
        <mxCell id="b83E0aCVDLJbFd13GOJT-13" value="" style="rounded=1;arcSize=23;fillColor=#42526E;strokeColor=none" parent="Ls9zx_w2HFz-K94AEwjX-1" vertex="1">
          <mxGeometry x="785" y="108" width="40" height="24" as="geometry" />
        </mxCell>
        <mxCell id="b83E0aCVDLJbFd13GOJT-14" value="" style="shape=ellipse;fillColor=#ffffff;strokeColor=none;html=1" parent="b83E0aCVDLJbFd13GOJT-13" vertex="1">
          <mxGeometry x="0.5" y="0.5" width="4" height="4" relative="1" as="geometry">
            <mxPoint x="-10" y="-2" as="offset" />
          </mxGeometry>
        </mxCell>
        <mxCell id="b83E0aCVDLJbFd13GOJT-15" value="" style="shape=ellipse;fillColor=#ffffff;strokeColor=none;html=1" parent="b83E0aCVDLJbFd13GOJT-13" vertex="1">
          <mxGeometry x="0.5" y="0.5" width="4" height="4" relative="1" as="geometry">
            <mxPoint x="-2" y="-2" as="offset" />
          </mxGeometry>
        </mxCell>
        <mxCell id="b83E0aCVDLJbFd13GOJT-16" value="" style="shape=ellipse;fillColor=#ffffff;strokeColor=none;html=1" parent="b83E0aCVDLJbFd13GOJT-13" vertex="1">
          <mxGeometry x="0.5" y="0.5" width="4" height="4" relative="1" as="geometry">
            <mxPoint x="6" y="-2" as="offset" />
          </mxGeometry>
        </mxCell>
        <mxCell id="b83E0aCVDLJbFd13GOJT-17" value="Bush Fire 2" style="strokeColor=none;fillColor=none;fontSize=12;fontColor=#596780;align=left;html=1" parent="Ls9zx_w2HFz-K94AEwjX-1" vertex="1">
          <mxGeometry x="200" y="141" width="240" height="20" as="geometry" />
        </mxCell>
        <mxCell id="b83E0aCVDLJbFd13GOJT-20" value="15000" style="strokeColor=none;fillColor=none;fontSize=10;fontColor=#596780;align=right;html=1" parent="Ls9zx_w2HFz-K94AEwjX-1" vertex="1">
          <mxGeometry x="530" y="141" width="60" height="20" as="geometry" />
        </mxCell>
        <mxCell id="b83E0aCVDLJbFd13GOJT-21" value="5 minutes ago" style="strokeColor=none;fillColor=none;fontSize=12;fontColor=#596780;align=left;html=1" parent="Ls9zx_w2HFz-K94AEwjX-1" vertex="1">
          <mxGeometry x="620" y="139" width="50" height="20" as="geometry" />
        </mxCell>
        <mxCell id="b83E0aCVDLJbFd13GOJT-24" value="&amp;#8226;&amp;#8226;&amp;#8226;" style="shape=ellipse;fillColor=#0057D8;strokeColor=none;fontColor=#ffffff;align=center;verticalAlign=middle;whiteSpace=wrap;fontSize=10;fontStyle=0;html=1" parent="Ls9zx_w2HFz-K94AEwjX-1" vertex="1">
          <mxGeometry x="755" y="143" width="16" height="16" as="geometry" />
        </mxCell>
        <mxCell id="b83E0aCVDLJbFd13GOJT-25" value="Bush Fire 3" style="strokeColor=none;fillColor=none;fontSize=12;fontColor=#596780;align=left;html=1" parent="Ls9zx_w2HFz-K94AEwjX-1" vertex="1">
          <mxGeometry x="200" y="171" width="240" height="20" as="geometry" />
        </mxCell>
        <mxCell id="b83E0aCVDLJbFd13GOJT-29" value="5 minutes ago" style="strokeColor=none;fillColor=none;fontSize=12;fontColor=#596780;align=left;html=1" parent="Ls9zx_w2HFz-K94AEwjX-1" vertex="1">
          <mxGeometry x="620" y="169" width="50" height="20" as="geometry" />
        </mxCell>
        <mxCell id="b83E0aCVDLJbFd13GOJT-32" value="&amp;#8226;&amp;#8226;&amp;#8226;" style="shape=ellipse;fillColor=#0057D8;strokeColor=none;fontColor=#ffffff;align=center;verticalAlign=middle;whiteSpace=wrap;fontSize=10;fontStyle=0;html=1" parent="Ls9zx_w2HFz-K94AEwjX-1" vertex="1">
          <mxGeometry x="755" y="173" width="16" height="16" as="geometry" />
        </mxCell>
        <mxCell id="b83E0aCVDLJbFd13GOJT-37" value="25 minutes ago" style="strokeColor=none;fillColor=none;fontSize=12;fontColor=#596780;align=left;html=1" parent="Ls9zx_w2HFz-K94AEwjX-1" vertex="1">
          <mxGeometry x="620" y="199" width="50" height="20" as="geometry" />
        </mxCell>
        <mxCell id="b83E0aCVDLJbFd13GOJT-40" value="&amp;#8226;&amp;#8226;&amp;#8226;" style="shape=ellipse;fillColor=#0057D8;strokeColor=none;fontColor=#ffffff;align=center;verticalAlign=middle;whiteSpace=wrap;fontSize=10;fontStyle=0;html=1" parent="Ls9zx_w2HFz-K94AEwjX-1" vertex="1">
          <mxGeometry x="755" y="203" width="16" height="16" as="geometry" />
        </mxCell>
        <mxCell id="b83E0aCVDLJbFd13GOJT-45" value="29 minutes ago" style="strokeColor=none;fillColor=none;fontSize=12;fontColor=#596780;align=left;html=1" parent="Ls9zx_w2HFz-K94AEwjX-1" vertex="1">
          <mxGeometry x="620" y="229" width="50" height="20" as="geometry" />
        </mxCell>
        <mxCell id="b83E0aCVDLJbFd13GOJT-48" value="" style="html=1;shadow=0;dashed=0;shape=mxgraph.atlassian.checkbox;fillColor=#008465;strokeColor=none;fontColor=#ffffff;align=center;verticalAlign=middle;whiteSpace=wrap;fontSize=10;fontStyle=0;html=1" parent="Ls9zx_w2HFz-K94AEwjX-1" vertex="1">
          <mxGeometry x="755" y="233" width="16" height="16" as="geometry" />
        </mxCell>
        <mxCell id="b83E0aCVDLJbFd13GOJT-49" value="" style="shape=line;strokeWidth=2;html=1;strokeColor=#DFE1E5;resizeWidth=1;fillColor=#FFFFFF;" parent="Ls9zx_w2HFz-K94AEwjX-1" vertex="1">
          <mxGeometry x="200" y="259" width="630" height="10" as="geometry" />
        </mxCell>
        <mxCell id="b83E0aCVDLJbFd13GOJT-50" value="" style="rounded=1;fillColor=#ffffff;strokeColor=#DFE1E5;shadow=1;html=1;arcSize=4" parent="Ls9zx_w2HFz-K94AEwjX-1" vertex="1">
          <mxGeometry x="720" y="141" width="120" height="78" as="geometry" />
        </mxCell>
        <mxCell id="b83E0aCVDLJbFd13GOJT-51" value="Edit Bush Fire 1" style="rounded=0;fillColor=#F4F5F7;strokeColor=none;shadow=0;html=1;align=left;fontSize=12;spacingLeft=10;fontColor=#253858;resizeWidth=1" parent="b83E0aCVDLJbFd13GOJT-50" vertex="1">
          <mxGeometry width="119.99999999999999" height="33" relative="1" as="geometry">
            <mxPoint y="6" as="offset" />
          </mxGeometry>
        </mxCell>
        <mxCell id="b83E0aCVDLJbFd13GOJT-52" value="Delete Bush Fire1" style="rounded=0;fillColor=none;strokeColor=none;shadow=0;html=1;align=left;fontSize=12;spacingLeft=10;fontColor=#253858;resizeWidth=1" parent="b83E0aCVDLJbFd13GOJT-50" vertex="1">
          <mxGeometry width="119.99999999999999" height="33" relative="1" as="geometry">
            <mxPoint y="46" as="offset" />
          </mxGeometry>
        </mxCell>
        <mxCell id="yf-ShtoLysNrIO0WMa9Y-0" value="Disable Bush Fire 1" style="rounded=0;fillColor=#F4F5F7;strokeColor=none;shadow=0;html=1;align=left;fontSize=12;spacingLeft=10;fontColor=#253858;resizeWidth=1" parent="b83E0aCVDLJbFd13GOJT-50" vertex="1">
          <mxGeometry y="34" width="119.99999999999999" height="21" as="geometry" />
        </mxCell>
        <mxCell id="b83E0aCVDLJbFd13GOJT-53" value="Active" style="strokeColor=none;fillColor=#00CCCC;fontSize=11;fontColor=#596780;rounded=1;html=1" parent="Ls9zx_w2HFz-K94AEwjX-1" vertex="1">
          <mxGeometry x="270" y="139" width="65" height="20" as="geometry" />
        </mxCell>
        <mxCell id="b83E0aCVDLJbFd13GOJT-54" value="InActive" style="strokeColor=none;fillColor=#EDEEEF;fontSize=11;fontColor=#596780;rounded=1;html=1" parent="Ls9zx_w2HFz-K94AEwjX-1" vertex="1">
          <mxGeometry x="270" y="171" width="65" height="20" as="geometry" />
        </mxCell>
        <mxCell id="b83E0aCVDLJbFd13GOJT-56" value="Region A" style="strokeColor=none;fillColor=none;fontSize=12;fontColor=#596780;align=left;html=1" parent="Ls9zx_w2HFz-K94AEwjX-1" vertex="1">
          <mxGeometry x="350" y="110" width="50" height="20" as="geometry" />
        </mxCell>
        <mxCell id="b83E0aCVDLJbFd13GOJT-57" value="Region B" style="strokeColor=none;fillColor=none;fontSize=12;fontColor=#596780;align=left;html=1" parent="Ls9zx_w2HFz-K94AEwjX-1" vertex="1">
          <mxGeometry x="350" y="140" width="50" height="20" as="geometry" />
        </mxCell>
        <mxCell id="b83E0aCVDLJbFd13GOJT-58" value="Region C" style="strokeColor=none;fillColor=none;fontSize=12;fontColor=#596780;align=left;html=1" parent="Ls9zx_w2HFz-K94AEwjX-1" vertex="1">
          <mxGeometry x="350" y="169" width="50" height="20" as="geometry" />
        </mxCell>
        <mxCell id="b83E0aCVDLJbFd13GOJT-59" value="Bush Fire 4" style="strokeColor=none;fillColor=none;fontSize=12;fontColor=#596780;align=left;html=1" parent="Ls9zx_w2HFz-K94AEwjX-1" vertex="1">
          <mxGeometry x="200" y="201" width="240" height="20" as="geometry" />
        </mxCell>
        <mxCell id="b83E0aCVDLJbFd13GOJT-60" value="Bush Fire 5" style="strokeColor=none;fillColor=none;fontSize=12;fontColor=#596780;align=left;html=1" parent="Ls9zx_w2HFz-K94AEwjX-1" vertex="1">
          <mxGeometry x="200" y="231" width="240" height="20" as="geometry" />
        </mxCell>
        <mxCell id="b83E0aCVDLJbFd13GOJT-61" value="Active" style="strokeColor=none;fillColor=#00CCCC;fontSize=11;fontColor=#596780;rounded=1;html=1" parent="Ls9zx_w2HFz-K94AEwjX-1" vertex="1">
          <mxGeometry x="270" y="201" width="65" height="20" as="geometry" />
        </mxCell>
        <mxCell id="b83E0aCVDLJbFd13GOJT-62" value="InActive" style="strokeColor=none;fillColor=#EDEEEF;fontSize=11;fontColor=#596780;rounded=1;html=1" parent="Ls9zx_w2HFz-K94AEwjX-1" vertex="1">
          <mxGeometry x="270" y="233" width="65" height="20" as="geometry" />
        </mxCell>
        <mxCell id="b83E0aCVDLJbFd13GOJT-63" value="Region B" style="strokeColor=none;fillColor=none;fontSize=12;fontColor=#596780;align=left;html=1" parent="Ls9zx_w2HFz-K94AEwjX-1" vertex="1">
          <mxGeometry x="350" y="199" width="50" height="20" as="geometry" />
        </mxCell>
        <mxCell id="b83E0aCVDLJbFd13GOJT-64" value="Region A" style="strokeColor=none;fillColor=none;fontSize=12;fontColor=#596780;align=left;html=1" parent="Ls9zx_w2HFz-K94AEwjX-1" vertex="1">
          <mxGeometry x="350" y="231" width="50" height="20" as="geometry" />
        </mxCell>
        <mxCell id="b83E0aCVDLJbFd13GOJT-69" value="500" style="strokeColor=none;fillColor=none;fontSize=10;fontColor=#596780;align=right;html=1" parent="Ls9zx_w2HFz-K94AEwjX-1" vertex="1">
          <mxGeometry x="540" y="170" width="50" height="20" as="geometry" />
        </mxCell>
        <mxCell id="b83E0aCVDLJbFd13GOJT-70" value="10000" style="strokeColor=none;fillColor=none;fontSize=10;fontColor=#596780;align=right;html=1" parent="Ls9zx_w2HFz-K94AEwjX-1" vertex="1">
          <mxGeometry x="540" y="113" width="50" height="20" as="geometry" />
        </mxCell>
        <mxCell id="b83E0aCVDLJbFd13GOJT-75" value="Postal codes" style="html=1;fillColor=none;strokeColor=none;fontSize=11;align=right;fontColor=#596780;whiteSpace=wrap;fontStyle=1" parent="Ls9zx_w2HFz-K94AEwjX-1" vertex="1">
          <mxGeometry x="400" y="80" width="60" height="20" as="geometry" />
        </mxCell>
        <mxCell id="b83E0aCVDLJbFd13GOJT-76" value="60641" style="strokeColor=none;fillColor=none;fontSize=12;fontColor=#596780;align=left;html=1" parent="Ls9zx_w2HFz-K94AEwjX-1" vertex="1">
          <mxGeometry x="429" y="108" width="50" height="20" as="geometry" />
        </mxCell>
        <mxCell id="b83E0aCVDLJbFd13GOJT-77" value="60016" style="strokeColor=none;fillColor=none;fontSize=12;fontColor=#596780;align=left;html=1" parent="Ls9zx_w2HFz-K94AEwjX-1" vertex="1">
          <mxGeometry x="429" y="138" width="50" height="20" as="geometry" />
        </mxCell>
        <mxCell id="b83E0aCVDLJbFd13GOJT-78" value="60616, &lt;br&gt;60615" style="strokeColor=none;fillColor=none;fontSize=12;fontColor=#596780;align=left;html=1" parent="Ls9zx_w2HFz-K94AEwjX-1" vertex="1">
          <mxGeometry x="429" y="167" width="50" height="20" as="geometry" />
        </mxCell>
        <mxCell id="b83E0aCVDLJbFd13GOJT-79" value="60630" style="strokeColor=none;fillColor=none;fontSize=12;fontColor=#596780;align=left;html=1" parent="Ls9zx_w2HFz-K94AEwjX-1" vertex="1">
          <mxGeometry x="429" y="197" width="50" height="20" as="geometry" />
        </mxCell>
        <mxCell id="b83E0aCVDLJbFd13GOJT-80" value="60762" style="strokeColor=none;fillColor=none;fontSize=12;fontColor=#596780;align=left;html=1" parent="Ls9zx_w2HFz-K94AEwjX-1" vertex="1">
          <mxGeometry x="429" y="229" width="50" height="20" as="geometry" />
        </mxCell>
        <mxCell id="XOohm6BAOXvW7-VxbB7--0" value="Add New Campaign" style="rounded=0;whiteSpace=wrap;html=1;fillColor=#00FF00;" parent="Ls9zx_w2HFz-K94AEwjX-1" vertex="1">
          <mxGeometry x="700" y="50" width="120" height="20" as="geometry" />
        </mxCell>
        <mxCell id="OtJ3j2cGYKmAKskK0xnt-0" value="500" style="strokeColor=none;fillColor=none;fontSize=10;fontColor=#596780;align=right;html=1" parent="Ls9zx_w2HFz-K94AEwjX-1" vertex="1">
          <mxGeometry x="540" y="197" width="50" height="20" as="geometry" />
        </mxCell>
        <mxCell id="OtJ3j2cGYKmAKskK0xnt-1" value="500" style="strokeColor=none;fillColor=none;fontSize=10;fontColor=#596780;align=right;html=1" parent="Ls9zx_w2HFz-K94AEwjX-1" vertex="1">
          <mxGeometry x="540" y="229" width="50" height="20" as="geometry" />
        </mxCell>
        <mxCell id="OtJ3j2cGYKmAKskK0xnt-3" value="Start Date" style="html=1;fillColor=none;strokeColor=none;fontSize=11;align=right;fontColor=#596780;whiteSpace=wrap;fontStyle=1" parent="Ls9zx_w2HFz-K94AEwjX-1" vertex="1">
          <mxGeometry x="470" y="80" width="60" height="20" as="geometry" />
        </mxCell>
        <mxCell id="OtJ3j2cGYKmAKskK0xnt-5" value="05/10/2021" style="strokeColor=none;fillColor=none;fontSize=12;fontColor=#596780;align=left;html=1" parent="Ls9zx_w2HFz-K94AEwjX-1" vertex="1">
          <mxGeometry x="481" y="110" width="50" height="20" as="geometry" />
        </mxCell>
        <mxCell id="OtJ3j2cGYKmAKskK0xnt-6" value="05/10/2021" style="strokeColor=none;fillColor=none;fontSize=12;fontColor=#596780;align=left;html=1" parent="Ls9zx_w2HFz-K94AEwjX-1" vertex="1">
          <mxGeometry x="481" y="138" width="50" height="20" as="geometry" />
        </mxCell>
        <mxCell id="OtJ3j2cGYKmAKskK0xnt-7" value="05/10/2021" style="strokeColor=none;fillColor=none;fontSize=12;fontColor=#596780;align=left;html=1" parent="Ls9zx_w2HFz-K94AEwjX-1" vertex="1">
          <mxGeometry x="482" y="167" width="50" height="20" as="geometry" />
        </mxCell>
        <mxCell id="OtJ3j2cGYKmAKskK0xnt-8" value="05/10/2021" style="strokeColor=none;fillColor=none;fontSize=12;fontColor=#596780;align=left;html=1" parent="Ls9zx_w2HFz-K94AEwjX-1" vertex="1">
          <mxGeometry x="481" y="197" width="50" height="20" as="geometry" />
        </mxCell>
        <mxCell id="OtJ3j2cGYKmAKskK0xnt-9" value="05/10/2021" style="strokeColor=none;fillColor=none;fontSize=12;fontColor=#596780;align=left;html=1" parent="Ls9zx_w2HFz-K94AEwjX-1" vertex="1">
          <mxGeometry x="481" y="229" width="50" height="20" as="geometry" />
        </mxCell>
        <mxCell id="bPLk3HDjyhZAMbtqX_94-0" value="Regions" style="fillColor=none;strokeColor=none;fontSize=14;fontColor=#0085FC;align=left;spacing=10;" parent="Ls9zx_w2HFz-K94AEwjX-1" vertex="1">
          <mxGeometry x="70" y="67" width="80" height="30" as="geometry" />
        </mxCell>
        <mxCell id="bPLk3HDjyhZAMbtqX_94-2" value="Campaigns" style="fillColor=none;strokeColor=none;fontSize=14;fontColor=#0085FC;align=left;spacing=10;" parent="Ls9zx_w2HFz-K94AEwjX-1" vertex="1">
          <mxGeometry x="70" y="131" width="80" height="30" as="geometry" />
        </mxCell>
        <mxCell id="VUe7d4iffXdZV15Ejt7_-0" value="&lt;b&gt;Campaigns&lt;/b&gt;" style="text;html=1;strokeColor=none;fillColor=none;align=center;verticalAlign=middle;whiteSpace=wrap;rounded=0;" parent="Ls9zx_w2HFz-K94AEwjX-1" vertex="1">
          <mxGeometry x="180" y="40" width="110" height="40" as="geometry" />
        </mxCell>
        <mxCell id="yf-ShtoLysNrIO0WMa9Y-2" value="Creatives" style="fillColor=none;strokeColor=none;fontSize=14;fontColor=#0085FC;align=left;spacing=10;" parent="Ls9zx_w2HFz-K94AEwjX-1" vertex="1">
          <mxGeometry x="70" y="97" width="80" height="30" as="geometry" />
        </mxCell>
        <mxCell id="yf-ShtoLysNrIO0WMa9Y-3" value="Messaging&#xa;Rules" style="fillColor=none;strokeColor=none;fontSize=14;fontColor=#0085FC;align=left;spacing=10;" parent="Ls9zx_w2HFz-K94AEwjX-1" vertex="1">
          <mxGeometry x="70" y="165" width="80" height="30" as="geometry" />
        </mxCell>
      </root>
    </mxGraphModel>
  </diagram>
  <diagram id="bcga16flqrvXqjz4MfXA" name="Campaign_SetUp">
    <mxGraphModel dx="1278" dy="548" grid="1" gridSize="10" guides="1" tooltips="1" connect="1" arrows="1" fold="1" page="1" pageScale="1" pageWidth="850" pageHeight="1100" math="0" shadow="0">
      <root>
        <mxCell id="e3KC1v_-6eJVZM9ja5iy-0" />
        <mxCell id="e3KC1v_-6eJVZM9ja5iy-1" parent="e3KC1v_-6eJVZM9ja5iy-0" />
        <mxCell id="e3KC1v_-6eJVZM9ja5iy-2" value="" style="rounded=0;whiteSpace=wrap;html=1;" parent="e3KC1v_-6eJVZM9ja5iy-1" vertex="1">
          <mxGeometry x="50" y="60" width="750" height="420" as="geometry" />
        </mxCell>
        <mxCell id="e3KC1v_-6eJVZM9ja5iy-3" value="" style="rounded=0;whiteSpace=wrap;html=1;" parent="e3KC1v_-6eJVZM9ja5iy-1" vertex="1">
          <mxGeometry x="70" y="80" width="100" height="370" as="geometry" />
        </mxCell>
        <mxCell id="e3KC1v_-6eJVZM9ja5iy-4" value="" style="rounded=0;whiteSpace=wrap;html=1;" parent="e3KC1v_-6eJVZM9ja5iy-1" vertex="1">
          <mxGeometry x="190" y="80" width="590" height="370" as="geometry" />
        </mxCell>
        <mxCell id="e3KC1v_-6eJVZM9ja5iy-5" value="Add campaign name" style="rounded=0;whiteSpace=wrap;html=1;" parent="e3KC1v_-6eJVZM9ja5iy-1" vertex="1">
          <mxGeometry x="350" y="110" width="120" height="20" as="geometry" />
        </mxCell>
        <mxCell id="e3KC1v_-6eJVZM9ja5iy-8" value="Campaign Name:" style="text;html=1;strokeColor=none;fillColor=none;align=center;verticalAlign=middle;whiteSpace=wrap;rounded=0;" parent="e3KC1v_-6eJVZM9ja5iy-1" vertex="1">
          <mxGeometry x="220" y="100" width="110" height="40" as="geometry" />
        </mxCell>
        <mxCell id="e3KC1v_-6eJVZM9ja5iy-10" value="Region" style="text;html=1;strokeColor=none;fillColor=none;align=center;verticalAlign=middle;whiteSpace=wrap;rounded=0;" parent="e3KC1v_-6eJVZM9ja5iy-1" vertex="1">
          <mxGeometry x="220" y="140" width="110" height="40" as="geometry" />
        </mxCell>
        <mxCell id="e3KC1v_-6eJVZM9ja5iy-13" value="" style="html=1;shadow=0;dashed=0;shape=mxgraph.bootstrap.rrect;rSize=5;fillColor=#ffffff;strokeColor=#999999;" parent="e3KC1v_-6eJVZM9ja5iy-1" vertex="1">
          <mxGeometry x="350" y="170" width="170" height="62" as="geometry" />
        </mxCell>
        <mxCell id="e3KC1v_-6eJVZM9ja5iy-14" value="Region A" style="fillColor=none;strokeColor=none;align=left;spacing=20;fontSize=14;" parent="e3KC1v_-6eJVZM9ja5iy-13" vertex="1">
          <mxGeometry width="170" height="20" relative="1" as="geometry">
            <mxPoint y="2" as="offset" />
          </mxGeometry>
        </mxCell>
        <mxCell id="e3KC1v_-6eJVZM9ja5iy-15" value="Region B" style="fillColor=none;strokeColor=none;align=left;spacing=20;fontSize=14;" parent="e3KC1v_-6eJVZM9ja5iy-13" vertex="1">
          <mxGeometry width="170" height="20" relative="1" as="geometry">
            <mxPoint y="23" as="offset" />
          </mxGeometry>
        </mxCell>
        <mxCell id="e3KC1v_-6eJVZM9ja5iy-16" value="Region C" style="fillColor=none;strokeColor=none;align=left;spacing=20;fontSize=14;" parent="e3KC1v_-6eJVZM9ja5iy-13" vertex="1">
          <mxGeometry width="170" relative="1" as="geometry">
            <mxPoint y="53" as="offset" />
          </mxGeometry>
        </mxCell>
        <mxCell id="e3KC1v_-6eJVZM9ja5iy-11" value="Select Region" style="html=1;shadow=0;dashed=0;shape=mxgraph.bootstrap.rrect;rSize=5;strokeColor=none;strokeWidth=1;fillColor=#FFBC26;fontColor=#000000;whiteSpace=wrap;align=left;verticalAlign=middle;fontStyle=0;fontSize=14;spacingLeft=10;" parent="e3KC1v_-6eJVZM9ja5iy-1" vertex="1">
          <mxGeometry x="350" y="150" width="140" height="20" as="geometry" />
        </mxCell>
        <mxCell id="e3KC1v_-6eJVZM9ja5iy-12" value="" style="shape=triangle;direction=south;fillColor=#000000;strokeColor=none;perimeter=none;" parent="e3KC1v_-6eJVZM9ja5iy-11" vertex="1">
          <mxGeometry x="1" y="0.5" width="10" height="5" relative="1" as="geometry">
            <mxPoint x="-17" y="-2.5" as="offset" />
          </mxGeometry>
        </mxCell>
        <mxCell id="e3KC1v_-6eJVZM9ja5iy-23" value="PostalCodes" style="text;html=1;strokeColor=none;fillColor=none;align=center;verticalAlign=middle;whiteSpace=wrap;rounded=0;" parent="e3KC1v_-6eJVZM9ja5iy-1" vertex="1">
          <mxGeometry x="230" y="235" width="110" height="40" as="geometry" />
        </mxCell>
        <mxCell id="e3KC1v_-6eJVZM9ja5iy-24" value="Add Postal Codes" style="rounded=0;whiteSpace=wrap;html=1;" parent="e3KC1v_-6eJVZM9ja5iy-1" vertex="1">
          <mxGeometry x="350" y="245" width="120" height="20" as="geometry" />
        </mxCell>
        <mxCell id="e3KC1v_-6eJVZM9ja5iy-25" value="Geo coordinates" style="text;html=1;strokeColor=none;fillColor=none;align=center;verticalAlign=middle;whiteSpace=wrap;rounded=0;" parent="e3KC1v_-6eJVZM9ja5iy-1" vertex="1">
          <mxGeometry x="230" y="265" width="110" height="40" as="geometry" />
        </mxCell>
        <mxCell id="e3KC1v_-6eJVZM9ja5iy-26" value="Add Lat/long" style="rounded=0;whiteSpace=wrap;html=1;" parent="e3KC1v_-6eJVZM9ja5iy-1" vertex="1">
          <mxGeometry x="350" y="275" width="120" height="20" as="geometry" />
        </mxCell>
        <mxCell id="e3KC1v_-6eJVZM9ja5iy-27" value="Submit" style="rounded=0;whiteSpace=wrap;html=1;fillColor=#00FF00;" parent="e3KC1v_-6eJVZM9ja5iy-1" vertex="1">
          <mxGeometry x="350" y="400" width="120" height="20" as="geometry" />
        </mxCell>
        <mxCell id="pcOLIYE48RebKYUz7_bp-0" value="Start Date" style="text;html=1;strokeColor=none;fillColor=none;align=center;verticalAlign=middle;whiteSpace=wrap;rounded=0;" parent="e3KC1v_-6eJVZM9ja5iy-1" vertex="1">
          <mxGeometry x="230" y="295" width="110" height="40" as="geometry" />
        </mxCell>
        <mxCell id="pcOLIYE48RebKYUz7_bp-1" value="Select Start Date" style="rounded=0;whiteSpace=wrap;html=1;" parent="e3KC1v_-6eJVZM9ja5iy-1" vertex="1">
          <mxGeometry x="350" y="305" width="120" height="20" as="geometry" />
        </mxCell>
        <mxCell id="pcOLIYE48RebKYUz7_bp-2" value="End Date" style="text;html=1;strokeColor=none;fillColor=none;align=center;verticalAlign=middle;whiteSpace=wrap;rounded=0;" parent="e3KC1v_-6eJVZM9ja5iy-1" vertex="1">
          <mxGeometry x="230" y="325" width="110" height="40" as="geometry" />
        </mxCell>
        <mxCell id="pcOLIYE48RebKYUz7_bp-3" value="Select End Date" style="rounded=0;whiteSpace=wrap;html=1;" parent="e3KC1v_-6eJVZM9ja5iy-1" vertex="1">
          <mxGeometry x="350" y="335" width="120" height="20" as="geometry" />
        </mxCell>
        <mxCell id="vnNxiyJuUuZsED8guYVJ-0" value="&lt;b&gt;Add Campaign&lt;/b&gt;" style="text;html=1;strokeColor=none;fillColor=none;align=center;verticalAlign=middle;whiteSpace=wrap;rounded=0;" parent="e3KC1v_-6eJVZM9ja5iy-1" vertex="1">
          <mxGeometry x="220" y="70" width="110" height="40" as="geometry" />
        </mxCell>
        <mxCell id="KCGEju8wt2LIyJn9_jE2-0" value="&lt;span&gt;On Region select, all available Ad creatives for that Region will be shown to the user. The client can override ads for that Region for this campaign&lt;/span&gt;" style="rounded=0;whiteSpace=wrap;html=1;fillColor=#99FFFF;" parent="e3KC1v_-6eJVZM9ja5iy-1" vertex="1">
          <mxGeometry x="550" y="150" width="180" height="80" as="geometry" />
        </mxCell>
        <mxCell id="warfqWf2BCCv3BRBKuzk-0" value="Regions" style="fillColor=none;strokeColor=none;fontSize=14;fontColor=#0085FC;align=left;spacing=10;" parent="e3KC1v_-6eJVZM9ja5iy-1" vertex="1">
          <mxGeometry x="80" y="90" width="80" height="30" as="geometry" />
        </mxCell>
        <mxCell id="warfqWf2BCCv3BRBKuzk-1" value="Campaigns" style="fillColor=none;strokeColor=none;fontSize=14;fontColor=#0085FC;align=left;spacing=10;" parent="e3KC1v_-6eJVZM9ja5iy-1" vertex="1">
          <mxGeometry x="80" y="154" width="80" height="30" as="geometry" />
        </mxCell>
        <mxCell id="warfqWf2BCCv3BRBKuzk-2" value="Creatives" style="fillColor=none;strokeColor=none;fontSize=14;fontColor=#0085FC;align=left;spacing=10;" parent="e3KC1v_-6eJVZM9ja5iy-1" vertex="1">
          <mxGeometry x="80" y="120" width="80" height="30" as="geometry" />
        </mxCell>
        <mxCell id="warfqWf2BCCv3BRBKuzk-3" value="Messaging&#xa;Rules" style="fillColor=none;strokeColor=none;fontSize=14;fontColor=#0085FC;align=left;spacing=10;" parent="e3KC1v_-6eJVZM9ja5iy-1" vertex="1">
          <mxGeometry x="80" y="188" width="80" height="30" as="geometry" />
        </mxCell>
        <mxCell id="1Jewb5P_ewQKA_xKKCfM-0" value="IsActive" style="text;html=1;strokeColor=none;fillColor=none;align=center;verticalAlign=middle;whiteSpace=wrap;rounded=0;" parent="e3KC1v_-6eJVZM9ja5iy-1" vertex="1">
          <mxGeometry x="230" y="355" width="110" height="40" as="geometry" />
        </mxCell>
        <mxCell id="1Jewb5P_ewQKA_xKKCfM-1" value="Yes/No" style="rounded=0;whiteSpace=wrap;html=1;" parent="e3KC1v_-6eJVZM9ja5iy-1" vertex="1">
          <mxGeometry x="350" y="365" width="120" height="20" as="geometry" />
        </mxCell>
      </root>
    </mxGraphModel>
  </diagram>
  <diagram id="XAcpyTb5l1ZAWG7jQ3lX" name="MessagingRules_SetUp">
    <mxGraphModel dx="1293" dy="548" grid="1" gridSize="10" guides="1" tooltips="1" connect="1" arrows="1" fold="1" page="1" pageScale="1" pageWidth="850" pageHeight="1100" math="0" shadow="0">
      <root>
        <mxCell id="f-dUaQXnFNoJPyk0cG8k-0" />
        <mxCell id="f-dUaQXnFNoJPyk0cG8k-1" parent="f-dUaQXnFNoJPyk0cG8k-0" />
        <mxCell id="wl7E3WzoopEQX4ucMmeV-0" value="" style="rounded=0;whiteSpace=wrap;html=1;" vertex="1" parent="f-dUaQXnFNoJPyk0cG8k-1">
          <mxGeometry x="50" y="60" width="750" height="420" as="geometry" />
        </mxCell>
        <mxCell id="wl7E3WzoopEQX4ucMmeV-1" value="&lt;span style=&quot;color: rgba(0 , 0 , 0 , 0) ; font-family: monospace ; font-size: 0px&quot;&gt;%3CmxGraphModel%3E%3Croot%3E%3CmxCell%20id%3D%220%22%2F%3E%3CmxCell%20id%3D%221%22%20parent%3D%220%22%2F%3E%3CmxCell%20id%3D%222%22%20value%3D%22Regions%22%20style%3D%22fillColor%3Dnone%3BstrokeColor%3Dnone%3BfontSize%3D14%3BfontColor%3D%230085FC%3Balign%3Dleft%3Bspacing%3D10%3B%22%20vertex%3D%221%22%20parent%3D%221%22%3E%3CmxGeometry%20x%3D%2270%22%20y%3D%2267%22%20width%3D%2280%22%20height%3D%2230%22%20as%3D%22geometry%22%2F%3E%3C%2FmxCell%3E%3CmxCell%20id%3D%223%22%20value%3D%22Campaigns%22%20style%3D%22fillColor%3Dnone%3BstrokeColor%3Dnone%3BfontSize%3D14%3BfontColor%3D%230085FC%3Balign%3Dleft%3Bspacing%3D10%3B%22%20vertex%3D%221%22%20parent%3D%221%22%3E%3CmxGeometry%20x%3D%2270%22%20y%3D%22131%22%20width%3D%2280%22%20height%3D%2230%22%20as%3D%22geometry%22%2F%3E%3C%2FmxCell%3E%3CmxCell%20id%3D%224%22%20value%3D%22Creatives%22%20style%3D%22fillColor%3Dnone%3BstrokeColor%3Dnone%3BfontSize%3D14%3BfontColor%3D%230085FC%3Balign%3Dleft%3Bspacing%3D10%3B%22%20vertex%3D%221%22%20parent%3D%221%22%3E%3CmxGeometry%20x%3D%2270%22%20y%3D%2297%22%20width%3D%2280%22%20height%3D%2230%22%20as%3D%22geometry%22%2F%3E%3C%2FmxCell%3E%3CmxCell%20id%3D%225%22%20value%3D%22Messaging%26%2310%3BRules%22%20style%3D%22fillColor%3Dnone%3BstrokeColor%3Dnone%3BfontSize%3D14%3BfontColor%3D%230085FC%3Balign%3Dleft%3Bspacing%3D10%3B%22%20vertex%3D%221%22%20parent%3D%221%22%3E%3CmxGeometry%20x%3D%2270%22%20y%3D%22165%22%20width%3D%2280%22%20height%3D%2230%22%20as%3D%22geometry%22%2F%3E%3C%2FmxCell%3E%3C%2Froot%3E%3C%2FmxGraphModel%3E&lt;/span&gt;" style="rounded=0;whiteSpace=wrap;html=1;" vertex="1" parent="f-dUaQXnFNoJPyk0cG8k-1">
          <mxGeometry x="70" y="80" width="100" height="370" as="geometry" />
        </mxCell>
        <mxCell id="wl7E3WzoopEQX4ucMmeV-2" value="" style="rounded=0;whiteSpace=wrap;html=1;" vertex="1" parent="f-dUaQXnFNoJPyk0cG8k-1">
          <mxGeometry x="190" y="76" width="590" height="370" as="geometry" />
        </mxCell>
        <mxCell id="lzopPMXDBelmZDiPhFmK-0" value="Regions" style="fillColor=none;strokeColor=none;fontSize=14;fontColor=#0085FC;align=left;spacing=10;" vertex="1" parent="f-dUaQXnFNoJPyk0cG8k-1">
          <mxGeometry x="80" y="90" width="80" height="30" as="geometry" />
        </mxCell>
        <mxCell id="lzopPMXDBelmZDiPhFmK-1" value="Campaigns" style="fillColor=none;strokeColor=none;fontSize=14;fontColor=#0085FC;align=left;spacing=10;" vertex="1" parent="f-dUaQXnFNoJPyk0cG8k-1">
          <mxGeometry x="80" y="154" width="80" height="30" as="geometry" />
        </mxCell>
        <mxCell id="lzopPMXDBelmZDiPhFmK-2" value="Creatives" style="fillColor=none;strokeColor=none;fontSize=14;fontColor=#0085FC;align=left;spacing=10;" vertex="1" parent="f-dUaQXnFNoJPyk0cG8k-1">
          <mxGeometry x="80" y="120" width="80" height="30" as="geometry" />
        </mxCell>
        <mxCell id="lzopPMXDBelmZDiPhFmK-3" value="Messaging&#xa;Rules" style="fillColor=none;strokeColor=none;fontSize=14;fontColor=#0085FC;align=left;spacing=10;" vertex="1" parent="f-dUaQXnFNoJPyk0cG8k-1">
          <mxGeometry x="80" y="188" width="80" height="30" as="geometry" />
        </mxCell>
        <mxCell id="NoMy5Ajh7_hj4k9OvdFJ-0" value="Create Simple Messaging Rules:" style="fillColor=none;strokeColor=none;fontSize=14;fontColor=#0085FC;align=left;spacing=10;" vertex="1" parent="f-dUaQXnFNoJPyk0cG8k-1">
          <mxGeometry x="207" y="90" width="80" height="30" as="geometry" />
        </mxCell>
        <mxCell id="aKpnkyNH8P7iJeheW4p0-0" value="Region Name" style="html=1;fillColor=none;strokeColor=none;fontSize=11;align=left;fontColor=#596780;whiteSpace=wrap" vertex="1" parent="f-dUaQXnFNoJPyk0cG8k-1">
          <mxGeometry x="214" y="130" width="100" height="20" as="geometry" />
        </mxCell>
        <mxCell id="aKpnkyNH8P7iJeheW4p0-3" value="Ad Creative" style="html=1;fillColor=none;strokeColor=none;fontSize=11;align=left;fontColor=#596780;whiteSpace=wrap" vertex="1" parent="f-dUaQXnFNoJPyk0cG8k-1">
          <mxGeometry x="580" y="130" width="90" height="20" as="geometry" />
        </mxCell>
        <mxCell id="aKpnkyNH8P7iJeheW4p0-5" value="Action" style="html=1;fillColor=none;strokeColor=none;fontSize=11;align=center;fontColor=#596780;whiteSpace=wrap" vertex="1" parent="f-dUaQXnFNoJPyk0cG8k-1">
          <mxGeometry x="710" y="130" width="40" height="20" as="geometry" />
        </mxCell>
        <mxCell id="aKpnkyNH8P7iJeheW4p0-6" value="" style="shape=line;strokeWidth=2;html=1;strokeColor=#DFE1E5;resizeWidth=1;fillColor=#99FFFF;" vertex="1" parent="f-dUaQXnFNoJPyk0cG8k-1">
          <mxGeometry x="210" y="150" width="560" height="10" as="geometry" />
        </mxCell>
        <mxCell id="aKpnkyNH8P7iJeheW4p0-7" value="" style="strokeColor=none;fillColor=#FAFBFC;html=1" vertex="1" parent="f-dUaQXnFNoJPyk0cG8k-1">
          <mxGeometry x="210" y="156" width="560" height="30" as="geometry" />
        </mxCell>
        <mxCell id="aKpnkyNH8P7iJeheW4p0-9" value="Select Region" style="strokeColor=none;fillColor=#EDEEEF;fontSize=11;fontColor=#596780;rounded=1;html=1" vertex="1" parent="f-dUaQXnFNoJPyk0cG8k-1">
          <mxGeometry x="210" y="163" width="77" height="20" as="geometry" />
        </mxCell>
        <mxCell id="aKpnkyNH8P7iJeheW4p0-12" value="" style="rounded=1;arcSize=23;fillColor=#42526E;strokeColor=none;direction=south;" vertex="1" parent="f-dUaQXnFNoJPyk0cG8k-1">
          <mxGeometry x="710" y="158.5" width="24" height="21" as="geometry" />
        </mxCell>
        <mxCell id="aKpnkyNH8P7iJeheW4p0-13" value="" style="shape=ellipse;fillColor=#ffffff;strokeColor=none;html=1" vertex="1" parent="aKpnkyNH8P7iJeheW4p0-12">
          <mxGeometry x="0.5" y="0.5" width="4" height="4" relative="1" as="geometry">
            <mxPoint x="-10" y="-2" as="offset" />
          </mxGeometry>
        </mxCell>
        <mxCell id="aKpnkyNH8P7iJeheW4p0-14" value="" style="shape=ellipse;fillColor=#ffffff;strokeColor=none;html=1" vertex="1" parent="aKpnkyNH8P7iJeheW4p0-12">
          <mxGeometry x="0.5" y="0.5" width="4" height="4" relative="1" as="geometry">
            <mxPoint x="-2" y="-2" as="offset" />
          </mxGeometry>
        </mxCell>
        <mxCell id="aKpnkyNH8P7iJeheW4p0-15" value="" style="shape=ellipse;fillColor=#ffffff;strokeColor=none;html=1" vertex="1" parent="aKpnkyNH8P7iJeheW4p0-12">
          <mxGeometry x="0.5" y="0.5" width="4" height="4" relative="1" as="geometry">
            <mxPoint x="6" y="-2" as="offset" />
          </mxGeometry>
        </mxCell>
        <mxCell id="aKpnkyNH8P7iJeheW4p0-48" value="" style="shape=line;strokeWidth=2;html=1;strokeColor=#DFE1E5;resizeWidth=1;fillColor=#99FFFF;" vertex="1" parent="f-dUaQXnFNoJPyk0cG8k-1">
          <mxGeometry x="212" y="273" width="558" height="10" as="geometry" />
        </mxCell>
        <mxCell id="aKpnkyNH8P7iJeheW4p0-49" value="" style="rounded=1;fillColor=#ffffff;strokeColor=#DFE1E5;shadow=1;html=1;arcSize=4" vertex="1" parent="f-dUaQXnFNoJPyk0cG8k-1">
          <mxGeometry x="660" y="170" width="110" height="78" as="geometry" />
        </mxCell>
        <mxCell id="aKpnkyNH8P7iJeheW4p0-50" value="Edit Rule" style="rounded=0;fillColor=#F4F5F7;strokeColor=none;shadow=0;html=1;align=left;fontSize=12;spacingLeft=10;fontColor=#253858;resizeWidth=1" vertex="1" parent="aKpnkyNH8P7iJeheW4p0-49">
          <mxGeometry width="110" height="33" relative="1" as="geometry">
            <mxPoint y="6" as="offset" />
          </mxGeometry>
        </mxCell>
        <mxCell id="aKpnkyNH8P7iJeheW4p0-51" value="Delete Rule" style="rounded=0;fillColor=none;strokeColor=none;shadow=0;html=1;align=left;fontSize=12;spacingLeft=10;fontColor=#253858;resizeWidth=1" vertex="1" parent="aKpnkyNH8P7iJeheW4p0-49">
          <mxGeometry width="110" height="33" relative="1" as="geometry">
            <mxPoint y="39" as="offset" />
          </mxGeometry>
        </mxCell>
        <mxCell id="aKpnkyNH8P7iJeheW4p0-55" value="Ratings" style="html=1;shadow=0;dashed=0;shape=mxgraph.bootstrap.rrect;rSize=5;strokeColor=none;strokeWidth=1;fillColor=#33A64C;fontColor=#ffffff;whiteSpace=wrap;align=left;verticalAlign=middle;fontStyle=0;fontSize=14;spacingLeft=10;" vertex="1" parent="f-dUaQXnFNoJPyk0cG8k-1">
          <mxGeometry x="297.5" y="154" width="85" height="16" as="geometry" />
        </mxCell>
        <mxCell id="aKpnkyNH8P7iJeheW4p0-56" value="" style="shape=triangle;direction=south;fillColor=#ffffff;strokeColor=none;perimeter=none;" vertex="1" parent="aKpnkyNH8P7iJeheW4p0-55">
          <mxGeometry x="1" y="0.5" width="10" height="5" relative="1" as="geometry">
            <mxPoint x="-17" y="-2.5" as="offset" />
          </mxGeometry>
        </mxCell>
        <mxCell id="aKpnkyNH8P7iJeheW4p0-57" value="" style="html=1;shadow=0;dashed=0;shape=mxgraph.bootstrap.rrect;rSize=5;fillColor=#ffffff;strokeColor=#999999;" vertex="1" parent="f-dUaQXnFNoJPyk0cG8k-1">
          <mxGeometry x="300" y="170" width="100" height="80" as="geometry" />
        </mxCell>
        <mxCell id="aKpnkyNH8P7iJeheW4p0-58" value="High" style="fillColor=none;strokeColor=none;align=left;spacing=20;fontSize=14;" vertex="1" parent="aKpnkyNH8P7iJeheW4p0-57">
          <mxGeometry width="130" height="30" relative="1" as="geometry">
            <mxPoint y="-3" as="offset" />
          </mxGeometry>
        </mxCell>
        <mxCell id="aKpnkyNH8P7iJeheW4p0-59" value="Medium" style="fillColor=none;strokeColor=none;align=left;spacing=20;fontSize=14;" vertex="1" parent="aKpnkyNH8P7iJeheW4p0-57">
          <mxGeometry width="80" height="30" relative="1" as="geometry">
            <mxPoint y="23" as="offset" />
          </mxGeometry>
        </mxCell>
        <mxCell id="aKpnkyNH8P7iJeheW4p0-60" value="Low" style="fillColor=none;strokeColor=none;align=left;spacing=20;fontSize=14;" vertex="1" parent="aKpnkyNH8P7iJeheW4p0-57">
          <mxGeometry width="170" height="30" relative="1" as="geometry">
            <mxPoint y="48" as="offset" />
          </mxGeometry>
        </mxCell>
        <mxCell id="aKpnkyNH8P7iJeheW4p0-64" value="Ratings" style="html=1;shadow=0;dashed=0;shape=mxgraph.bootstrap.rrect;rSize=5;strokeColor=none;strokeWidth=1;fillColor=#33A64C;fontColor=#ffffff;whiteSpace=wrap;align=left;verticalAlign=middle;fontStyle=0;fontSize=14;spacingLeft=10;" vertex="1" parent="f-dUaQXnFNoJPyk0cG8k-1">
          <mxGeometry x="420" y="155" width="85" height="16" as="geometry" />
        </mxCell>
        <mxCell id="aKpnkyNH8P7iJeheW4p0-65" value="" style="shape=triangle;direction=south;fillColor=#ffffff;strokeColor=none;perimeter=none;" vertex="1" parent="aKpnkyNH8P7iJeheW4p0-64">
          <mxGeometry x="1" y="0.5" width="10" height="5" relative="1" as="geometry">
            <mxPoint x="-17" y="-2.5" as="offset" />
          </mxGeometry>
        </mxCell>
        <mxCell id="aKpnkyNH8P7iJeheW4p0-66" value="" style="html=1;shadow=0;dashed=0;shape=mxgraph.bootstrap.rrect;rSize=5;fillColor=#ffffff;strokeColor=#999999;" vertex="1" parent="f-dUaQXnFNoJPyk0cG8k-1">
          <mxGeometry x="420" y="171" width="100" height="80" as="geometry" />
        </mxCell>
        <mxCell id="aKpnkyNH8P7iJeheW4p0-67" value="High" style="fillColor=none;strokeColor=none;align=left;spacing=20;fontSize=14;" vertex="1" parent="aKpnkyNH8P7iJeheW4p0-66">
          <mxGeometry width="130" height="30" relative="1" as="geometry">
            <mxPoint y="-3" as="offset" />
          </mxGeometry>
        </mxCell>
        <mxCell id="aKpnkyNH8P7iJeheW4p0-68" value="Medium" style="fillColor=none;strokeColor=none;align=left;spacing=20;fontSize=14;" vertex="1" parent="aKpnkyNH8P7iJeheW4p0-66">
          <mxGeometry width="80" height="30" relative="1" as="geometry">
            <mxPoint y="23" as="offset" />
          </mxGeometry>
        </mxCell>
        <mxCell id="aKpnkyNH8P7iJeheW4p0-69" value="Low" style="fillColor=none;strokeColor=none;align=left;spacing=20;fontSize=14;" vertex="1" parent="aKpnkyNH8P7iJeheW4p0-66">
          <mxGeometry width="170" height="30" relative="1" as="geometry">
            <mxPoint y="48" as="offset" />
          </mxGeometry>
        </mxCell>
        <mxCell id="aKpnkyNH8P7iJeheW4p0-71" value="Today" style="html=1;fillColor=none;strokeColor=none;fontSize=11;align=left;fontColor=#596780;whiteSpace=wrap" vertex="1" parent="f-dUaQXnFNoJPyk0cG8k-1">
          <mxGeometry x="300" y="130" width="100" height="20" as="geometry" />
        </mxCell>
        <mxCell id="aKpnkyNH8P7iJeheW4p0-72" value="Tomorrow" style="html=1;fillColor=none;strokeColor=none;fontSize=11;align=left;fontColor=#596780;whiteSpace=wrap" vertex="1" parent="f-dUaQXnFNoJPyk0cG8k-1">
          <mxGeometry x="420" y="130" width="100" height="20" as="geometry" />
        </mxCell>
        <mxCell id="aKpnkyNH8P7iJeheW4p0-75" value="" style="html=1;shadow=0;dashed=0;shape=mxgraph.bootstrap.rrect;rSize=5;fillColor=#ffffff;strokeColor=#999999;" vertex="1" parent="f-dUaQXnFNoJPyk0cG8k-1">
          <mxGeometry x="550" y="170" width="100" height="79" as="geometry" />
        </mxCell>
        <mxCell id="aKpnkyNH8P7iJeheW4p0-76" value="Creative AA" style="fillColor=none;strokeColor=none;align=left;spacing=20;fontSize=14;" vertex="1" parent="aKpnkyNH8P7iJeheW4p0-75">
          <mxGeometry width="130" height="30" relative="1" as="geometry">
            <mxPoint y="-3" as="offset" />
          </mxGeometry>
        </mxCell>
        <mxCell id="aKpnkyNH8P7iJeheW4p0-77" value="Creative AB" style="fillColor=none;strokeColor=none;align=left;spacing=20;fontSize=14;" vertex="1" parent="aKpnkyNH8P7iJeheW4p0-75">
          <mxGeometry width="80" height="30" relative="1" as="geometry">
            <mxPoint y="23" as="offset" />
          </mxGeometry>
        </mxCell>
        <mxCell id="aKpnkyNH8P7iJeheW4p0-73" value="Creative" style="html=1;shadow=0;dashed=0;shape=mxgraph.bootstrap.rrect;rSize=5;strokeColor=none;strokeWidth=1;fillColor=#33A64C;fontColor=#ffffff;whiteSpace=wrap;align=left;verticalAlign=middle;fontStyle=0;fontSize=14;spacingLeft=10;" vertex="1" parent="aKpnkyNH8P7iJeheW4p0-75">
          <mxGeometry x="1" y="-15.8" width="90" height="15.8" as="geometry" />
        </mxCell>
        <mxCell id="aKpnkyNH8P7iJeheW4p0-74" value="" style="shape=triangle;direction=south;fillColor=#ffffff;strokeColor=none;perimeter=none;" vertex="1" parent="aKpnkyNH8P7iJeheW4p0-73">
          <mxGeometry x="1" y="0.5" width="10" height="5" relative="1" as="geometry">
            <mxPoint x="-17" y="-2.5" as="offset" />
          </mxGeometry>
        </mxCell>
        <mxCell id="ujwWZb7aNPCwIz8AM0vW-0" value="Advanced Messaging Rules" style="rounded=0;whiteSpace=wrap;html=1;fillColor=#00FF00;" vertex="1" parent="f-dUaQXnFNoJPyk0cG8k-1">
          <mxGeometry x="210" y="300" width="170" height="20" as="geometry" />
        </mxCell>
        <mxCell id="lB9_NSWUKBu90zVB3KeS-0" value="Advanced Rules can be implemented by AI/ML models deployed on a separate Rule DB. In that case separate Rule engine will be deployed to achieve that." style="rounded=0;whiteSpace=wrap;html=1;fillColor=#FFFFFF;" vertex="1" parent="f-dUaQXnFNoJPyk0cG8k-1">
          <mxGeometry x="212" y="330" width="548" height="80" as="geometry" />
        </mxCell>
      </root>
    </mxGraphModel>
  </diagram>
  <diagram id="xwNNuvnTZdBHgN4qQ60u" name="DeploymentArchitecture">
    <mxGraphModel dx="1293" dy="548" grid="0" gridSize="10" guides="1" tooltips="1" connect="1" arrows="1" fold="1" page="1" pageScale="1" pageWidth="827" pageHeight="1169" math="0" shadow="0">
      <root>
        <mxCell id="I1sY_yRN31p_9mRcpCPW-0" />
        <mxCell id="I1sY_yRN31p_9mRcpCPW-1" parent="I1sY_yRN31p_9mRcpCPW-0" />
        <mxCell id="I1sY_yRN31p_9mRcpCPW-3" value="" style="rounded=0;whiteSpace=wrap;html=1;fillColor=#FFFFFF;" vertex="1" parent="I1sY_yRN31p_9mRcpCPW-1">
          <mxGeometry x="38" y="55" width="729" height="274" as="geometry" />
        </mxCell>
        <mxCell id="Ug7GnwfD3f8KXnoab8In-12" style="edgeStyle=orthogonalEdgeStyle;rounded=0;orthogonalLoop=1;jettySize=auto;html=1;entryX=0;entryY=0.5;entryDx=0;entryDy=0;" edge="1" parent="I1sY_yRN31p_9mRcpCPW-1" source="Ug7GnwfD3f8KXnoab8In-1" target="Ug7GnwfD3f8KXnoab8In-9">
          <mxGeometry relative="1" as="geometry" />
        </mxCell>
        <mxCell id="Ug7GnwfD3f8KXnoab8In-29" style="edgeStyle=orthogonalEdgeStyle;rounded=0;orthogonalLoop=1;jettySize=auto;html=1;" edge="1" parent="I1sY_yRN31p_9mRcpCPW-1" source="Ug7GnwfD3f8KXnoab8In-1" target="I1sY_yRN31p_9mRcpCPW-3">
          <mxGeometry relative="1" as="geometry">
            <Array as="points">
              <mxPoint x="272" y="230" />
              <mxPoint x="272" y="230" />
            </Array>
          </mxGeometry>
        </mxCell>
        <mxCell id="Ug7GnwfD3f8KXnoab8In-1" value="&lt;br&gt;&lt;br&gt;Developer Accounts" style="rounded=0;whiteSpace=wrap;html=1;fillColor=#FFFFFF;" vertex="1" parent="I1sY_yRN31p_9mRcpCPW-1">
          <mxGeometry x="58" y="90.5" width="163" height="72" as="geometry" />
        </mxCell>
        <mxCell id="Ug7GnwfD3f8KXnoab8In-5" value="" style="aspect=fixed;perimeter=ellipsePerimeter;html=1;align=center;shadow=0;dashed=0;spacingTop=3;image;image=img/lib/active_directory/internet_cloud.svg;fillColor=#FFFFFF;" vertex="1" parent="I1sY_yRN31p_9mRcpCPW-1">
          <mxGeometry x="10" y="25" width="88.89" height="56" as="geometry" />
        </mxCell>
        <mxCell id="Ug7GnwfD3f8KXnoab8In-6" value="" style="outlineConnect=0;fontColor=#232F3E;gradientColor=none;fillColor=#BC1356;strokeColor=none;dashed=0;verticalLabelPosition=bottom;verticalAlign=top;align=center;html=1;fontSize=12;fontStyle=0;aspect=fixed;pointerEvents=1;shape=mxgraph.aws4.organizations_account;" vertex="1" parent="I1sY_yRN31p_9mRcpCPW-1">
          <mxGeometry x="78" y="98" width="29.41" height="31" as="geometry" />
        </mxCell>
        <mxCell id="Ug7GnwfD3f8KXnoab8In-7" value="" style="outlineConnect=0;fontColor=#232F3E;gradientColor=none;fillColor=#BC1356;strokeColor=none;dashed=0;verticalLabelPosition=bottom;verticalAlign=top;align=center;html=1;fontSize=12;fontStyle=0;aspect=fixed;pointerEvents=1;shape=mxgraph.aws4.organizations_account;" vertex="1" parent="I1sY_yRN31p_9mRcpCPW-1">
          <mxGeometry x="121" y="97" width="29.41" height="31" as="geometry" />
        </mxCell>
        <mxCell id="Ug7GnwfD3f8KXnoab8In-8" value="" style="outlineConnect=0;fontColor=#232F3E;gradientColor=none;fillColor=#BC1356;strokeColor=none;dashed=0;verticalLabelPosition=bottom;verticalAlign=top;align=center;html=1;fontSize=12;fontStyle=0;aspect=fixed;pointerEvents=1;shape=mxgraph.aws4.organizations_account;" vertex="1" parent="I1sY_yRN31p_9mRcpCPW-1">
          <mxGeometry x="161" y="97" width="29.41" height="31" as="geometry" />
        </mxCell>
        <mxCell id="Ug7GnwfD3f8KXnoab8In-13" value="" style="edgeStyle=orthogonalEdgeStyle;rounded=0;orthogonalLoop=1;jettySize=auto;html=1;" edge="1" parent="I1sY_yRN31p_9mRcpCPW-1" source="Ug7GnwfD3f8KXnoab8In-9" target="Ug7GnwfD3f8KXnoab8In-10">
          <mxGeometry relative="1" as="geometry" />
        </mxCell>
        <mxCell id="Ug7GnwfD3f8KXnoab8In-26" style="edgeStyle=orthogonalEdgeStyle;rounded=0;orthogonalLoop=1;jettySize=auto;html=1;" edge="1" parent="I1sY_yRN31p_9mRcpCPW-1" source="Ug7GnwfD3f8KXnoab8In-9" target="Ug7GnwfD3f8KXnoab8In-19">
          <mxGeometry relative="1" as="geometry" />
        </mxCell>
        <mxCell id="Ug7GnwfD3f8KXnoab8In-9" value="&lt;br&gt;&lt;br&gt;Test Account" style="rounded=0;whiteSpace=wrap;html=1;fillColor=#FFFFFF;" vertex="1" parent="I1sY_yRN31p_9mRcpCPW-1">
          <mxGeometry x="320" y="91" width="173" height="71" as="geometry" />
        </mxCell>
        <mxCell id="Ug7GnwfD3f8KXnoab8In-27" style="edgeStyle=orthogonalEdgeStyle;rounded=0;orthogonalLoop=1;jettySize=auto;html=1;" edge="1" parent="I1sY_yRN31p_9mRcpCPW-1" source="Ug7GnwfD3f8KXnoab8In-10" target="I1sY_yRN31p_9mRcpCPW-3">
          <mxGeometry relative="1" as="geometry">
            <Array as="points">
              <mxPoint x="444" y="237" />
              <mxPoint x="444" y="237" />
            </Array>
          </mxGeometry>
        </mxCell>
        <mxCell id="Ug7GnwfD3f8KXnoab8In-10" value="&lt;br&gt;&lt;br&gt;Prod Account" style="rounded=0;whiteSpace=wrap;html=1;fillColor=#FFFFFF;" vertex="1" parent="I1sY_yRN31p_9mRcpCPW-1">
          <mxGeometry x="564" y="91" width="173" height="71" as="geometry" />
        </mxCell>
        <mxCell id="Ug7GnwfD3f8KXnoab8In-14" value="" style="outlineConnect=0;fontColor=#232F3E;gradientColor=none;fillColor=#BC1356;strokeColor=none;dashed=0;verticalLabelPosition=bottom;verticalAlign=top;align=center;html=1;fontSize=12;fontStyle=0;aspect=fixed;pointerEvents=1;shape=mxgraph.aws4.organizations_account;" vertex="1" parent="I1sY_yRN31p_9mRcpCPW-1">
          <mxGeometry x="402" y="99.5" width="29.41" height="31" as="geometry" />
        </mxCell>
        <mxCell id="Ug7GnwfD3f8KXnoab8In-28" style="edgeStyle=orthogonalEdgeStyle;rounded=0;orthogonalLoop=1;jettySize=auto;html=1;exitX=0.5;exitY=1;exitDx=0;exitDy=0;" edge="1" parent="I1sY_yRN31p_9mRcpCPW-1" source="Ug7GnwfD3f8KXnoab8In-10" target="Ug7GnwfD3f8KXnoab8In-19">
          <mxGeometry relative="1" as="geometry">
            <mxPoint x="651" y="170" as="sourcePoint" />
            <Array as="points">
              <mxPoint x="651" y="222" />
            </Array>
          </mxGeometry>
        </mxCell>
        <mxCell id="Ug7GnwfD3f8KXnoab8In-15" value="" style="outlineConnect=0;fontColor=#232F3E;gradientColor=none;fillColor=#BC1356;strokeColor=none;dashed=0;verticalLabelPosition=bottom;verticalAlign=top;align=center;html=1;fontSize=12;fontStyle=0;aspect=fixed;pointerEvents=1;shape=mxgraph.aws4.organizations_account;" vertex="1" parent="I1sY_yRN31p_9mRcpCPW-1">
          <mxGeometry x="635.8" y="98" width="33.2" height="35" as="geometry" />
        </mxCell>
        <mxCell id="Ug7GnwfD3f8KXnoab8In-16" value="Code Push" style="text;html=1;align=center;verticalAlign=middle;resizable=0;points=[];autosize=1;strokeColor=none;" vertex="1" parent="I1sY_yRN31p_9mRcpCPW-1">
          <mxGeometry x="238" y="106" width="69" height="18" as="geometry" />
        </mxCell>
        <mxCell id="Ug7GnwfD3f8KXnoab8In-18" value="Code Push" style="text;html=1;align=center;verticalAlign=middle;resizable=0;points=[];autosize=1;strokeColor=none;" vertex="1" parent="I1sY_yRN31p_9mRcpCPW-1">
          <mxGeometry x="495" y="106" width="69" height="18" as="geometry" />
        </mxCell>
        <mxCell id="Ug7GnwfD3f8KXnoab8In-19" value="organization account" style="outlineConnect=0;fontColor=#232F3E;gradientColor=none;fillColor=#C7131F;strokeColor=none;dashed=0;verticalLabelPosition=bottom;verticalAlign=top;align=center;html=1;fontSize=12;fontStyle=0;aspect=fixed;pointerEvents=1;shape=mxgraph.aws4.organizations_account;" vertex="1" parent="I1sY_yRN31p_9mRcpCPW-1">
          <mxGeometry x="376.14" y="199" width="60.72" height="64" as="geometry" />
        </mxCell>
        <mxCell id="Ug7GnwfD3f8KXnoab8In-45" value="" style="endArrow=classic;html=1;" edge="1" parent="I1sY_yRN31p_9mRcpCPW-1">
          <mxGeometry width="50" height="50" relative="1" as="geometry">
            <mxPoint x="132" y="165" as="sourcePoint" />
            <mxPoint x="359" y="245" as="targetPoint" />
          </mxGeometry>
        </mxCell>
      </root>
    </mxGraphModel>
  </diagram>
  <diagram id="WB1VRyWfVdl7zXoG8gDf" name="Logical_Architecture">
    <mxGraphModel dx="1278" dy="548" grid="0" gridSize="10" guides="1" tooltips="1" connect="1" arrows="1" fold="1" page="1" pageScale="1" pageWidth="827" pageHeight="1169" math="0" shadow="0">
      <root>
        <mxCell id="Fh1z7w70MeVigOkW6zFo-0" />
        <mxCell id="Fh1z7w70MeVigOkW6zFo-1" parent="Fh1z7w70MeVigOkW6zFo-0" />
        <mxCell id="Fh1z7w70MeVigOkW6zFo-5" style="edgeStyle=orthogonalEdgeStyle;rounded=0;orthogonalLoop=1;jettySize=auto;html=1;entryX=0;entryY=0.5;entryDx=0;entryDy=0;" parent="Fh1z7w70MeVigOkW6zFo-1" source="Fh1z7w70MeVigOkW6zFo-2" target="Fh1z7w70MeVigOkW6zFo-3" edge="1">
          <mxGeometry relative="1" as="geometry" />
        </mxCell>
        <mxCell id="Fh1z7w70MeVigOkW6zFo-2" value="" style="outlineConnect=0;fontColor=#232F3E;gradientColor=none;fillColor=#232F3E;strokeColor=none;dashed=0;verticalLabelPosition=bottom;verticalAlign=top;align=center;html=1;fontSize=12;fontStyle=0;aspect=fixed;pointerEvents=1;shape=mxgraph.aws4.user;" parent="Fh1z7w70MeVigOkW6zFo-1" vertex="1">
          <mxGeometry x="51" y="211" width="46" height="46" as="geometry" />
        </mxCell>
        <mxCell id="U1pG3t2y1eWyl0VUenEj-9" style="edgeStyle=orthogonalEdgeStyle;rounded=0;orthogonalLoop=1;jettySize=auto;html=1;entryX=0.5;entryY=0;entryDx=0;entryDy=0;entryPerimeter=0;" parent="Fh1z7w70MeVigOkW6zFo-1" source="Fh1z7w70MeVigOkW6zFo-3" target="Fh1z7w70MeVigOkW6zFo-4" edge="1">
          <mxGeometry relative="1" as="geometry" />
        </mxCell>
        <mxCell id="Fh1z7w70MeVigOkW6zFo-3" value="Login to the Campaign Portal" style="rounded=0;whiteSpace=wrap;html=1;fillColor=#FFFFFF;" parent="Fh1z7w70MeVigOkW6zFo-1" vertex="1">
          <mxGeometry x="187" y="157" width="90" height="56" as="geometry" />
        </mxCell>
        <mxCell id="U1pG3t2y1eWyl0VUenEj-1" style="edgeStyle=orthogonalEdgeStyle;rounded=0;orthogonalLoop=1;jettySize=auto;html=1;" parent="Fh1z7w70MeVigOkW6zFo-1" source="Fh1z7w70MeVigOkW6zFo-4" target="U1pG3t2y1eWyl0VUenEj-0" edge="1">
          <mxGeometry relative="1" as="geometry" />
        </mxCell>
        <mxCell id="Fh1z7w70MeVigOkW6zFo-4" value="" style="pointerEvents=1;shadow=0;dashed=0;html=1;strokeColor=none;labelPosition=center;verticalLabelPosition=bottom;verticalAlign=top;align=center;fillColor=#505050;shape=mxgraph.mscae.intune.dashboard" parent="Fh1z7w70MeVigOkW6zFo-1" vertex="1">
          <mxGeometry x="184.5" y="257" width="95" height="67" as="geometry" />
        </mxCell>
        <mxCell id="U1pG3t2y1eWyl0VUenEj-4" style="edgeStyle=orthogonalEdgeStyle;rounded=0;orthogonalLoop=1;jettySize=auto;html=1;" parent="Fh1z7w70MeVigOkW6zFo-1" source="U1pG3t2y1eWyl0VUenEj-0" target="U1pG3t2y1eWyl0VUenEj-3" edge="1">
          <mxGeometry relative="1" as="geometry" />
        </mxCell>
        <mxCell id="U1pG3t2y1eWyl0VUenEj-0" value="Update any metadata as needed" style="rounded=0;whiteSpace=wrap;html=1;fillColor=#FFFFFF;" parent="Fh1z7w70MeVigOkW6zFo-1" vertex="1">
          <mxGeometry x="183.5" y="379" width="97" height="60" as="geometry" />
        </mxCell>
        <mxCell id="U1pG3t2y1eWyl0VUenEj-7" style="edgeStyle=orthogonalEdgeStyle;rounded=0;orthogonalLoop=1;jettySize=auto;html=1;entryX=1;entryY=0.5;entryDx=0;entryDy=0;entryPerimeter=0;" parent="Fh1z7w70MeVigOkW6zFo-1" source="U1pG3t2y1eWyl0VUenEj-2" target="U1pG3t2y1eWyl0VUenEj-3" edge="1">
          <mxGeometry relative="1" as="geometry" />
        </mxCell>
        <mxCell id="U1pG3t2y1eWyl0VUenEj-15" style="edgeStyle=orthogonalEdgeStyle;rounded=0;orthogonalLoop=1;jettySize=auto;html=1;entryX=1;entryY=0;entryDx=0;entryDy=28.8525;entryPerimeter=0;" parent="Fh1z7w70MeVigOkW6zFo-1" source="U1pG3t2y1eWyl0VUenEj-2" target="U1pG3t2y1eWyl0VUenEj-8" edge="1">
          <mxGeometry relative="1" as="geometry" />
        </mxCell>
        <mxCell id="U1pG3t2y1eWyl0VUenEj-2" value="Feed update process runs twice a day&lt;span style=&quot;color: rgba(0 , 0 , 0 , 0) ; font-family: monospace ; font-size: 0px&quot;&gt;%3CmxGraphModel%3E%3Croot%3E%3CmxCell%20id%3D%220%22%2F%3E%3CmxCell%20id%3D%221%22%20parent%3D%220%22%2F%3E%3CmxCell%20id%3D%222%22%20value%3D%22PostgreSQL%20DB%22%20style%3D%22shape%3Dcylinder3%3BwhiteSpace%3Dwrap%3Bhtml%3D1%3BboundedLbl%3D1%3BbackgroundOutline%3D1%3Bsize%3D15%3B%22%20vertex%3D%221%22%20parent%3D%221%22%3E%3CmxGeometry%20x%3D%22690.63%22%20y%3D%22257.18%22%20width%3D%2280%22%20height%3D%22125%22%20as%3D%22geometry%22%2F%3E%3C%2FmxCell%3E%3C%2Froot%3E%3C%2FmxGraphModel%3&lt;/span&gt;" style="rounded=0;whiteSpace=wrap;html=1;fillColor=#FFFFFF;" parent="Fh1z7w70MeVigOkW6zFo-1" vertex="1">
          <mxGeometry x="612" y="290" width="97" height="60" as="geometry" />
        </mxCell>
        <mxCell id="U1pG3t2y1eWyl0VUenEj-12" style="edgeStyle=orthogonalEdgeStyle;rounded=0;orthogonalLoop=1;jettySize=auto;html=1;entryX=1;entryY=0.5;entryDx=0;entryDy=0;entryPerimeter=0;" parent="Fh1z7w70MeVigOkW6zFo-1" source="U1pG3t2y1eWyl0VUenEj-3" target="Fh1z7w70MeVigOkW6zFo-4" edge="1">
          <mxGeometry relative="1" as="geometry">
            <Array as="points">
              <mxPoint x="481" y="337" />
              <mxPoint x="364" y="337" />
              <mxPoint x="364" y="291" />
            </Array>
          </mxGeometry>
        </mxCell>
        <mxCell id="U1pG3t2y1eWyl0VUenEj-3" value="Portal&lt;br&gt;DB" style="shape=cylinder3;whiteSpace=wrap;html=1;boundedLbl=1;backgroundOutline=1;size=15;" parent="Fh1z7w70MeVigOkW6zFo-1" vertex="1">
          <mxGeometry x="449" y="366.29" width="63.37" height="85.41" as="geometry" />
        </mxCell>
        <mxCell id="U1pG3t2y1eWyl0VUenEj-6" value="Portal Dashboard" style="text;html=1;align=center;verticalAlign=middle;resizable=0;points=[];autosize=1;strokeColor=none;" parent="Fh1z7w70MeVigOkW6zFo-1" vertex="1">
          <mxGeometry x="183.5" y="329" width="104" height="18" as="geometry" />
        </mxCell>
        <mxCell id="U1pG3t2y1eWyl0VUenEj-14" style="edgeStyle=orthogonalEdgeStyle;rounded=0;orthogonalLoop=1;jettySize=auto;html=1;entryX=1.003;entryY=0.316;entryDx=0;entryDy=0;entryPerimeter=0;" parent="Fh1z7w70MeVigOkW6zFo-1" source="U1pG3t2y1eWyl0VUenEj-8" target="Fh1z7w70MeVigOkW6zFo-4" edge="1">
          <mxGeometry relative="1" as="geometry" />
        </mxCell>
        <mxCell id="U1pG3t2y1eWyl0VUenEj-8" value="Platform&lt;br&gt;API" style="shape=cylinder3;whiteSpace=wrap;html=1;boundedLbl=1;backgroundOutline=1;size=15;" parent="Fh1z7w70MeVigOkW6zFo-1" vertex="1">
          <mxGeometry x="449" y="157.00000000000003" width="63.37" height="85.41" as="geometry" />
        </mxCell>
        <mxCell id="8eSb0KJ8_gnrX_TbuVg4-7" style="edgeStyle=orthogonalEdgeStyle;rounded=0;orthogonalLoop=1;jettySize=auto;html=1;" edge="1" parent="Fh1z7w70MeVigOkW6zFo-1" source="8eSb0KJ8_gnrX_TbuVg4-0" target="8eSb0KJ8_gnrX_TbuVg4-6">
          <mxGeometry relative="1" as="geometry" />
        </mxCell>
        <mxCell id="8eSb0KJ8_gnrX_TbuVg4-9" style="edgeStyle=orthogonalEdgeStyle;rounded=0;orthogonalLoop=1;jettySize=auto;html=1;" edge="1" parent="Fh1z7w70MeVigOkW6zFo-1" source="8eSb0KJ8_gnrX_TbuVg4-0" target="8eSb0KJ8_gnrX_TbuVg4-1">
          <mxGeometry relative="1" as="geometry">
            <Array as="points">
              <mxPoint x="185" y="544" />
            </Array>
          </mxGeometry>
        </mxCell>
        <mxCell id="8eSb0KJ8_gnrX_TbuVg4-0" value="Feed update process runs by calling the provider api" style="rounded=0;whiteSpace=wrap;html=1;fillColor=#FFFFFF;" vertex="1" parent="Fh1z7w70MeVigOkW6zFo-1">
          <mxGeometry x="97" y="526" width="119" height="56" as="geometry" />
        </mxCell>
        <mxCell id="8eSb0KJ8_gnrX_TbuVg4-13" style="edgeStyle=orthogonalEdgeStyle;rounded=0;orthogonalLoop=1;jettySize=auto;html=1;entryX=0;entryY=0.5;entryDx=0;entryDy=0;" edge="1" parent="Fh1z7w70MeVigOkW6zFo-1" source="8eSb0KJ8_gnrX_TbuVg4-1" target="8eSb0KJ8_gnrX_TbuVg4-10">
          <mxGeometry relative="1" as="geometry" />
        </mxCell>
        <mxCell id="8eSb0KJ8_gnrX_TbuVg4-16" style="edgeStyle=orthogonalEdgeStyle;rounded=0;orthogonalLoop=1;jettySize=auto;html=1;" edge="1" parent="Fh1z7w70MeVigOkW6zFo-1" source="8eSb0KJ8_gnrX_TbuVg4-1" target="8eSb0KJ8_gnrX_TbuVg4-15">
          <mxGeometry relative="1" as="geometry" />
        </mxCell>
        <mxCell id="8eSb0KJ8_gnrX_TbuVg4-1" value="Apply Messaging Rules&amp;nbsp;" style="rounded=0;whiteSpace=wrap;html=1;fillColor=#FFFFFF;" vertex="1" parent="Fh1z7w70MeVigOkW6zFo-1">
          <mxGeometry x="292" y="518" width="90" height="56" as="geometry" />
        </mxCell>
        <mxCell id="8eSb0KJ8_gnrX_TbuVg4-3" value="On success" style="text;html=1;align=center;verticalAlign=middle;resizable=0;points=[];autosize=1;strokeColor=none;" vertex="1" parent="Fh1z7w70MeVigOkW6zFo-1">
          <mxGeometry x="215.5" y="530" width="72" height="18" as="geometry" />
        </mxCell>
        <mxCell id="8eSb0KJ8_gnrX_TbuVg4-6" value="Log &amp;amp; Notify the client that the feed call is failed" style="rounded=0;whiteSpace=wrap;html=1;fillColor=#FFFFFF;" vertex="1" parent="Fh1z7w70MeVigOkW6zFo-1">
          <mxGeometry x="103" y="676" width="107" height="56" as="geometry" />
        </mxCell>
        <mxCell id="8eSb0KJ8_gnrX_TbuVg4-8" value="On Failure" style="text;html=1;align=center;verticalAlign=middle;resizable=0;points=[];autosize=1;strokeColor=none;" vertex="1" parent="Fh1z7w70MeVigOkW6zFo-1">
          <mxGeometry x="84" y="614" width="66" height="18" as="geometry" />
        </mxCell>
        <mxCell id="8eSb0KJ8_gnrX_TbuVg4-19" style="edgeStyle=orthogonalEdgeStyle;rounded=0;orthogonalLoop=1;jettySize=auto;html=1;" edge="1" parent="Fh1z7w70MeVigOkW6zFo-1" source="8eSb0KJ8_gnrX_TbuVg4-10" target="8eSb0KJ8_gnrX_TbuVg4-18">
          <mxGeometry relative="1" as="geometry" />
        </mxCell>
        <mxCell id="8eSb0KJ8_gnrX_TbuVg4-10" value="Send Slack Notification for each Region" style="rounded=0;whiteSpace=wrap;html=1;fillColor=#FFFFFF;" vertex="1" parent="Fh1z7w70MeVigOkW6zFo-1">
          <mxGeometry x="466" y="518" width="90" height="56" as="geometry" />
        </mxCell>
        <mxCell id="8eSb0KJ8_gnrX_TbuVg4-14" value="On success" style="text;html=1;align=center;verticalAlign=middle;resizable=0;points=[];autosize=1;strokeColor=none;" vertex="1" parent="Fh1z7w70MeVigOkW6zFo-1">
          <mxGeometry x="388" y="526" width="72" height="18" as="geometry" />
        </mxCell>
        <mxCell id="8eSb0KJ8_gnrX_TbuVg4-15" value="Log &amp;amp; Notify the client that messaging rule apply is failed" style="rounded=0;whiteSpace=wrap;html=1;fillColor=#FFFFFF;" vertex="1" parent="Fh1z7w70MeVigOkW6zFo-1">
          <mxGeometry x="273.75" y="675" width="126.5" height="58" as="geometry" />
        </mxCell>
        <mxCell id="8eSb0KJ8_gnrX_TbuVg4-17" value="On Failure" style="text;html=1;align=center;verticalAlign=middle;resizable=0;points=[];autosize=1;strokeColor=none;" vertex="1" parent="Fh1z7w70MeVigOkW6zFo-1">
          <mxGeometry x="273" y="627" width="66" height="18" as="geometry" />
        </mxCell>
        <mxCell id="8eSb0KJ8_gnrX_TbuVg4-22" style="edgeStyle=orthogonalEdgeStyle;rounded=0;orthogonalLoop=1;jettySize=auto;html=1;" edge="1" parent="Fh1z7w70MeVigOkW6zFo-1" source="8eSb0KJ8_gnrX_TbuVg4-18" target="8eSb0KJ8_gnrX_TbuVg4-21">
          <mxGeometry relative="1" as="geometry" />
        </mxCell>
        <mxCell id="8eSb0KJ8_gnrX_TbuVg4-18" value="Update messaging data in Campaigns" style="rounded=0;whiteSpace=wrap;html=1;fillColor=#FFFFFF;" vertex="1" parent="Fh1z7w70MeVigOkW6zFo-1">
          <mxGeometry x="637" y="518" width="90" height="56" as="geometry" />
        </mxCell>
        <mxCell id="8eSb0KJ8_gnrX_TbuVg4-20" value="On success" style="text;html=1;align=center;verticalAlign=middle;resizable=0;points=[];autosize=1;strokeColor=none;" vertex="1" parent="Fh1z7w70MeVigOkW6zFo-1">
          <mxGeometry x="560" y="524" width="72" height="18" as="geometry" />
        </mxCell>
        <mxCell id="8eSb0KJ8_gnrX_TbuVg4-21" value="Log &amp;amp; Notify the client that the update to platform api if failed" style="rounded=0;whiteSpace=wrap;html=1;fillColor=#FFFFFF;" vertex="1" parent="Fh1z7w70MeVigOkW6zFo-1">
          <mxGeometry x="620" y="678" width="124" height="52" as="geometry" />
        </mxCell>
        <mxCell id="8eSb0KJ8_gnrX_TbuVg4-23" value="On Failure" style="text;html=1;align=center;verticalAlign=middle;resizable=0;points=[];autosize=1;strokeColor=none;" vertex="1" parent="Fh1z7w70MeVigOkW6zFo-1">
          <mxGeometry x="684" y="621" width="66" height="18" as="geometry" />
        </mxCell>
      </root>
    </mxGraphModel>
  </diagram>
</mxfile>
